<mxfile host="app.diagrams.net" modified="2024-04-26T12:56:16.912Z" agent="Mozilla/5.0 (Windows NT 10.0; Win64; x64) AppleWebKit/537.36 (KHTML, like Gecko) Chrome/124.0.0.0 Safari/537.36" etag="pdkqGeRQ_qRaJKdUwmyX" version="24.3.0" type="github">
  <diagram name="第 1 页" id="fnVIATw24C7Jd6WAo7wD">
    <mxGraphModel dx="2849" dy="1936" grid="1" gridSize="10" guides="1" tooltips="1" connect="1" arrows="1" fold="1" page="0" pageScale="1" pageWidth="827" pageHeight="1169" math="0" shadow="0">
      <root>
        <mxCell id="0" />
        <mxCell id="1" parent="0" />
        <mxCell id="5m0OHBA38H0runsn4Bls-2" value="" style="shape=image;verticalLabelPosition=bottom;labelBackgroundColor=default;verticalAlign=top;aspect=fixed;imageAspect=0;image=data:image/png,iVBORw0KGgoAAAANSUhEUgAAAVoAAALzCAYAAABQqs/NAAAAAXNSR0IArs4c6QAAAARnQU1BAACxjwv8YQUAAAAJcEhZcwAADsMAAA7DAcdvqGQAAFSbSURBVHhe7d0/6GzJlR/wtlHkDexA2YIGR4pmQE4cOBYvWRYGOVh4MCAUKTCYYSIjMwg7Mo9lYHFkC8GCQImYRInYeAJHBi3YMMkgRQI7Mxuv+/TtM+90dVWdqjp16s/t7weuXv/qdP25devW7zfdV1X/5Pv/6l//4wUAANz80/u/AADgBBMtAIAzTLQAAM6in9G++9tfXP7l/XXoR5/83TX+Q8TvP4cQRxzx142Tb373k8tnv7r/cIe/aAEAnGGiBQBwhokWAMAZJloAAGeYaAEAnGGiBQBwhokWAMAZJloAAGdYVAYAwBn+ogUAcIaJFgDAGSZaAABnmGgBAJxhogUAcNY80f7mb39xf/UepXG6jMs0mc5iaQAAZ9E80f7ok59kJ0iO00GvU7Q4AMDuzM/R5iZKnohzcUyyAHB21TsskHAF8diEKdMe4381dQV07zi59c/1PH/8q19ffnlPIz/+7N9ffvnuT675V+8fxBE/c5zEdlj4zv1fE5pE0xPrc/zsPvvV/ZfJm+9fLp/8/DZZ/vg//eLyFx9crq//dLwpw5rf3T/8/eWvf/rF5av7j4/+6v5vhjW/xrt8jVb/7POfHfe2YPtMX4bRwXgy5QmVX4dpr+Dd219fPrue72//8L3LX/zt55efffY310nyj5ffFv6iseYHgLXg8S5Hv/yPx2T5g4/+73WSPP4yrWHNDwBrMD11ID8K4L9a+S9Xfh2mvZJ/c/9L9Jv7X6Y/vqeXsuYHgDV0+Ys2nER5YmWvNsken7H+4vLpR5fL//yvP798dv/L9C9En+RY8wPAWswTbWoS5cn21SZZQp+xfvn7P14nyX93+c//40i7fQzw+78/flBY8wPAWkwTbTiJ8sSakoudzVfvfv7tJMl++e6L+yudNT8ArKP58S7tL1UZ194Lm/mzDy+fXq/pp/cfJXrOUGXNr/EuX6PVP/v8Z8e9Ldg+7LAAAOAMj3cBADjDRAsA4AwTLQCAM0y0AADOMNECADibNtHGnqmltFQ6jKVdHxmXaTKdxdIAXsm0iZaeqy25Aek9eAZ3PO36cFy7Prh+AAs8R5u7EXGTzqddH4LrB5BXvcMC/T8neq9A/nhD5ndgILkdCL5+d1/Q963PDgXEUr93vNv5YQeNKMQRz8WJ2w4LVnST1vz1k9uB4Ju3l8tXFH8Tj/fYocBSv3fcYweG8PqE16r2+qmsK+B753/19lnL13i3f4KpX4bRwfhmLZHbgeD4TeK7Q4Glfu94L6nrQ4d8HaYBwLOtH+/SdiDw3qHAWr93HADWMPWpAzoY/1VUQ9uBwHuHAmv93nGL1PWhQ74O0wDg2RJ/0dbepLkdCN69pXek4z1Y6veOewivD0+sDJMsQN70ibblJs3tQPDl/TNMzx0KLPV7x3tLXR+ebDHJAuimTrThTUo/l0rtQMDfNHrvUNBav3e8p9j1yV2jmusH8EqmTbThTQxr0a4Px+noPsHeV8CncsOjiHf+V2+ftXyNd/snwA4LAADOlvgyDADgzDDRAgA4w0QLAOAMEy0AgDNMtAAAzqZNtLFHLVKPYMx8LAPitOsn4zJNprNYGsCZTJtoS5+/pPfgedv1aNeP49r1w/WFV4AdFsBEu34E1xde3el2WNB2GCCe+WfvkFDc/9bzT16/g0yrub7W80Mc8ZlxEt4f5HQ7LJTsMOCZf8UdEkLW8w+F1y+8lrXXd7rVV/ifvYPA7v1jjTeY+mUYHYxvxhK5HQ5KeOZfZYeEHOv5k9T1o0O+DtMAXtHWj3fdlga8ThatOwx457fGvc2uH+BVTH3qgA7Gf/XUsO4w4J1/5g4JJSz1p64fHfJ1mAbwipb4i7b2JsztcFDCM/+KOySErOcfCq8fT6wMkyy8uukTbctNmNvhoIRn/tV2SIixnr+Uun482WKSBZg80YY3If1cyrrDgFd+/qZyhR0ScnrUH7t+uWtYc30BzmTaRBvepLAX7fpxnI7tJtjVV/ifvYPA7v1jjTfADgsAAM6W+DIMAODMMNECADjDRAsA4AwTLQCAM0y0AADOlp1oY49SpB6xsDx2cVZa/8m4TJPprCaN02VcppXGpVgawE6WnWhLn7+k9+B53Gda/3Fc679U3Fq+FmdaHGAHyz9Hm7vRcBPqtP4jlv61lk8s9QPsYPgOCy0rlD/ecLQgSkH+6/s8djgglvK9d1ggnjsgEFv5h9b6vccf4ohb4iS8P8gSOyxo6CaM3awpuR0EeuxwYCl/xg4LYf+FfVnbv6Ha8tX6Z6/Ar/HOb41rZpf/gpb+MowOxjdjidwOAj12OLCU36P+Eqn+o0O+DtNKcT5WWn74OkwLcRxgZ6d+vOu29N91MvPa4cBavrV+ANjD0k8d0MH4r54a3jscWMu31p+T6j865OswrRTnY6Xlh6/DtBDHAXa2xV+0qZswxbIDQonddlgI+49eUxqr7d9Qbfm96wdY3fITbctNaNkBocROOyyk+o8nO+sk11p+Sf0UAziDpSfa8CasufG8dzhoLb9X/SVi/Zfrw5r+JS3la3GJJ2OA3S070dINlvpLB3Ra/3G8dTKzlp+NixXuCf3LRxfWFfS981vjmtnlvyDssAAA4GyLL8MAAHaGiRYAwBkmWgAAZ5hoAQCcYaIFAHC27EQbexQk9YiIx2MjWv0yLtNkOoulzZZqJ6fLuExbJS7F0gBWsuxEm3r+MkTvoff2ptXPca1+r/ZZWc9vdpxpcYAVYIcFhVY/mdk+K+v5kZnxVAxgJafbYcG//oNMi97wTjsorHJ+8+K+1x9xxC1x8jI7LPQW1h+25bl918lg4A4KVrXnNztuNnsHgNk7JHjXr1k9v7X8iKW/DKOD8c02Sqp+OuTrWNqIHRSs3rf1UHN+M+MAO8LjXY5uSx9eJ1vsoADw2pZ+6oAOxn/VjJKqnw75OpbGf3l57qBgxW1ltecnY2GaZxxgR1v8RTv7Jgvr5xufPcfpA/NxOyhY1Z/f3DjAbpafaGffZKn6eTKIx8ftoGDVdn7z4wA7WXqiDW8y+nmkWP25Nsg476Ag3997BwUralvr+cWMiAPsaNnHu+immvmXjFa/jOfeS+mzzyXGen6z4yb3HQA+vf8o0cc+7qz1a/mtcc3Z81vLj8AOCwAAzvB4FwCAM0y0AADOMNECADjDRAsA4AwTLQCAs2kTLT2yE6K0VPpqtPbLuEwbFZdiaZpUOb3Kt1q9fQDStImWnossuQHoPV2foexEaz/HU+33jjMtnsLla1rLt1q9fQDS9OdoczfCDjeJ1n4yM56KlcqV0aN8q9XbB0CG77BAPHdQILfyr+V47HBA1t6hoFP/OV0fa5ys3D7EXztOwvFJ2j46oBXIrwObBnd4tKB8dLP08tmvjh0O5NKEtx0OPvrw/lNfYfsfb/zx8d68y7d6al/n8flkdvne9Wus9c9uv8ahfVO/DJM3B51Er5v53Vv/HQ5S7adDvo6lecZ74XJZ7/KtStsXvg9ghlM/3oUdDgBgBVOfOqCD0V8d8ucePHc4SLWfDvk6luYZ74XLZb3LtyptX/g+gBmW+Iu29018+4z2WuaoHQ7C9tNrSmOj4715l2+1evsApk+0HjcJfUY7aoeDVPspjWKz4r14l2+Vax/FAFYwdaINb5KeNwbvcCD13uEg1v7cOYyI90TleV2fHrT2UWy1NsNrapto7yuQ0yAOj1L0XnmT7EZrP8dTN7t33IrLX1W2fWJ8EvqXjy46jP8srXzv+jXW+me3X+PQPuywAADgbIkvwwAAzgwTLQCAM0y0AADOMNECADjDRAsA4GzZiTb2KEXqEQvLYxderO3X8su4TOsVl2rSSt9rNbt+gBrLTrSlz4fSe1Z83tPafi0/x7X8rXGm5ddo5beaXT9AjeWfo83dKDvcRNb2a/mJZ9zaPi2/1ez6AUoM32GhZYXy6A3z1mcHheL2JXZw+PrdF5ev7j+zx/bndwAgJecv0/rGre3z3eGAzKwfccRzcRKOT/Kd+79Lo5vo6WZ6cz3ZN9+/XO7rzN52UPjgcn39p+Mtjo7VweL1f/P2cvkq6OTn9tcJ84dl9Y7fVpj/6fMvjJu3n1/e3V+yqvzXa9fbU/2awe0bTjs/7/O3lu/d/gn9s/SXYXQwvpmONP8dFHJyOzjwb7JU+0ul8tMhX8fSLPEQx0Nhem1+q9L6AVaw9eNds3dQwA4OAFBi6acO6GD01wqn8V8unjsolMjVn2p/qVR+OuTrWJolHuJ4KEyvzW9VWj/ACrb4iza8iY4PpMftoBDK7eDw7u39TYJ1Eng+/2NiZL3jtaz5rWbXD6BZfqKN30TjdlCIye3g8GXwRZjXJEZpFPOKE4pprPmtcvUDrGLpiTa8iehnvnl5BwV5M/feQSEntYOD/KYy1v4asfy5MnrEJapbe3/u/LT8Vlr9AKtY9vGu8CZK4Zu55L0jWduk5Zfx2HtN8fsK85/ef6S49M3v4mV+K5OfPvbpIVu/Jmif1Kt9U2nn533+1vK92z+hf7DDAgCAs60f7wIA2AEmWgAAZ5hoAQCcYaIFAHCGiRYAwJnbRBs+EkQojdNlXKbJdBZL213qPDldxmWaTGc1abvk13iXD9CT20RLzzjmBjjH6cg9D6nFd+XdP1r5bNX8Gu/yAXpyf442N9D5RsnFz36TePePVv7q+TXe5QP00H2HBWLbIcC2Qj651X8tZ88dGA6t/UMsOxCQmfnt48tWPuKIW+IkHJ9kyP8Fl24CeTM83hjPcavcDgg77MDQu392z6+pLt9hBf0Hs8v3jmtml6/xbl+E65dhdDC+GfiG4NdhWg+5HRBGsOzAIPtCHrX9w/nYbvk13uUD9HTqx7uwAwMArMD1qQM6GP21wWnydZjW0447MMi+kEdt/3A+tlt+jXf5AD0N+Ys2vAnoNaWx3jdJbgeEEaw7MPTun93za7zLB7Byn2hTNwGlUczjJsntgDBCjx0YevXP7vk13uUD9OA60YY3Af1MR0ouViu1A8IorTsw9OyfWPk1ZufXeJcP0Ivb413hTRCSce29Z+TdP9Y+nZ1fYyrfYQX9B7PL945rZpev8W5fBHZYAABwdurHuwAAVoCJFgDAGSZaAABnmGgBAJxhogUAcNY80dLjNSFKS6W/Gu/+Wb18a36Nd/kAPTVPtPQMY8kApvd4Pk+5Ku/+Wb381dsHMJL5OdrcQMYg9++f1ctfvX0AI1TvsEDyK9zfvW3b4YDcyr8oOxQ4lW/dgYF47gBAVi6f7Hz+iCNuiZNwfJIu/xdcGuRPg/3NtTGNOxzoOxT4le+xA8Nz//S1evnLtc9hBf0qq+8woPHuP618a1zjcH6mL8PoYDzYjzTbDgf6DgV+5feS6p9eVi/fml/jXT5AT66Pd1l3GNDye5cPANCD6akDOhj9NcFp/JeFdYcDLb93+Rap/ull9fKt+TXe5QP01OUv2nCQHx8Y/6J5hwN9h4J0vMToHRi8J4HVy9/9/AGszBNtfJDbdjjQdyjwK7+33ScZa/m7nz9AD6aJNhzk9DMdhHcY4J9JzQ4H2g4F1h0URuzAEOufnlYvf/X2AYzSPNGGgzyF3vOKN0Bp/7Ravfyl23dfQZ/KCI8hrPXvnl+jlW+NaxzODzssAAA46/JlGAAApGGiBQBwhokWAMAZJloAAGeYaAEAnLlNtLFHIVKPSFgem5hFOz8Zl2mlcSmWZpWqp7R+a36Nd/kAI7lNtPSMY8kNQO/xfN7Si3Z+HE+dnxZnWrwV16/R2q9pbb93+QAjuT9Hm7sRznCTaOdHLHHv/tHar9Vvza/xLh9ghOodFlpWGI/eEIkdErQdFKw7LBS3/6LUL8TOT6a1xN3Pr3GHAuK5wwGxjB9r/yCOuCVOwvFLuuywoKGb5OlmTOyQoO2g0GOHBY2+w8PxPhaeXzgx1MZz/bPiDhDW/Jrn8sf2zxPvHQC841bW8mfn1ziU7/plGB2Mb5YjrX0HBS3eg77DQ/785OtYmhb3Pj/yvq4D11/Kml+TKv9I8+8fgJ6mPt6l7XBgjVt5l6+ZXf/q0D+wC9enDuhg9JcIp/FfKtYdFDx3SCC58rXz49extJI4WXkHCGt+Tap8Okb0D0BPQ/6iDW/C4wPlth0UeuywoNF3eHj0fH7vJwNSH0/3j4ew/lrW/JrZ/QNg5T7Rxm/C9h0UeuywoNF3eHgvNclQGsXa4vvsAGHNr5ndPwA9uE604U1CP9NBUjsw8Dd93jssaLT6Se78Ymriqf7picoO21/Dml8TK5/rGNE/AL24Pd4V3iQp9J7S965Ea7OMx96rxRmla3W1sJbp0SaptHyv/sm6r8D/6f1HiT7WWD5uZS1/dn6NQ/nYYQEAwNnUx7sAAF4BJloAAGeYaAEAnGGiBQBwhokWAMCZ20RLj9yEKC2Vfjazz99av5ZfxmWaTGc1aZwu4zJNprOatNL3AvTkNtHy840aes/QZyAHmX3+1vq1/BzX2r9q+UwrH6AH7LDgbPb5W+vX8pOdy9fyA/Sw3A4L3jskeK/ATzx3IPCun5RcP5m2Y/nYoSEOcVuchOOPLLfDgvcOCUNW4A88n/9YT/XnVpB/+/nl3f0lC/OH5/JUfqXR5XuPP5X3DgOzy/euXzO7/RGuX4bRwXiwH2nzdkgYJXX+o5TWH76PpfLTIV+HaaU4HxtZvvf4AwhNfbzrtrTddbCfdYcEWBvGB4zi+tQBHYz+kuA0/ktj5g4J3lLnP0pp/eH7WCo/HfJ1mFaK87HR5RPs0ACjDPmLNrxJjg+UfzFlh4QZaieJ3qz1P1+/95MV2a983/EHEHKfaOM3ybwdEkazThJWufoppknlpzSKWc9vTvnYoQHGcp1ow0HONw7xXiHfeweGErHzH0mrn2K5NsXya++vMbN87NAAI2GHBSezzylbf7CCvJxsyDe/09sv4y3nOrt8Ru9pKd/Ee4eB2eV716+Z3f4I7LAAAOBs6uNdAACvABMtAIAzTLQAAM4w0QIAOMNECwDgrHmipUdiQpSWSn811v7R8su4TJPpLJbmLdUOTpdxmSbTWU3aKvllXKaVxqVYGuyleaLl5w819J6hzyguwto/Wn6Oa/2rxb14t18rn83Kz3EtfyrOtDjswfwcbW4gYJDY+0fLT1buf+/2a+XPzk8sca1+2EP1DgvEsoI//T8rilYov5bTsgI+seTX2lfc/sb+Ifn8B5nWs//9z//Q2n4yon9TOzB8/e55Qei68zuk43OvH+K2OAnHF+nyZRgNEhosvdxW33rzw4el624r4H/04f2nPGv+2wrr13Oi8wqPFpTP0j9h/scbM1K+1v7O56ehcqvaX6l//vT4+fjtPUGoPT8tvtr1ezK7fs2C7TN9GSYHB53Ew2AxsO6QcIYdFlL56ZCvw7QQx0cL621tfwrnY73yH2np8cN/qeTy584vfB2mhTgOe1v68S7rCvhYQR8sMH6gF9NTB3Qw/q3ck3UF/J13WEjlp0O+DtNCHB8trLe1/Smcj/XKTwe9Jrnxo+Xn17G0XDzEcdhbl79oU4OklXWHhLPtsBDmp9eUxnr3f2/e7e+d//jCIz5+3kU+o609Py0O52OeaD0GiXWHhDPtsJDKzzdrrnyKzWZpfwmf/Onx82XwbXLr+WlxQjE4B9NEGw6SngPDukPCGXZYiOXPlRHG+Gaexdp+Taz8GrH8XEZqBwb5aFcuf0xJXJp9/aCf5omWBoAcZKdyX2Gdbwx5lKL3WvpHy8/x6M0o2k/oXz5uOpyfhspqbn8BrXxNaf5U+7T8HNfyR+MLXL+s2fVrFmwfdlgAAHDW5cswAABIw0QLAOAMEy0AgDNMtAAAzjDRAgA4a55oY49KpB6hmPlYxapevf9mn79Wv4zLNJnOYmlWqXpG1Q99NU+0qecDQ/Qeei88evX+m33+Wv0c1+qf1T7mVT/0hR0WJnv1/pt9/lr9ZOX2edcPfTjssHCXWKHeusMBudV/UVbAd6rfYwX2x/6jBXHmta/b+WnXRxh5/qRk/Mq0tdq39/g4e5yE1490+TKMBgENhveug8Gyw4Eit4PCsQK+b/29PfXf6ivsK/Tr84ja/Th+xgrrf5zY1muf+fpbx9fm43MG05dh8uJTJ75P893hILeDwvGbZP4OC5pU/4XC9+1Avz7l5+8lVT8d8nWYNgrXy840Pl6R6+Nd3ivUa+V71w956H+Ag+mpAzoY/VblNP4N673DgVb+zB0WNKn+C4Xv20nLDgWjpOqnQ74O00bhetkZx8cr6fIXbTgIjg+M/XY4yO2gcKyAn46vaPRN7E2/Po9mn//z+H38z/TV2gf7MU+08UHgu8NBbgeFYwX8dXZY0ORuInmz70S/Pu+tOolRGsVWbR+hGOzBNNGGg4AHJkmtUN9LagcFfnRohR0WNLH+k/hm35F2fYh2/t5i9efasEL7pJ3Hx6tpnmjDQZCCwRCX7b/VV9jvgNpaMn68aPVzfNb4zbZPGx8abfx4x18QdlgAAHDW5cswAABIw0QLAOAMEy0AgDNMtAAAzjDRAgA4a55oY49qpB7heOXHOl6VdXx455dxmdYrLsXSNKlyepUPYzVPtKXPF9J7cs8rwjlZx4d3fo5r+VvjTIuncPma1vJhLOywAK6s48M7P/GMa+3TaO23lg9jOOywQAuKFKxAfn3fjB0YVi9/9zjpMj7c8h9kWt94vn3e/Tf7+r96nITXj3zn/q8JDYLYYEw5Vne6NvbN9y+X+zqltxX4P7hcX//peJPB7uWb0Qr3P33eMubwV/d/x6kdH6He+cOyesd7eypfu77ecStr+bPb38D0ZRgdjAdDidwK/D3sXv4ZWMYH8cpPh3wdS7PEe+FyWar88H2wpqmPd3mvwL97+QBwDqanDuhg9FtV/lxi9g4MVivv4DCbdXx45adDvo6lWeK9cLksVX74PlhTl79oawdZbgX+HnYv/2ysk1Dv/PSa0ljveG/e5YM/80TbMghyK/D3sHv5Z2KdJLzyUxrFvOK95MqnGOzBNNGGg6DmwnvvgLB7+WdgGR/EI3+ujB7xnqi83PlTrHed4KN5og0HASxkgRXuqS7L+PDOz3E6Yv1ijVtx+VHi+hL6l4+b1XdIsJY/u/0NsMMCAICzLl+GAQBAGiZaAABnmGgBAJxhogUAcIaJFgDAmdtEG3uUIvWIxczHLqCN9fp655dxmbZLXIqlwV7cJtrS5wvpPcnnBWFZ1uvrnZ/jWv5V40yLwx7cn6PNDRQMov1Zr693frJzPBWDvVTvsNCywnh0wLydswPC1+/uCwIn6tfiWvtIrn7v/DNWkH+8vvdF0e8/xfjmP8i0veL58/e+vojb4iQcn2TIl2E0iGgwvXcdTG9++LC04G2Hgo8+vP9kc1tdK1H+x2/pp/Z4iVz9Jaz5VbQC/fWa0HUJjxaU7/H61umd/3Hi2i+u0q5f5+tbzbt+a/kT+qfLVjYxPHC48fSvTPvsk18fk8d1Mvnz33/38oPbDgU/v0btW00cOyDEyz/+QmyPl7QvV/+I/COkri/9xi/hlT98zXaJl54/7GXq412zd0CwxjWz8wPAGtz+oqXf0NLx2/pI49fhDgW80WEvWvnWuGZ2fk/p61v2F7df/sfXbJ/4Gv/FAn0N+Ys2HFjHB8pzdkB4x5/BNsZLWHdgsOYfLTZx1Oidn15TGtstDufjPtHGB9G8HRC+vH0b2B4vYd2BwZp/JOsk4ZWf0ii2axzOxXWiDQcRDyzCOxTwz2TEDgi813trvNTs/CPErm8Nj/y5MnaIwzm5TbQ0aEp+U9N7MMAG67ACPb235PqmeOfneGp8rR7PWn2HAe/6reVP6B/ssAAA4Gzq410AAK8AEy0AgDNMtAAAzjDRAgA4w0QLAOCseaKNPQqRekTC87EJWJM2PmRcpsl0FkuzStWzSv0yLtNK41IsDcZqnmhLn/+j99B74bVo44Pj2vjwGj9a+9is+jmeql+LMy0OY5ifo81dSFxk0MYHmTl+Zo9fa/+Qme2HMtU7LBDLCvnFK5Rfy/HYocC6g4LW/tnnN7v93/avELvhZVrP8VPcfqfxa6//kO6fQzru237E83ESXl/SZZlEusixwdDqWL3qejJvvv/t0oC3RbA/uFxf/+l4U0Yu/zdvL5evKP6mvXwrz/Ob3f6jf4/3sXB8hGOl9/iptVr9Wv9ocRXtMPDT51+Ih4JlGrX8s8v3rr+B6cswOhhf7B6OHQZ+cl8a8PPLz+7rsv62cCDl8h+/aWzlW3me3wh6/6bHBx3ydZg2CtfLVqmfjlz/hK/DNFjT0o933ZYGvN7MXjsUWMu38j4/b7PrB9iF6akDOhj/Vu0p3GGANyospeW3lm/lfX7ecvWnxgcd8nWYNgrXy1apn45c/4SvwzRYU5e/aHtf5OMzQJ8dCnrsoGDleX4j6P37KBwfPDGw2ZPEavVr/aPFYT3midbjItNngF47FPTYQcHK8/xG0Pv3vdT44Mli9iSxav1a/2hxWItpog0vMv3ci9cOBfxN4uwdDHbfgUHrXxIbH7kx0nP8lIi1b6RY/bk2lMRhTc0TLV1U/CaFFG18cJyOGRPE7PFr7R8tnuW9Q8Hs8r3rb4AdFgAAnHX5MgwAANIw0QIAOMNECwDgDBMtAIAzTLQAAM7cJtrYoxDyEQkZl2kyncXSwFfqOnC6jMs0mc5iaZpUOZwu4zJNprOaNE6XcZkm01lNGqfLuEwrjUs1aaXvhb7cJlrt+T6O00GvU7Q4+Jh9/bzrX718Lc60/BqtfOjD/Tna3IXkgZCLYxDMNfv6ede/evnEs34tP/RRvcNCywrjsQsq06IX3GkHBJLbIcB7hwPimd+6gwSxXT9acCZdvv/4yddP1i7/4Fe/7fogno+TsP/JkC/D6CLTxWbhwArjt8Hw5ocXufTebQX/jz68/2RzW33KUP7K+T/m1ck69l/99evLu/7Vyveu3x3tUHCtk+oNjyXiE3TZyiaGLyyfHP0r08ILH8Y/++TXx+RwnSz+/PffvfzgA1rB/+fXaNtWEhKtPmUpf+X8x1+wtvJJ6/Wj3/g9eNe/avnha8Zp1vp7XR+os/TjXbel9/7gt4K/tfzV83v3HwCUcfuLln+TsuO36ZEmX7NYPFzBnzcC7MVa/ur5LeW3Xz/7f3EQ7/rXLd+7/j7XB+oM+Ys2HDj0mtLYc5w+cPbbQSC3Q0CJlfN77CBRe/16865/tfK964fx3Cfa1EXmwRSP++4gkNshoMTK+XvvINF2/frxrn/V8r3rh7FcJ9rwIvPASZFxXsFfvr/nDgKzdzjwyt9zBwnq+9rr15N3/SuWr8Vr0PvD+mEOt4k2vMghjtORGwBaHHz0un6tvOtfvXzv+l1575BgjU+AHRYAAJwt/XgXAMAZYKIFAHCGiRYAwBkmWgAAZ5hoAQCcuU20sUcpUo9Y1KSVvhdstP6XcZlWGpdiaVapekbVr7G2z5ofxnKbaEuf/6P3xJ73s+YHG63/Oa5dP+36aPFWXL/Gq36NtX2rnx88mr7DgjYIrPnBRut/Yol7Xz+t/d71a6ztW/384DBhhwVa8MSS/866g8C1HR47FBT3T6L+/XdYOGhx9/5tHH9a+dY4sbSPrHx+rx4n4fUhQ74Mo0FAg6HVc/7rYNpoh4JQrv4So9sf9v/jjV0f9+7f0HP9a7G27ym/dYeB2TsczC7fgeuXYfLi00nUDKZU/iONdhD4yX3pv88vP7uvu/rbwo46diiI5z9+E9nK1+TqLzGi/bn+l69jaVrcu3/J+7oOXP8qrO0rzR++D+bY+vGu29J/15t11x0Kdm+/1ertA+jF9akDOhj9VpU/a1L56eDf0OEOAvyfoaW0/NbyNSu3X+t/fh1LK4kTz/7luhjXvwpr+0rzh++DOYb8RWsd5GH+4wPpfXYoCOXqLzG6/c/9/36yJPVx2/WrFda/Gmv7Vj8/GDDR+gyifXYoiMnVX2Jk+1PXj9Io1hb37V8p1b5VWNuXy08xWIPrRBsOgtoLH8vPZfAOArLM1XYoyLGWP6L9uf6PqYlz++T7e/YvobIt48+btX1afoqtds6vym2iDQdBrdL8GEw+tP7neKr/tTjT4q24/lVZ25fNL3YYIPQvH0Vm73Awu3wH2GEBAMDZkC/DAABeGSZaAABnmGgBAJxhogUAcIaJFgDA2bITbexRi9QjGJ6PZUCcdn1kXKbJdBZLA5tUP6P/51h2oi19vpLes/LzkmelXR+Oa9cH18+Hdn0Y+n+M5Z+jzQ0EDJL5tOtDcP3mwf2zhuodFshtBfHL3BX+vVbo77bCunf/JMr3Pn9Scn1k2mOcFrzpUP/s859Uf3H7ktfH1v+I5+Mk7H/S9NHB7BX+e5ffm3f/5MqfIbw+jzd27PrZzD7/1fpfU93/u+9wYG2/Q/uaJtrZK/z3KN+Td//kyh8ld33k6zCth9nnv0L/a7jfWc/+h3qmL8NuS9tdB9usFf69y7fy7p/Vz9/b7PN/9f6HcqaJduYK/8Rzhf4ePPuHzDx/7frw6zCtp9nXf+Xxx/3OPPofyrV/Rnu9cPNW+KcPpMet0F/Lu39y5c/wfH0e/zO1900++/xX638NJtn5mj+jnbvC/7gV+lt490+u/NFSNzFPth43+ezzX6n/NZhk19D80cHsFf5HrNBv4d0/PfrXKnd9YnKxWrPPf4X+18SuD8xh+ozWUzhIUug9GEDjadeH47g+c5TeP1G773Bgbb9D+7DDAgCAs2X/ogUAOAtMtAAAzjDRAgA4w0QLAOAMEy0AgLNlJ9rYoxSpRywsj13AHLi+eVr/yLhMk+kslgZjLTvRlj5/Se9pfl4QpsH1zdP6h+Na/7xq/60GOyzAVLi+eVr/EPTf+qp3WCheYfxi3EFArFD+OGBoQY8B9W+af9gK8on2aTtIfBsXohPCpB00yMz+J7f6k+P/INNq7g9r+xDPx0l4/YjLRwe31Y06rkBPg4gGUylr/bvn95Zrn7aDxBF/9Hx9557/av0f9s/jxFp/f0zf4eAFuUy0tLqRdQV6Gjhy8NBFKh1M1vp3z+8t1z5tBwn+TZ+6vkfa3PNfof9z/SNfh2mwJtcvw25Lx10H664r4O+e35vWvt3Pf/X+h324TrSWFejpNzQdjH9r15i9g8Hs/N609uXiqetLB/9lNvv8Z9av9Q+/DtNgTX6f0V4vfK8V6GsHkbX+3fN7y7VP20HiiD8Kr+/xhcO881+t/5/75/FjAkyy63P7jLbXCvQtg8ha/+75veXap+0gccTfi1/fuee/Uv+nxj9Ptphk9+D20UGPFejDQUQ/l5q9g8Hs/N5S7dN2kJCPdsWuL19jzi+v+cjzX6H/c/0Tk4vBXK6f0VqEgwzOpfT60ntecQLR+ofjTf0ze4eDF4QdFgAAnC37Fy0AwFlgogUAcIaJFgDAGSZaAABnmGgBAJwtO9HGHgVJPSLyyo+NtNL6V8ZlWmlciqVpUuX0Kt9Ka5+My7TSuBRLg70sO9GWPh9I78k9bwhxWv9yPNW/Wpxp8RQuX9NavpXWPo6n2qfFmRaHPWCHhRen9S+xxK3XR2uftXwrrX3EEp99ftBH9x0WPFYofxxwtOBHQf7r+zxWyCe58ot3GJi9g0Cyfw8yrSXeen7Ecv279Y92fYWW/knHfc8Pcd84Cccv2eLLMBqENBhL3VZfclwhP1d+2Q4Dvu2rFfZvODHUxnuf33P5vvTr+6i2f7T49mbvsKDVb403WPrLMDn46CRLByOtvuS5Qn6u/OM3WXt8lFT/0iFfx9K0eI/ze1/WgcsfQb++fv0H53Tqx7tuS9tdbxavFfK18q3x3e1+fme/PjDO0k8d0MH4t34N7xXyLTsMkB1X8A9fx9LoNbGcH5fFuPyRcu1PtY+Okv6RMZkG57TFX7S1g9B7hfxc+WU7DPi2r1bYv3zjs/o4fWHQ7/zC8r3p1/dRff/k43A+y0+0LYPQe4X8XPllOwzsv4J/Pt7v/FL1e9Kv73tt/aPH4VyWnmjDQUg/l/JeId+6w8CuK/iXxvn85Ptrz4/ytl5/K+36kVj7cm0sicM5LTvR0qDDb3o/Wv9ynI7YBKDFmRZP4fJXpbVP6x8tvrXZOyxo9VvjDbDDAgCAsy2+DAMA2BkmWgAAZ5hoAQCcYaIFAHCGiRYAwNmyE23sUYrUIxaWxy4gztr/1vwa7/KtVm8fjLXsRFv6fCG9h94LfVn73/v6eZdvtXr7YCzssABZ1v73vn7e5Vut3j4YAzssBLq1P1G/dYcF4nl+pEv/N+bffXyQfPvuFr3+iNviJLz+5Dv3f5dGgzQ6WBOO1ZeunfHm+5fLfR3R2wr5H1yur/90vMlRrv5v3l4uX1H8TXv7Rp9fbf+HqvPTCvc/fd4y5ubt55d395estvz5/bfX9a+Wu37Xc3ePa7zLj1j6yzA6GA/WErkV8kfQV+i3tW/E+Vn6n1jzayzlz+y/I2396w99nfrxrtvSdtfBOGuFfK1+a/tmn9/uVh8fGlz/fSz91AEdjP4SkD+XmLmDAfHeYcHz/Kz9b82v6VH+jP6jg16Tla8/9LXFX7S1N9HxGda8HQxy9ffYYWH0+VknSWt+zerjI2zf8YXKPtcf7JafaFtuUvoMa+YOBrn6e+ywMPL8zjbJkvn9t8/1hz6WnmjDQUo/l5q9g4H3Dgsjzs/S/8SaX2Mpf1b/cRu5ftnm1a4/9LPsRBsOUhjL2v+m/JkV7n/z5nu3t9DrlcdHafvoPfTeU/He4cC6A4J3+RHYYQEAwNkWX4YBAOwMEy0AgDNMtAAAzjDRAgA4w0QLAOBs24k29qhF6hEMy2MZZ6X1n4zLtNK4VJPG6TIu02Q6i6VpUuWUlq/ll3GZ1isu1aRxuozLNJnOYmlQZ9uJtvT5Q3rPys9bzqL1H8dT/afFmZY/xVq+RqufpcrX8nNcy98aZ1r+FGv5UGf752hzAwGDRKf1H7HEtf631q+Vr9Hq924/scS926eVD2W677BAcivAd9th4KQr2BPP+klJ/8m0ujgteOJZf758+/l7t/9gjafG97f3l1BXvq1/Xz1OwvFBXD46uK0u9OaHF7l0220F+I8+vHzMq1cl4i1okNBgec9Wfq79I4yuP+y/8MasjdfyLl8zuv3WeG58H/fXo+ryaYeBaxqlh8cWrO13OH+XrWxodaHPPvn1cfGvg+HPf//dyw8+oBXgeXHidJwGUQkeGHzy9K9Ms5Sfa39p+yxG1K/138ONd1Uap9/4JWRZ/G/P8jWp+r3bH75mtfH8/dWvf8NyoI3rl2G3pdv+kF4BXotbWcv3bp9mdv2wNoyPfbhuzhiuAM8byTEtnhP+hj1+Gx9p/NpSPrHmt/Ksv6T/pPJ42V/c3uVrrOWn82vt7xfPjY/28h/PP3wftPH7jPZ64WIrwPfYYSAUDpzjA+t9V7AfXf9z/z3+p2VtvJZ3+ZrR7bfH0+P7uL8e1ZYP/blMtLkV4HvsMCDFB8neK9iPrD91k/HN2Bov5V2+Zlb7bXHt/nqvtX5CMejD7TPa1ArwvXYYIOEg4YFDdl/BfkT9uf6LKYnXoPfX1t9TrP4asfy5MnrGU+NbPtpFMUv/Ut7c+6Gc65dhnsJBlILBEqf1H8dT/afFNdb6rbT6Ndb2W+NMy5+SLV/sMEDoXz624L0DQwPssAAA4Gzbv2gBAHaBiRYAwBkmWgAAZ5hoAQCcYaIFAHB22ok29iiGfERDxmVar7gUS/OWageny7hMK41LsTSrVD2cLuMyrTQu1aSVvtebtX1afhmXaTKd1aSVvvdsTjvRlj5/SEfseUNrnGlxL9y+FK39Wpxp8VZcf4rWPi3OtPwarXwv1vZp+TmunV9r+Uwr/yxO/xxt7kLyQPCMzx5E3ufvfX6z26/Vr+X3Zm2flp94lq/lP4vtdlgorn/RFfCH7dDgdv604M1520/y9fuev71/rOd3OGv/ecdJeP7E5aOD3A4BHjssaOgi08Vm4cDqHR99fpr+5zdW9/ZnVtD/0e/+eH/Te5T+kH8x1vaF+dX+q9S9/7QdEKxxB9vusKDhC8udR//KtPDC947P3KGByLbwvzXtT8XpN/oIsi38b0n7wteM08L2yzxSmJ7KP4u1fan84WvWq/xV+m801y/Dbku3/SG9ArwW393Zzw8Aymy7w4KGf5Oy47fpkSZfM4/4zB0aerRfep825i/y9vbVtT98HyvNP4u1fen8df2XYs1/Nn6f0V47Nr0CfDruIRw49JrSWP84fWA+b4eGUO/zG212+635vfU+v1frvxFcJtqROyxoUheZB5NPfO4ODZLP+Y3j2X6KaXL5V2BtXyp/Sf+VWL3/RnH7jDa1Q0DPHRY04UXmgZPSM55aAX8kqrv3+Y9E9Xm2n8rW3h/WvxJr+2L5c2X0KP9VuX4ZNlN4kUMcpyM2AKxxpsW9cPtStPZrcW+u7c/sIPCbN9/7Ni1X/2zW9mn5OR7tvwKu/aftgGCNO8AOCwAAzk77Fy0AwCow0QIAOMNECwDgDBMtAIAzTLQAAM62nWhjj2KkHtFoeWzDWr6WX8ZlWmlcqknjdBmXaTKdxdKsUvWMqt/K2n4tv4zLNJnOatJ65ZdxmSbTWU1a6Xt3s+1EW/p8H72n5Xk+a/lafo5r+VNxpuVPsZZvpbWPedVvZW2/lp/j2vm3ls9a83M8lZ+1ls+08nex/XO0uQvR4yJZy9fyE0vcu36tfCutfd71W1nbr+UnnuXv3r5dDN9hwX8HBVqwZl75JJ//INPq4t712/pv9vXzjpO548Na/t7tm339W8YHcfnoILfDgge6SHSxvFjLD/M/Dqz6eC3v8q2e6l9whfwcqnfl67Nd+2ZfX4f6XSbaY4cFXhrw88vP7uuy/tbQ0BBdGHlxqBMsFztkLT+Vnw75OpaWi5fifKx3+VZcL0vVH75vFaXtT0nlp6PH9eF8bNf2he/bleuXYdhhAABg8g4LFvQbUKLfekdanxXcreWn8z++ZuXxNVbQtyqtP3zfKqz9l87f5/r45R/bvvB9u/L7jPbacbN2UOjNWn6Yn15TGquN1/Iu32p2/VarX5+zt28Hbp/Rzt5BoRevQURpFGuNl/Iu3ypXP8VWZ+2/VP5e12fn9lHsLNw+o521g0JP1vJj+XNllMRr0Ptr6x8p1j6JYqPbVENrvyaWP1dGj/JrxPLnyuhRvkSx2jJX5fplmKfwIvVmLV/Lz/HUYNLiGmv93rLty+yAcDNhhfwQ1ZXrX42Wn+Ot12fr9mnX35vD+MIOCwAAzrb9ixYAYBeYaAEAnGGiBQBwhokWAMAZJloAAGennWhjj2KkHtFoeWxDK1/GZdoucSmWpkmV06v81Xmfv7X83fPv5rQTbenzffSe3POCKVr5HE+Vv3qcafEULl/TWv7qvM/fWv7u+Xdz+udocxeqx0XUyic7x1OxUrkyepS/Ou/zt5a/e/5ddN9hodsK5Ze2HRqI5wruxLYC/WHduHf/7L2CvhYnc8dfvnyyc/7Z17fl+pAlPzrovUMDXUS6mF7C8h8Hzn7x3qrLX2wHhSeZ9v3od3+8v+k9Su91/l3KD+yev5o2vnbZYcGqxw4NdOHkxaNO6nkxU+XTIV/H0laO98Llst7lr877/K3l755/N0t/GYYdGgDgDFx3WLCy7NBAvyEl+m15pJWtAK9Jl//4mu0T9+6fPuWvbvX+3T3/btb9jPba8b12aHh/EX2E5dNrSmO7xXvzLn91q/fv7vl3sOxntL12aJg1yCmNYrvGe/Euf3Wr9+/u+Xex7Ge0PXZoCC8i/dxTrPxcHTvEe6LyPPt/dd7nby1/9/w7WfrLMIvwIvamlc9xOmIDaPW4FZffZIEdFLIy7fvNm+/d3kKvPc6/S/lXu+c30cYXdlgAANjPaf+iBQBYBSZaAABnmGgBAJxhogUAcIaJFgDA2Wkn2tijGKlHNCyPbbSa3T6tfhmXaaVxKZYGvlLXgdNlXKb1iks1aaXv3c1pJ1p6Rq/kAtF7ZjzPN7t9Wv0cT9WvxZkWBx98fVK062eNMy2/Rit/F9hhYfJFnN0+rX5iiXu3H/K8ry+xXH+tfVr+XVTvsEBuK4hf4jsgfP3ui8tX9MPbtri2g0LLCuePF2zuCu5kZvtIvv6DTKuL771C/u5x4nt9D+l4/vqTkvbNmj88+p80LZN4rK51rezN979duvC2A8IH10reXi5f3XdIaIn/8vInqqIruojRi5lCK6z/9H5Bn/Rfxq26fZ2F9YdtqY2r/ecd18yuf7Da62eN13rOv9b80UPTZ7S5HRCOmbw93gtdODoYX8xVzG5fqn465OtYWi4e4jiMFfZ7r+sbvg7TSnE+JstcYf7ozfRlmLYDgjUOAK/rTPOHaYcFbQcEa9yCfkNK9JvySFvjP+1mty9d/+NrVh5/bH/4Phij/fpZ42Xjt6T8mfNHb01/0eZ2QHj3lt7RHvcQGxgrmd2+sH56TWmsNg5r6X19tXit5/LpC6d15o8emj+jTe2A8OX9M5TWeG/WQeBtdvtS9VMaxVrjhGIwV+v1s8ZLxfOvM3/00vwZbWoHBP4mtjXeU3gR6eeVzG5frP5cG0riEpWdez/4or7vfX21eA16f6p9PD/IMkfPHz0tvQuuRXgRq9xXWP/0/qNE/1nTg6l9HWj1y3jsvdl40H8UZ7f+0/rXGtfMrn+A2DWTstfvyhrXlOah97SUvxrssAAA4Mz0eBcAAOgw0QIAOMNECwDgDBMtAIAzTLQAAM62nWjpkY8QpaXSd7P6+a3evrPz7n+tfBmXaTKd1aSVvnc32060/Hydht6z4zN4q5/f2ft/dd79r5XPca38VFwrn2nl72L752hzF+IMF2n18zt7/6/Ou/+18omlfu/2r6J6hwX6f76stoL54wWhBSfmte/s50fO3P+rx4ln/5N8+QeZVlM/KSl/1R0UWvqPnOLLMLpIdLG6oRX0r2VSueExA9Xb9fw6q26f1r/WuGZ2+Z1RuZ7jIyyfXstzsdb/nP86Wb/54YWWPvzxPeW2g8JHH95/Mhp8fcjWX4bJi0OdZLnYq1n9/FZv39l593+qfDrk6zCtFOdjsswdd1DQ4PEuAFjSbenD62R7hh1Ytn7qgA5Gvwnlz7tb/fxWb9/Zefd/qnw65OswrRTnY2H5JNxBgT9G2NEp/qKtvci7Wf38zt7/q/Pu/7B8ek1pzFr/c/n0hdMvttpBQbP9ROs9yGZb/fzO3v+r8+7/VPmURjFr/fH8++2goNl6og0vEv18Jquf39n7f3Xe/R8rP1dHbf258lM7LOxq24k2vEhd3VfQ5wsvj1GoLrfz68DUPq1/rXHN7PI7oLI8x4dWPsfpaDmv0va3lp814PqEsMMCAICzU3wZBgCwMky0AADOMNECADjDRAsA4AwTLQCAs2Un2tijFqlHMGrSOF3GZVppXIqleUu1Y1T7Ztd/dtb+1fLLuEyT6awmbVT+3Sw70ZY+P0fviT2Pp+XnuJY/FWda3Au3T+PVvtn1n521f7X8HNeuT2v5zCv/bpZ/jjbX0SUXQctPLHGtfm/a+Xm3b3b9Z2ftXy0/8SzfO/8ultthgVhWYP/63ReXr+4/s1h+mVYXL1xB/vo+jxXiSb5/fHc4IDPrP3ucWPqXlNw/Mq1v+X3ap97fi+7AQMLzIz4fHXRewZzy0cV473oxEyuwf/z2niCE+cMLWxvXfPardPs81LbP/fpMWMH+wez6O6N2V13fQJifXsu+6F1+ref82v099v7qYekvw2Tn88U40tIrsPNvklx++TqWlouXePfWf4V4bheraV8PpfWH74Mypf2bkspPh3wdppXifKxn+/T7e78dGLZ+vGv1FdjPtEI8wGja/bPT/bX0Uwd0MPpNx2n8mzC3AruWn1/H0nLxGp4rxHO7WEv7LErrD98HZUr7NyWVnw75OkwrxflY7/YR7f7ZaQeGLf6iDS/i8YF0fAX2d5HPaJ/zv7+YpDauuX1Ge80zaoX42vb1Nrv+s7P2b5ifXlMa611+ref2aff32Purh+Un2vhFTK/A/mXwbV9qEFAaxVrjOfQZ7agV4lva11OufoqBjfX6pvJTGsW8yi8Vz6/d3/vtwLD0RBteBB4YJLUCu3y0K5c/piReitsn9V4hntoTnt9IWv0UG92mM7Fe31j+XBk9yq8Ry89laPf3iPurJ5+JtsMK5vReeRFS6D2xcrX8HNfyp+KzaeeX5X19RPmkpXyTCSvo90Ztbb6+V1p+jtPR0i/e7WOt7VsNdlgAAHC2xZdhAAA7w0QLAOAMEy0AgDNMtAAAzjDRAgA4c5toY49kUFoqPaTll3GZJtNZLM0qVU+v+rXyZVymyXRWk1b6Xs3u5a9OO38Zl2kyndWkcbqMy7RecSmWthu3ibb0+Td6T+x5Oi0/x1P5mRZvpbWPtdavlc9xrfxUXCufaeWn7F7+6rTz57h2/qm4tXxrnGnxXbg/R5vrqJJO1PITS/lW1vPTeJ//7PavXv7qtPMnlv6xlk8827eL7jsskJVXiPdYQT06IBpXgCee508s18f7+s8uf/U4mTs+DunyD9b4qjsotFwfMuTLMOpE6sxWYf7wwljLt3qu/zqYO64A733+3v23XPnWHRgW28GB6pXnT69lW8J4rdryrfHe9081h+vr+mWY7Dxq5GNn5qXy0yFfh2mjcL1MtqnHCvC58nucP+djvftv9/JXlzp/OuTrMK0U52Ol5YevY2lafMcdFDR4vMvRTivAA6zmTPfPd+7/dke/oST+rUX/WVAinf/xNast36qkfeEK8JeKwVJSvlR7/tb8mt3LX136/B9fs9r+aS+/X9xy/6xmyF+0sY6tEean15TGrOVbPbePPjDvtwK89/l799/u5a8uPH96TWnM2j+15dvjfe+fFbhPtGEn1krl54tlLd8qXn+/FeC9z9+7/3Yvf3Wp86c0iln7p7V8W3y/HRQ0rhNt2In0c41Y/lwZteVb5dqXWiG+Rq78mFwsJlZ+T7uXv7rY+ef6oLZ/WsrvFe9x/6zE9akDeZFqafk5Toe8GKOUnl9r+7zPv7T9rZYu37oDwwI7OFBdufPnOB0t7bKWb40zLe7C4fpihwUAAGd4vAsAwBkmWgAAZ5hoAQCcYaIFAHCGiRYAwFnzRBt71CH1CERNGqfLuEyT6SyWpkmVw+kyLtNkOqtJ43QZl2mlcSmWpkmVw+kyLtNK41IsTZMqp7R8a/7VWc9Pyy/jMk2ms1iaJlVOr/JX0zzRlj7fRu+h94ZKn59L5WdaPMW7fmv5Wpxp8RQuP0WrX4szLZ7C5Wu09mla2zebd/9wXOsfLZ6i1c9ay1+N+TnaXEeUdJKWn1jK13jXby2fWOrX7N4+rXxr/tV59w/x7D9r+3dRvcMCsaxwTzxXiG9ZAb1n/cR3hfrZ53+Y1z5r/9vaNztOfPvnINN69h8pqT+1w8LX7764fEU/LLoDAwnPj3T5Mow6iTqrVZg/7Hhr+Rrv+mvL712/Zrf21fJu32y9+4deUxrz7r/n8q+TeWKHhY/f0k/peBcOOyw0r0fLHcOV07/HBfq728+aVP7wNastX+Ndf2v54WvGabPPP3zNOM27fdb+79W+2bz6J3zNasvXaPV/9smvj8nzOpn++e+/e/nBbYcFXo+WdmCIx2kSXhEe7wKAJWk7LOy0A0PzX7T8m4gdv+0ozXsFd+8V+vvU315+n/o17fXPbp+1//u0bza//nl8zXr3X0n92g4LO+3A0OUv2tiFqRHmp9eUxqzla7zrry2/d/2a3dpXy7t9s/XuH3pNacy7/57rpy+c4jssvOPPaBPxVZkn2t4XmfHFHn2RWa/6W8vvVb9m1/aV8m7fbF79Q2kU8+6/ePnpHRa+vH2bv98ODKaJNuwk+rlGLH+ujNryNd71t5SvxXui8nZrXw1r/tV59E+ujNryNbn6Uzss3B7tuuK4tPIODM0TbdhJtbT8HKdDdnYv3vVby7fWr9m9fRpr/tV59w/H6aDXvZW236v+LOywAACwHzzeBQDgDBMtAIAzTLQAAM4w0QIAOMNECwDgzG2ijT0KkXpEouWxidnly7hMk+msJq30vRrv8mfTzk/GZdqrxKVYmiZVDqfLuEyT6SyWpkmVU1q+ll/GZZpMZ7G0Wm4Tbenzb/SekufpQrPL57hWfiqulc+08lO8y59NOz+Op87v7HGmxVO4/JTZ9bNU+Vp+jmvt0+Kl3J+jzTW0x0nMLp9Y6p/dfmv5s2nnR145noqVypWxQv1a+bPbz6p3WDgWfLCsoF64Avz1fdkV1oVohzSuwE48V6Anlv7x7n+t/NlxYrs+h/PGvcfPYXb96g4Mwuz2kyFfhtFJ0MmU+uxX15PNrrD+6Ln8dP4WYfmPF6b+/ELW/Jrq8q0rzDusUJ9D5dZcn7PHe1ut/tz9XTI/jG4/aV6PVsMN5xPik6HfCJp3b9MrqPNvsFT5/Nq6ArtWPr9mnFZyfiRVfml+jXf5s6XOL3zNXiXuPX7C12x0/db5gV8zTvO6P5Z+vMu6gvpOK7ADQJ2X2GFBw79J2PHbgtLKV2jPraCeLv/9a8sK7CXlS7XnZ82v8S5/tvT5adfn7HHv8bNO/db5Qerd/tCQv2hjJ5Zz+4z2mie9wvqjsHz687/nCuzP5T/+p0ft+YWs+TXe5c9We33OHu9tvfrT93fZ/DC2/cR9om05CfqMNr/C+nvx8vutwJ5qP18s60Wy5td4lz9b6/U5e7yXNeu3zg/j2s9cJ9rwJOjnUqkV1OWjG7HyuY7UCu01cuXH5GIxsfJ78i5/ttj55c7xFeI9UXme41+Tq1/bgYHk8sfkYlZuE214kr2Vlk/vaelArXyOe5VvZSrfusK8wwr1ISrLcn3OHrfi8lNm189S9c9ufwg7LAAAOFv68S4AgDPARAsA4AwTLQCAM0y0AADOMNECADhrnmhTj1Sk0mt5l6/R6pdxmSbTWSzNKlXPqPp3N7v/tPplXKbJdBZL06TKGVW+jMs0mc5q0krfq+ldfvNEW/r8Gb0n9zxbinf5Gq1+jmv1z2of86p/d7P7T6uf41r9re3T6mde5XNcKz8V18pnWvkpvcs3P0ebq6j1JCXv8jVa/WTl9nnXv7vZ/afVTzzb533+3uc3u/2l5VfvsEAsK6DbdzjIr4BObvmv71t6hwW39uXrPxbkeN04mdl/xHN8zT5/4nl+ZG7769tHunwZRo2gxrx3bYzjDgea3A4NLcL6Hzt+vfaZee+QoJVvjVeifF37r1JYv3V81aouP9P/P/rdH+9veo/SPc/Pml/To3zTl2Gycm7MkUY7JPDSZZ9ffnZfN/K317RSqfJLHDs0+NRPh3wdppXwbB+Umd1/qfrpsI6vElwuG1U+HT3Oj/Ox1fvH9fGu2Sugr74C++rtA4A+TE8d0MFotuc0nvnDFdD5P5NLpMqv4VE/HfJ1mFZjdv+8stn9l6qfjl7jK4fLZaPKp6PH+XE+tnr/dPmLNmzE8YGz3w4HmtwODS2ez+8YGGy19kGd2f3Xe3zVGl1+7/PboX/ME228Ef47HOTkdmiolaqf0ii2avugzOz+8xhfNWaV3+v8dukf00QbNoI7jnjtcFAqtUNDjVj9uTas0D4oN7v/YvXn2tC7fbH6e4qVn6ujtv5Y+T31LL95og0bkULvaWlgafletPo53np+Vq79471Dgla+NV6A3vvK48t0/pn+/82b793eQq89z08r36p3+dhhAQDAWZcvwwAAIA0TLQCAM0y0AADOMNECADjDRAsA4Kx5oo09kkFpqfSQNb83tO/ctP6TcZkm01lNGqfLuEyT6SyWpkmVU1q+ll/GZZpMZ7E0TaqcXcoPNU+0pc+/0Xtiz6NZ83tD+85N6z+Oa/2XinuXr9HqZ6nytfwc19qnxVO0+tmq5Yem77Bgze8N7Ts3rf+IpX+9y9do9Z+9/Rrv8tnwHRa+fvfF5av7z+wxPy240r5CujVOhqzgfi0HOyw8846TkvEr02r6l3iWbz+/c7d/xfJJly/DqJHU2PeujU3sIPDx23uC8Jx/Lb3b577DwuAdCqpZ29e5/ZRP9h+9lmWF8Vre5Wtevf0a7/KJ6csw2Thu7JGW3kGAZ/pU/lV4tm/kDgvh++CQ6j865OswrRTnY73L13C57NXar/EuP+T6eBd2EMhD/wC8BtNTB3Qw+m3AafybIbeDQCr/Kka0b8QOC+H74JDqPzrk6zCtFOdjvcvXcLns1dqv8S4/1OUv2rCRxwfG8R0E3kU+o/U+Save7cMOC2t5Hr/HxMGs/etdvubV26/xLp+YJ9p4I9M7CHwZfBs34iQtPNo3aocFikFeqv8ojWLW6+9dvubV26/xLp+ZJtqwkdzxJLXDgny0K5Z/JZ7tG7HDAsVW69OVxPov11+1feldviZWf41Y/lwZteVrYvX35F2+1DzRho1MoffETqA0/yxbt0+sgE/oXz5uOuxQYGLdQaFD++m9uevLcTpqymXe5Wu0+jW7t1/jXX4IOywAADjr8mUYAACkYaIFAHCGiRYAwBkmWgAAZ5hoAQCcuU20sUc+KC2VDnW0/pVxmSbTWSzt7FL9wOkyLtN6xaWatNL3aqzlW/PPNrr9bhNt6fN19J6Rz7Odhda/HNf691X739p/1jjT8mu08lOs5Xu3z9vo9rs/R5tr6KoXYSda/xL0f5q1/4hn/2vt0/JrrOV7t8/bqPZX77AwewVz7zi5tf/aTtMOCI357f17kGk79b93nNj679Aez/c/8bx/iKV8MqR913Lm3D/9+5cM+TKMToJOphvnHQKsOyD03kFBQ+ct+/dx4ET6f/YOC1aTd1iwxmtZ82tWa9/s+8fj/nD9Mkw2nhrZ82J4su6A0GMHBU2qf+mQr8O0EMdfTXjepf0Xvo6l5eKlOB+rza+xlm/NnzPz/gmF72uFx7syrDsgYAcFgHZnun9cnzqgg9FvBfnzDiw7IBBr/pxU/9IhX4dpIY6/mvC8S/svfB1Ly8VLcT5Wm19jLd+av8SM+ycUvq/VkL9oPS6CJ+sOCL13UNCE/UuvKY3t1v+j1fafNV7Lml+zWvtm3z8e3CfaESfRm3UHhJ47KGhS/UtpFMv1P8VeXWv/WeOlrPk1K7ZvhfuHUKwX14k2PImeDfdm3QGhxw4Kmlj/5vo4jFHena5Jby39Z43XoPd73j/W8j3bN+v+kSjW65zcJtrwJLqavUPAAuhcc/3L8ehgEf1H6F8+trDADgvWuIbze7GW790+b9n2O9wf2GEBAMDZkC/DAABeGSZaAABnmGgBAJxhogUAcIaJFgDAGSbaFxV7VCX1CIvlsRYv1vZb81vNrl9jbZ81/2y924+J9kWVPt9J71nxeUlr+2ef/+z6Ndb2rX5+mt7tx3O0Ly43UFa9CSRr+2ef/+z6Ndb2rX5+ml7tr95hgeRWQP/63ReXr+iHtz4rpCNuixPPFeZXbz+Zef7Es36Suz+LdwiZ1L8k137v+YX0Pn/S9NFBbgX0j9/ST+k4rIcGEQ2mXVnbP/v8e9ffe4eC0f272vzS4/o0TbS5FdCPmdx/hXSwoYEjB8/syaaWtf3W/Fae9ffYocDaPkv+FeYXS/tjTF+GaSugn2mFdIDd7H7/nWl+MU202groniukgw39hqaD0W9r+fPqrO235rcaUb/l/rO2z5qfzJxferRfav+M9lpxbAX0d/wZSiIO6xk9yfRmbf/s8+9df+8dCkb372rzS4/r0/wZbWoF9C/vn6GMWiEdbGZPMlajJ4HePOrvuUPBjP5daX7pdX2aPzpIrYB+e/TiasQK6WATDiL6eSfW9s8+f8/6e9x/1vZZ8q8wv1jPXzJ9Rgv7CgfRbqztn33+q/f/7v1r1bv9+H+GAQA4w1+0AADOMNECADjDRAsA4AwTLQCAM0y0AADOMNGeFD2eEqI0TpdxmSbTWSzNKlUPp8u4TJPprCat9L2vTus/GZdpveJSLM0qVY9X/ZhoT4qeAcwNEI7TkXteUIu38m6fVj7Tyn9VWv9xXOv/1jjT4q24fk2v+vEc7cnlBgoPtFzcY5BL3u3Tyvc+v91Zrw+xxL2vj3Z+veqv3mGh2wrzF+zAkGLpH5JfIf4g0x7jtGCHX/u/XSFf6Nk+kj//wvxa+0+6gwixjZ9De9w2/uzn12n8i/LJlI8OzCvA/8PfX/762jHUOeFRZHZ+hbl/AtQuGkwsHPhh3CrX/mOF/Efe7avNr7e/7/VZXe31scZHe6rf4f6eMtH2WAH+zHr0Dw0cOXhokHCafB2m9ZBrP/+m53pZ7/ZxPlaTX2//+cdvqv/oyF2f8HUsLRcfhetlqfrD97Wa+mXYbWmz62DFDgxxu/fP2duP8Qulpk602IEhz2OFfP7Nza/DtJ5y7ed6We/2cT7Wcn4zV/ifLdV/dOSuT/g6lpaLj8L1slT94ftazfuM9npi2IEhrnf/hIOIXlMa6z3Ic+0/Vsh/5N2+2vx6+19r/NZeH2t8tBH1T/uMFjswpPXsn9Qg4sHuMchy7T9WyH/Pu30t+fX2v874bb0+1vgoufop1su0jw6wA0Oe1wr5ucHTc2BpK+QT7/bFyi+1wgr/s8X6L9eHPeIjUX258UGxXm2a+hltsz/78PLptQOoE8KjyOz8A1Bb5CAKcbznYKrh3T6tfMizXh9r3BvXHyXub0L/8tEK/88wAABne/5FCwCwEUy0AADOMNECADjDRAsA4AwTLQCAM0y0EBV7lEU+4iLjMk2ms1iaJlVOr/LBRrs+Mi7TesWlmrTS9/aGiRaitOcbOU5H8nnEKy2eotXPWssHG+36cDx1faxxpuXXaOX3gudoISs3EHkg5+LWQazVP+ImgTTr+CCWuHb9tfZp+XsZvsMC4vk4mbnCP7GtsE8LrnjWbyvf2v/FO1xMym89f/v1OaTHx6E9nr/+ZInxI+onbR8dOO8w4G7x9q+2wj/1Cw1WFt4YYbw37/JDuf4vMTv/aLXjwxqv9ZRfu//PssMC5K2wwj8NTDk4aZBxmnwdpvXC5bLe5efk+r/E7PwjpK4PHbnxEb6OpeXipTgfS+UP3+cFE+3CbkvvXW82rPA/h7V/Z+eHdWCiXdjMFf7pLwA6GP3W5zT5OkzrhctlvcsvYe3f2fk9pa4PHbnxEb6OpeXipTgfS+UP3+cFE+2CVlvhPxyk9JrSWO1NUMu7/FCu/0vMzj9a7fiwxmtZ8/eAiXZBK63wnxqkfDN4D+IZN0mu/0vMzj9S6/iwxkvl8lNsFEy0i1phhf9wkPLAT+k9cGP1j2Lt39n5R4hdn9w16hGvQe/PjR+K1ZbZqm2i3WCHgazd2z8A9YUcpCGOew1WrX6Yyzo+rHEN54/SdlBwmB/w/wwDAHCGjw4AAJxhogUAcIaJFgDAGSZaAABnmGgBAJxhon1RsUdV5CMsMi7TZDqrSeuVX8ZlmkxnsTSwSfUzp8u4TCuNS7E0TaqcXuXXwkT7orTnEzlOR/J5xKtUXCuftebneCo/0+LQxnp9tDjT4ilcvqa1/Fp4jvbF5QYaD9RcXBukWvnW/MRSPthYrw/xvH5a+6zll8IOC4HZcZJbYd+6wwKxrZBPC55YyrfmP6Tbd2ftn8b+3z3uP34O6Xh+fBTfP43jr9v9K+oncz46OPsODcbzy62w77HDArWLBiMLb4wwXqt3fr19tv6x9P/u8Ra110e/fn15l18Cn9EuKLfC/vGb0r4CPw08Ofh4MNIhX4dppTgf65Wfjlz76LD2j6X/d4+Xet/Xh5rrk4v3wuWy3uXXwkS7sNvSeNebATsstLH2j7X/d49DP5hoF+a5wwL9hqeD8V8V/JufX4dppTgf65Wfjlz7+DXx3uHg7PEc7mtWe31kTKb1wuWy3uXXwkS7oNwK+x47LISDkF5TGrMO0t75tfYdX1j47HCg9f/u8Rb116fv+NJ4l18CE+2Ccivs995hITUI+WawDlKv/Pn2+e1woPX/7vFabden3/jSeJdfChPtokbssBAOQh74KblYTKz8GrH8uTJknPtHvr/HDgda/+8er0F923p9YnKxFlSeZfz1NGeiPfsODRucH7VFDsIQx+loabdWvqZX+1rbD3nW66PFrbT2jYb/ZxgAgDN8dAAA4AwTLQCAM0y0AADOMNECADjDRAsA4AwT7YtKPXKTSu/NWr+WX8ZlmkxnsTTIS/XjLv07uv2YaF9U6fOL9B6P5xGt9Wv5Oa61X4tDnNb/bNX+Hd1+PEf74nIDacRNYq1fy09mnt/ZWa/fbKPajx0WAmePk9VWoK+pn/RY4d9rBwLv61fcv9d+9Gg/mTl+uvWPU/tJWD4550cH1h0cdt8BohKdFw22Waz1h/kfb5xY+debaeAOBKPldojwMHv8WD213+H+x2e0L4oGlhxcNIhG3izW+lP56ZCvY2m0epX3DgQz5XaI6OV9Xx5Gjx+r0vaH72uFiRZe1m1pwOtkdNYdCHZv/5lgon1R9BucDka/teXP3qz1p/LTIV/H0ug18dyBYAWe7ee+ZLXXb7bS9ofva4WJFqbfJNb6w/z0mtLYc5y+0Bi3A8FouR0iPMweP1Yj2o+J9sXNvkms9afyUxrF4vFxOxDMkNshorfZ48cq136K9YKJ9oWFg6znwCphrT+WP1eGjPMOA/L9vXcgmGlE+6nvZo4fK639FOt1TuecaK07HOy+A0QBOhc5yEaz1q/l57h2s2hxiLNev9my7Rf3P6F/+WiF/2cYAIAzfHQAAOAMEy0AgDNMtAAAzjDRAgA4w0QLAOAMEy0AgDNMtAAAzjDRAgA4ww4LAcQRRxzx1jh5nR0WAAAWgokWAMAZJloAAGeYaAEAnGGiBQBwhokWAMAZJloAAGeYaAEAnGGHBQAAZ/iLFgDAGSZaAABn0Y8O/svn/+Hyl3/5l/efAF7L3/2fy+V//7/7Dwv6b5/828s/++f/4vL2b/77PWWs2fVr/vF31//5X8frNVwu/x+Q7Df0rTuQmwAAAABJRU5ErkJggg==;" vertex="1" parent="1">
          <mxGeometry x="579" y="-443" width="346" height="755" as="geometry" />
        </mxCell>
        <mxCell id="5m0OHBA38H0runsn4Bls-3" value="" style="shape=image;verticalLabelPosition=bottom;labelBackgroundColor=default;verticalAlign=top;aspect=fixed;imageAspect=0;image=data:image/png,iVBORw0KGgoAAAANSUhEUgAAAV0AAAL1CAYAAABkLzepAAAAAXNSR0IArs4c6QAAAARnQU1BAACxjwv8YQUAAAAJcEhZcwAADsMAAA7DAcdvqGQAABUbSURBVHhe7d0xri3HcQbga0OZV+HIkRMnXoFWoEQRE0ZKCS/DMLQBJQIUagGGY63AC/AqHMucixtI5Pj00xTqr5453wcQ1ENherr7ED8eWoOuv/unf/nXP38AEPH3X/8GIEDoAgQJXYAgoQsQ9P/+H2n//vvfffzj1//+qV99918/1n+p/vXnn1JXV3/f+uF//vP7j3/7w9cffsLfdAGChC5AkNAFCBK6AEFCFyBI6AIECV2AIKELEOSWMYAgf9MFCBK6AEFCFyBI6AIECV2AIKELECR0AYKELkCQzhEn1NXV1a/WD686R/zi699/u//974//+M1vP/709ce/9ut1/emq6999/3Zf3/T+rd4/vf7pereN5+d4ASBI6AIECV2AIKELECR0AYKELkDQ9U/G/uGfP374/e8+fvj64186vmNb1p+uuv7d92/39U3v3+r90+ufrnfbeH46RwAEOV4ACBK6AEFCFyBI6AIECV2AIKELECR0AYKELkCQzhEn1NXV1a/WDz2dI6qqN7dP3wxffX93vWr39690P//u86uOv9I9/0GOFwCChC5AkNAFCBK6AEFCFyBI6AIEzX0yVr25ffpm+Or7u+tVu79/pfv5d59fdfyV7vkP0jkCIMjxAkCQ0AUIEroAQUIXIEjoAgQJXYAgoQsQJHQBgnSOOKGurq5+tX54z84RK93PV+vdpte/u+79qZre37vvT7Ve4HgBIEjoAgQJXYAgoQsQJHQBgoQuQNBzO0esdD9frXebXv/uuvenanp/774/1XqBzhEAQY4XAIKELkCQ0AUIEroAQUIXIEjoAgQJXYAgoQsQpHPECXV1dfWr9cOenSNWum+mnx6/+v6Vu6+/Or+V7vWvTO/P9PhvzPECQJDQBQgSugBBQhcgSOgCBAldgKB9Pxnrvpl+evzq+1fuvv7q/Fa6178yvT/T478xnSMAghwvAAQJXYAgoQsQJHQBgoQuQJDQBQgSugBBQhcgSOeIE+rq6upX64f37BxRVb1Zf/eb87vX112v6h5/pfr+6f19+vPV8V9wvAAQJHQBgoQuQJDQBQgSugBBQhcg6LmdI6qqN+vvfnN+9/q661Xd469U3z+9v09/vjr+CzpHAAQ5XgAIEroAQUIXIEjoAgQJXYAgoQsQJHQBgoQuQJDOESfU1dXVr9YPPZ0jpm9+X5kef7pe1T1+1dP3Z3p9K9X3T89/pXF+jhcAgoQuQJDQBQgSugBBQhcgSOgCBF3/ZGz65veV6fGn61Xd41c9fX+m17dSff/0/Fca56dzBECQ4wWAIKELECR0AYKELkCQ0AUIEroAQUIXIEjoAgTpHHFCXV1d/Wr90NM5otvdb86vzq86/u71qur43fOb9vTfZ/fxX3C8ABAkdAGChC5AkNAFCBK6AEFCFyBo30/G7n5zfnV+1fF3r1dVx++e37Sn/z67j/+CzhEAQY4XAIKELkCQ0AUIEroAQUIXIEjoAgQJXYAgoQsQpHPECXV1dfWr9cNM54jBm9k/dY+/Ul1/df53f37l6fNbWY3fXV+ZHn+le34vOF4ACBK6AEFCFyBI6AIECV2AIKELENT3ydjgzeyfusdfqa6/Ov+7P7/y9PmtrMbvrq9Mj7/SPb8XdI4ACHK8ABAkdAGChC5AkNAFCBK6AEFCFyBI6AIECV2AIJ0jTqirq6tfrR96OkdM3wzfPX7Vu4//7vNbmZ7/7vu3Gr9aX2lcn+MFgCChCxAkdAGChC5AkNAFCBK6AEHXPxmbvhm+e/yqdx//3ee3Mj3/3fdvNX61vtK4Pp0jAIIcLwAECV2AIKELECR0AYKELkCQ0AUIEroAQUIXIEjniBPq6urqV+uHns4RK903vzfe7P5pev7T61uZnl/3+1eq85uuV1XHn35+pXF8xwsAQUIXIEjoAgQJXYAgoQsQJHQBgvo+Geu++b3xZvdP0/OfXt/K9Py6379Snd90vao6/vTzK43j6xwBEOR4ASBI6AIECV2AIKELECR0AYKELkCQ0AUIEroAQTpHnFBXV1e/Wj/cs3NEVff4K7u/v7u+cvfxq56+f93vX5me/wuOFwCChC5AkNAFCBK6AEFCFyBI6AIE7ds5oqp7/JXd399dX7n7+FVP37/u969Mz/8FnSMAghwvAAQJXYAgoQsQJHQBgoQuQJDQBQgSugBBQhcgSOeIE+rq6upX64eezhGNN6t/6r45fmX357vrVd3v737+7vVu0+9f2Xh+jhcAgoQuQJDQBQgSugBBQhcgSOgCBF3/ZKzxZvVP3TfHr+z+fHe9qvv93c/fvd5t+v0rG89P5wiAIMcLAEFCFyBI6AIECV2AIKELECR0AYKELkCQ0AUI0jnihLq6uvrV+mGmc0T3ze3T76+qzv/p6+v27vOrjt89vwdzvAAQJHQBgoQuQJDQBQgSugBBQhcgqK9zRPfN7dPvr6rO/+nr6/bu86uO3z2/B9M5AiDI8QJAkNAFCBK6AEFCFyBI6AIECV2AIKELECR0AYJ0jjihrq6ufrV+mOkcsdJ9s/zdx6+ant/0fx+r57vrVdPzn17fyvT8CxwvAAQJXYAgoQsQJHQBgoQuQJDQBQjq6xyx0n2z/N3Hr5qe3/R/H6vnu+tV0/OfXt/K9PwLdI4ACHK8ABAkdAGChC5AkNAFCBK6AEFCFyBI6AIECV2AIJ0jTqirq6tfrR96Okes7H4zfff8pp9fufv6Vs/fvb7SPX5V9/u796+R4wWAIKELECR0AYKELkCQ0AUIEroAQX2fjO1+M333/KafX7n7+lbP372+0j1+Vff7u/evkc4RAEGOFwCChC5AkNAFCBK6AEFCFyBI6AIECV2AIKELEKRzxAl1dXX1q/VDT+eIu98MP3hz/Kfu9XWr7u/d979qev+6n58ev/v9BY4XAIKELkCQ0AUIEroAQUIXIEjoAgRd/2Ts7jfDD94c/6l7fd2q+3v3/a+a3r/u56fH735/gc4RAEGOFwCChC5AkNAFCBK6AEFCFyBI6AIECV2AIKELEKRzxAl1dXX1q/VDT+eIlemb31emb5bvfn738Vfuvr7q+N3v79a9/mp9kOMFgCChCxAkdAGChC5AkNAFCBK6AEF9n4xN3/y+Mn2zfPfzu4+/cvf1Vcfvfn+37vVX64N0jgAIcrwAECR0AYKELkCQ0AUIEroAQUIXIEjoAgQJXYAgnSNOqKurq1+tH/bsHLHSfTP89M3zT9+f7vmtdI9fVZ1f9/5Wx7/7+ho5XgAIEroAQUIXIEjoAgQJXYAgoQsQNNc5YqX7Zvjpm+efvj/d81vpHr+qOr/u/a2Of/f1NdI5AiDI8QJAkNAFCBK6AEFCFyBI6AIECV2AIKELECR0AYJ0jjihrq6ufrV+6Okccfeb47tN70+36d9n9/VPq86v+/ft3r/q/Bvn53gBIEjoAgQJXYAgoQsQJHQBgoQuQND1T8bufnN8t+n96Tb9++y+/mnV+XX/vt37V51/4/x0jgAIcrwAECR0AYKELkCQ0AUIEroAQUIXIEjoAgQJXYAgnSNOqKurq1+tH3o6R6xM3yz/7s93W82vu95t9/dX59e9vun925jjBYAgoQsQJHQBgoQuQJDQBQgSugBBfZ+MTd8s/+7Pd1vNr7vebff3V+fXvb7p/duYzhEAQY4XAIKELkCQ0AUIEroAQUIXIEjoAgQJXYAgoQsQpHPECXV1dfWr9cNM54iqu9+MX613655/dX32596e/vsVOF4ACBK6AEFCFyBI6AIECV2AIKELELTvJ2N3vxm/Wu/WPf/q+uzPvT399yvQOQIgyPECQJDQBQgSugBBQhcgSOgCBAldgCChCxAkdAGCdI44oa6urn61ftA54mducHP9Svf6puf39P3bff5V1fVP7191/BccLwAECV2AIKELECR0AYKELkCQ0AUI0jmiS/fN9N3rm57f0/dv9/lXVdc/vX/V8V/QOQIgyPECQJDQBQgSugBBQhcgSOgCBAldgCChCxAkdAGCdI44oa6urn61fpjpHHH3m98bb47/Jt3vr+5f9/5Or3+lOv+713dXnX/j+h0vAAQJXYAgoQsQJHQBgoQuQJDQBQjq+2Ts7je/N94c/02631/dv+79nV7/SnX+d6/vrjr/xvXrHAEQ5HgBIEjoAgQJXYAgoQsQJHQBgoQuQJDQBQgSugBBOkecUFdXV79aPzyzc8RK9f3d9W7mf+/1r1Tn173+7v2rzr97fi84XgAIEroAQUIXIEjoAgQJXYAgoQsQdN/OESvV93fXu5n/vde/Up1f9/q79686/+75vaBzBECQ4wWAIKELECR0AYKELkCQ0AUIEroAQUIXIEjoAgTpHHFCXV1d/Wr9sGfniKrdx6/eXD/9/m7T+1NVfX/3+u4+v+r4VY3vd7wAECR0AYKELkCQ0AUIEroAQUIXIGiuc0TV7uNXb66ffn+36f2pqr6/e313n191/KrG9+scARDkeAEgSOgCBAldgCChCxAkdAGChC5AkNAFCBK6AEE6R5xQV1dXv1o/zHSOqOq+mb6qevP97vWq6vjd86vq3t/p8Vemn6/q3t8XHC8ABAldgCChCxAkdAGChC5AkNAFCNr3k7Hum+mrqjff716vqo7fPb+q7v2dHn9l+vmq7v19QecIgCDHCwBBQhcgSOgCBAldgCChCxAkdAGChC5AkNAFCNI54oS6urr61fqhp3NE9eb17pvjq+PvPr+q6u+ze31l+v3dutdXXf/0+wc5XgAIEroAQUIXIEjoAgQJXYAgoQsQdP2TserN6903x1fH331+VdXfZ/f6yvT7u3Wvr7r+6fcP0jkCIMjxAkCQ0AUIEroAQUIXIEjoAgQJXYAgoQsQJHQBgnSOOKGurq5+tX7o6Rwxrfvm+Omb6Xe/Gb86v9Xz1frK9PhV0+N378/d9+8FxwsAQUIXIEjoAgQJXYAgoQsQJHQBgu77yVj3zfHTN9PvfjN+dX6r56v1lenxq6bH796fu+/fCzpHAAQ5XgAIEroAQUIXIEjoAgQJXYAgoQsQJHQBgoQuQJDOESfU1dXVr9YPM50jpm+W766vVJ9fmZ5f9/5VTb+/avffZ3p+1fcPcrwAECR0AYKELkCQ0AUIEroAQUIXIKjvk7Hpm+W76yvV51em59e9f1XT76/a/feZnl/1/YN0jgAIcrwAECR0AYKELkCQ0AUIEroAQUIXIEjoAgQJXYAgnSNOqKurq1+tH96zc0S37vlNj1+1+/i779/K6v3d65uud2t8v+MFgCChCxAkdAGChC5AkNAFCBK6AEHP7RzRrXt+0+NX7T7+7vu3snp/9/qm690a369zBECQ4wWAIKELECR0AYKELkCQ0AUIEroAQUIXIEjoAgTpHHFCXV1d/Wr90NM5onqz+vTN8d3vr46/+/qn57fSPb9p3fsz/fvuPr8CxwsAQUIXIEjoAgQJXYAgoQsQJHQBgq5/Mla9WX365vju91fH33390/Nb6Z7ftO79mf59d59fgc4RAEGOFwCChC5AkNAFCBK6AEFCFyBI6AIECV2AIKELEKRzxAl1dXX1q/VDT+eIlerN69M3y0+PXzU9v+n1vXu96u7vn57/C44XAIKELkCQ0AUIEroAQUIXIEjoAgT1fTJWvXl9+mb56fGrpuc3vb53r1fd/f3T839B5wiAIMcLAEFCFyBI6AIECV2AIKELECR0AYKELkCQ0AUI0jnihLq6uvrV+qGnc0T3zey7P3/39a1Mj1+tr3Svb6V7fSvd+9e9vt335wXHCwBBQhcgSOgCBAldgCChCxAkdAGCrn8y1n0z++7P3319K9PjV+sr3etb6V7fSvf+da9v9/15QecIgCDHCwBBQhcgSOgCBAldgCChCxAkdAGChC5AkNAFCNI54oS6urr61fphz84R3Te/V+1+M/3d9396/ncff+Xd57/SPf4LjhcAgoQuQJDQBQgSugBBQhcgSOgCBM11jui++b1q95vp777/0/O/+/gr7z7/le7xX9A5AiDI8QJAkNAFCBK6AEFCFyBI6AIECV2AIKELECR0AYJ0jjihrq6ufrV+6OkcsfLuN8tPz69a31337zO9v9XnV54+v5XV+I3vd7wAECR0AYKELkCQ0AUIEroAQUIXIKjvk7F3v1l+en7V+u66f5/p/a0+v/L0+a2sxm98v84RAEGOFwCChC5AkNAFCBK6AEFCFyBI6AIECV2AIKELEKRzxAl1dXX1q/XDq84R1/+me9ys/t33P07g5/98U51Zd/99qvOfXn/3+6f3p/v53ffvBccLAEFCFyBI6AIECV2AIKELECR0AYKuh+7Xzep/PPnnm+rMuvvvU53/9Pq73z+9P93P775/L+gcARDkeAEgSOgCBAldgCChCxAkdAGChC5AkNAFCBK6AEE6R5xQV1dXv1o/vOoc8Yuvf+cdN7P/5rcff/r641/79de/X7j78yvd85uef/f8up+vjr+76vp337/B+TleAAgSugBBQhcgSOgCBAldgCChCxA098nY183sP3z98S8d38Et3f35le75Tc+/e37dz1fH3111/bvv3+D8dI4ACHK8ABAkdAGChC5AkNAFCBK6AEFCFyBI6AIECV2AIJ0jTqirq6tfrR96OkdM3/xetfv8B2+2/7T7+7tV3z/9fLfV/LrrK9Pvf8HxAkCQ0AUIEroAQUIXIEjoAgQJXYCg65+MTd/8XrX7/Advtv+0+/u7Vd8//Xy31fy66yvT739B5wiAIMcLAEFCFyBI6AIECV2AIKELECR0AYKELkCQ0AUI0jnihLq6uvrV+qGnc0RV483sEd03zz99/JXq/HZ//+71len3r3SPX+B4ASBI6AIECV2AIKELECR0AYKELkDQ3CdjjTezR3TfPP/08Veq89v9/bvXV6bfv9I9foHOEQBBjhcAgoQuQJDQBQgSugBBQhcgSOgCBAldgCChCxCkc8QJdXV19av1w6vOEc/9m+5xc/x33/+4QT//55tUn9/d9Pq6f5/u+u665//0/Wlcn+MFgCChCxAkdAGChC5AkNAFCBK6AEHPDd2vm+P/ePLPN6k+v7vp9XX/Pt313XXP/+n707g+nSMAghwvAAQJXYAgoQsQJHQBgoQuQJDQBQgSugBBQhcgSOeIE+rq6upX64f37BwBsCGhCxAkdAGChC5AkNAFCBK6AEFCFyBI6AIE6RwBEORvugBBQhcgSOgCBAldgJiPj/8DuAmb0xAyNuQAAAAASUVORK5CYII=;" vertex="1" parent="1">
          <mxGeometry x="-438" y="-443" width="349" height="757" as="geometry" />
        </mxCell>
        <mxCell id="5m0OHBA38H0runsn4Bls-4" value="" style="shape=image;verticalLabelPosition=bottom;labelBackgroundColor=default;verticalAlign=top;aspect=fixed;imageAspect=0;image=data:image/png,iVBORw0KGgoAAAANSUhEUgAAAyUAAAJBCAYAAABYhhpnAAAAAXNSR0IArs4c6QAAAARnQU1BAACxjwv8YQUAAAAJcEhZcwAADsMAAA7DAcdvqGQAAPyTSURBVHhe7L1NSB3JF/99nj+z0oVZiMwQUOSGJCAKPiAurlm4ECG4GbIRhDDyWyRBAoO4TAhDspThD0PIZDEogjCb7CQgLlwkdyEuhISBJOQiEYYM4iJZXLfPU6eq+vZbdXX1273V3ecDN6bvS3Wdb5063aeruuv/ufH/zv5/QBAEQRAEQRAE0Sf+j/xLEARBEARBEATRF5RJSXPjD3j14ldoyu1esfr0r57sl+wrBrIvH8i+YiD78oHsKwayLx/Ivv5A9pP9edRLkZQsw89TACfb/xda8p1esfX4TziBSfh5Rb5RCGRfUZB9eUD2FQXZlwdkX1GQfXlA9vULsp/sz8P+0D0lmIWtD7XgzuO/5TtelmFzZwHG2f9O9/8HG7viXXPif6/ff3aKsg+zxKUxuYF03sPvD8KO0y/7TOunZgYevbgP04Nyk3MGe3d/gy255dAf+8zrp8Z2+/zw70wNpOyD+t/3yz6nTl467/6Eu5vHcsscG+3jzP4KO2uT0HUz4z5ou3+6cTNIGh+1s/3CbWBuWxniSxb77D/+hX00yfHBodznL/y33RibzH772xeJa5/49oui7PZnO/9z6I3/B0ZKZmC+MQCd72257YI7e4UV6lxCR76XBNPft960oTN2A1bldr4UZd8MXB3GTv4/uCNfexeTsK4YyuqPfeb1i+Jw2/0t//2XUVjaeRKyo1/tZ1q/KGy3r8vKE1hvsJgiNxMT8/u+2vflwNcGaRISa+1j9Xq11oBPzz1+luCgYLd//g0bnrrx1/4Ze/8M/klw4OdY2n6rT9kJO7ADuce+8cU/4NGs/EIMtseXbPbZf/x79IId2z3x5fd3w7CU4PhX+vMX7Fd4hV3GH+5/xvbb3r7x9lf7/C7Ovuznf730f39SMtuE64OX8OmN4mTgzY4w6EELzuVbiTD9/dF/7PNRmEgyBIQH/KfLckNDYfYdw7MH/qsOWx/YQXmwAfPBoN4X+xLUT8kxtI7kfyVbe++Zcw7DVUvsM66fEtvtc1iGzcVhONlO2QdNft9X+7Jir32rN0eh824HngX8zIyy+KcDOwmcG2VJ5sfkV6KtbD88qLNEqd1yk8jdj3AKA3DlmtzWYnv7ZbfP6uMffx/g9IN79ba12YJT4+Mfo9TnL6I/uvFHtHeS47/d5zeMuPap9PkdQ2tf1vM/RpH+H8D46VutI4UQCTD/fRu+sVRs5KcZuW3A7ms4GV5gmdxf7GV+9cpLVvvM6Y99ebO6NAmDnTYchk6y7LAvun5m2Gjf6tMFGEl9Ymv6+z6235hTBnsluIrjYK99yzAxxg4mX5uw49jHXpsZArfV/U8ePE/2kg3h29t+x3DYvmTH8GbXJ5sbTRhPMxIksav98rcvGgv8s4tp0lX285cGXGFJ2flX8Z3mxl2YvjjjSef1WwnqaYSN9lf//K5o+wr1/wD+pOTaEAzCBfyrPSjYCGaCLIvDTG7/AqbXsHHZK5h99sw+50phK/UJpJ+87UtZP8zoecf5CyY+YNacdE5iFDnZl7V+NtvH6rY0/B5eppnShGT9vZYc7HOuxPCXuGEuyfCy9faxE4DpxSE4dGxMOP2HY7N/emjeaiS/IGB5+7U2H8KdbYB7Uv97gP7qv/oYi8Xtl4t9XSw7/h214BM7URq/6X5fJF3ZTp7yI9/+F2L2RxiR/8X72u5NXcDe49f85DEdtp/fFE3Z7c+7/vnyg/wr+PwdOosNMaRsU2UxmC8yEZXgXDlP8Nz9De7Iqzt4c8+rFz+6N/T0yL7u/FzTm316bF/i+jmE9m14s1Sv7EtbPwdr7ZPTWp7/Zm6Lj4y/70H7+a/EsCC93YSdNTG8HJz6EsZy++RJQefda085H+GU7ZNfqTS9CmWtf3rBp8MMMFs9U4Fisd8/8buYNOE9F/hdMcf6LqvzQ/MDu8Xtl4t9EvuOf3jS1+A36eK8eKTz7gBOOgtwnW8VTE/7nw52MvrLJJzv/4/tj/1fvpsU289viqbs9qc+/0tLEvsZ/qTECvxDjRxPQ8XifcJNqicMZIMH9zEUOmq//bUvvn5mbD0+gAkW4PHxby1f3e1ov+j6mWGVfSs3YBwGAPAKypp8D1lk23MGZST6vSX9D+emsnL49Iq4AGy7fdKW7tVKDg5zLwTeM8fa/sfbgsWXJCMe1vsnTr/DJ864321t7sD8i/vJkkoPdrVffvbZe/zDhzF4T8JYIrwTqEcu9Ln/qXDiz9xdGL84kHUR9UyK7ec3RVN2+/M6/4smo/0M//QtPsyZZZ4hdnR2IMky75NfVUw+lxXF5kNerEHxSgAfCgs2aMH24dUl0eD+zM9HH+2Lr1+928+IftiHnRq/330dwCl7Gx/L5y8jwj7j3zNsaT9ej0v49lluc8pqn5hn60d1UlD+/oc39Eff4F7S9uP7NKGk7ZeTfbYf/3zwRNgwviTBFvt8iPgzOIjTtmRixusZvGm6Qu2bimrbb/P5n5fAje7yhrehhtzuPXw+ctKntqyI+cjO4wyjnz9dnH3Y4Os4V1PnsIx+2WdaPzXL8GjD3xHwplTVjZD9sc+8fmpst6939Kv9VlfkfzlimkGWBxVE0R/75PtTt7uPShRz2iOepBKiJP45+yvM4xV3z1OO8qYv9vGTAYDxOc89Tiu3YTrqSTghLG+/zPahP9t9/IPZGc/9aezkC6eTFDCnvq/9L5JjePb2jP11n/aW9EEw1rdvwZTd/mznf+aksj9AaPFE3mF3mvAtOJfUO6zkwbfAmfMd1bCTye/xZOTFfbjyVtcwWSnCPiwTDzJBLgNzcvtln2H9Etmnyrhtsk9Rv9LaF0TUF/YD9Yi0L0jE721qP10MKZ19AnFgcBYvC8YGRsn9E6/28YNrVNuUuv3EvrWLC5a6/fK2D7Hl+MdgJ36+ee24ZklwTr3OP53P5KZDmc5f/PEn6/ERsah94+w3ab/K2i/up4qtf6T9DBP9crJfkZRI5220wxWLQ3b8UDAzJPaglhNkXwRknxayLx/IvgjIPi1kXz6QfRFU3b44yH6y3wL7lUlJWnrVKP2C7Cs3ZF+5IfvKDdlXbsi+akP2k/022J9rUkIQBEEQBEEQBJEU4xXdCYIgCIIgCIIgioCSEoIgCIIgCIIg+golJQRBEARBEARB9JVUSQne/f/qheeZ5paAN+r0ol5kP9lP9pP9ZL9dkP1kP9lP9pP9xVK0/SmSkmX4eQrgZNu+JxRsPf4TTmASfvYtxJY3ZD/ZT/aT/WQ/2W8XZD/ZT/aT/WW3P/HTtzBLWh9qhRce4riLzPifdSwWVfEuzKRePCqOqPJd9PXLTjr7/fAypgZSPA+6vPY7NnvxL7yjB68CLI3JDUS1wA/DVvs5wQWIImyIpqzt774fJMqOIOVv/3AMNLUdKbf9Wdvf/PhR1fb3wusQcfyw1/6gD6Q5/gtstN+kfzr1FtTPfr1/mFNG+03jtwnlsz/Z+X/CkZIZmG8MQOd7W267YGVfocN1LqEj3/NyuC2W0Hdee19GYWnnCazKz+OIK9+h9aYNnbEbxuUmI739XVaewHqDtZncNKUS9uMquh4fME1IcL9Xh9GJPf5zMQnriiFEa+3HhYnWGvDpuWvDnQRBqdzt/zdseNqOv/bP2Ptn8I/Rgan87b/6lAVlYIHaY//44h/waFZ+QUvZ7c/a/ubHj2q2v4eY44ed9uNJCfvME/9/fzcMS2mmgFhpv0H/xHrjFWYZ/7n/1sj+uP5hTCntN4/fsZS0/ZOc/4ukhBn66uky/6+W2SZcH7yET28UJ5NvdsQOH7TgXL7lcgwt75L4jK2990zYYbhqGpS15Xs4+o99PgoTSYawCrffYRk2F4fhZDvGBhWVsD8tx/DsgT+r3vrATmoGGzAf9B9L7V+9OQqddzvwLNAPjKlU+7OTlLlRlqR+NLxSWPb2x6DNDiTtlpuE7n6EUxiAK9fktpby+7+f5O1vfPyoZPs7GBw/bLSf/w7g9IN7dbW12YJTlf9qsdX+uP4p/N2N/8IflP1XS1ntZySKD1GU1f4E8VtLee1Pcv4vkpLd13AyvMAy2b/YK8XVG0brSBGoNKwuTcJgpw2Hhidp5uW34RtLI0d+mpHbBvTI/tWnCzCS8sS0CvbDmLOPIm/IstH+ZZgYY535axN2HPvZazNB4KhE+zvI4HayV8QQs432H8Nh+5LF6KbnymETxhOMFJhTj/aPPn5Ut/3Njh8laP8uyZIym+3X04ArLCk7/yo0am7chemLM56UXr9lXs/y2p/WP/yU2f48qJL9uvN/OX0LMx2WxWImu38B02tYOfYKZk/XhmAQLuBfrSgaMCPjhv8FEx8wa043py5/emA/sx2X8H9pPGWpl/TAfudKCX+JG7JSDV9ynCutrZgOakov/H8ApheH4NDRIO30jULoUf+XNG81El2QCFO+9m9tPoQ72wD3sFz2ugfYH/xXl8wpo/+7pG7/wo4fJWj/Qo8fBdt/1IJP7ERp/KZbnkjKEpw8lcr+QP+c/RFGxAfs/7/CvakL2Hv8mp88GlNm+/OgUvan0KcK9jMbeLnspYvfP8i/Lru/wR159QZvXnn14kf3hpXP36Gz2BBDLqZiegmVnf5mn0SgGItMJCU4F85zcCjEfjns9vy34m1V0Xf7g1dKWCfYbsLOmhjeCw7txdGdn216M1e/7ZcHpc671579fIRTVid+pSyHq0haLGh/F3x6xwDTwjOVJSGla38GloUHFbynAMsSc6zvspjwMPGBu4z2u2Ro/1DdDI8fpW//jMePvtuPJz0NfpMz3leAdN4dwElnAa7zrTjKZX90/2Qna79Mwvn+/9j+2P/lu/FUxf60VMv+5PpUxP5Q2ew7TtkewkmJ9wlBGZ4QEMfW4wOYYAEKH1/WkhXNB/9QKccjRixF2L9yA8ZhAAAz0DX5HrLItufy1thC+1Xg3Ee2Hz58n+AAh868NIYdKapeFtovbe1eLePgMOtC4L08sLz9eV9g7Zfyik8p258dVCbG8IkzblmtzR2Yf3E/cVJaTvs9ZGx/h+jjRwXbP9Hxw9b2x4cdeE9S2InWTqCeUZTIfmX/dOL/3F0YvziQdRH1NKLs9melQvan0qeC7a87/+8+fQsL40MrrEKYyfOhnGCF+DBssnmQycBAhfXIMK2FX5VOPle7UPvRKbC87usATtnb+Eg3/z4qar8KXs9L+PZZbnP09uPVReHwnsw+iJX2i3meflQHpeq3P97wH32Dc0Xbn9fJhKr6v0uW9jeiiu1vfPxgWN7+XfiJlmH8L4n90f1TxP/BQZy2JRMzXs/gTcNVtd+Uatsfr0/d21/QffqWM7SMlYl+frS8YW+oIbdNWYZHG35D8KadIm705POVjZ/qIinc/t5hp/3LsOq7qVsMYyeZV44Ov45zcWMc3k775e+mbncfgSfmVKueZJENq/1/9leYxyvGnqfwmFLq9ufBHGB8znMP1cptmFY+yURNuf1fkrr9zY8fVW1/U6xt/9kZz/2D7OQLp5Pkec+BpF/26/vnMTx7e8b+uk8bSvqgH1PstL932Gp/r/Sx0/5k5/+JF0/kAWWnCd+Cc2G9wz4exAJ5Yj6pu3ASosionDJUw0ba8p3Azk52X9yHK291wmYljf3BAw+WsQDAMlJfPStrv6L9dTaGPhN6+f0HuQT/nGy721903AH+/3DdGZVtf1E/vBrDg1/QNodKt7+om3bxvErbn3f7q67IVbX9gwg9QscPm+1nJz6+ee24Zklwznlp7Rf1ieuf/vif8PzHRwntj+0fjMrab6APUiv7o0dUUiQlsnM12jHCpUAGrlCwNiT2oJcTZD/ZT/aT/WQ/2U/25wjZT/aT/fW1X5IqKSmKXolqK2Q/2U/2k/1kP9lP9tcPsp/sr7P9DlYlJQRBEARBEARB1I/u07cIgiAIgiAIgiD6ASUlBEEQBEEQBEH0FUpKCIIgCIIgCILoK7kmJXijzqsXnmexFwTe/d+L/SSF7Cf7yX6yn+wvFrKf7Cf7yX6y3y7ysj/XpGTr8Z9wApN86fjiWIafpwBOtu17QgHZT/aT/WQ/2S/fKASyn+wn+8l+sr+q9hs/fQuzM3fhH4Fv4RsJ/95QK7wwUk5ElY9Z2tKY3EA0C9A4tiR+HnRwASDFPmy137HZi6r9ojD9va32cwzaT0tp2z9qcSPFAm46Suz/zsJS2sXrNPD9ltr/gz4QvXhVHI4WKv36Y3+4bVX2OfUW1M9+rw8kO/aZlm+3/U67CZK1v9HxhVHN9neI/72t9pu2XxTlbn/z/qunN+2fbKQEV2GVS9HjS3VC23rThs7YDViV2/kyA/ONAeh8b8tthxm4Oowiu3Xbu5iEddVQ0soTWG8wn5KbxuDCNmsN+PTc3ccdhVNabb9B+2kpc/sbtl8kpW7/v2HD8xl/7Z+x98/gH9MDU8n9f/UpC8rADiTOd5j944t/wKNZ+QUTSuv/eFBiBxNP/X9/NwxLwfhgQkz87I/9AIfbru342vsyCks7T9x6YL3xCqP0X/55jezHk4VXeELRuUx+7GPE6iupZvsbHl8ZVW1/09/bab95+6kpf/ub9t8oetn++d/ofvQfnMMoTCQZwsETnqfLckPDbBOuD17CpzfBk4FjePbAn/VtfWAnXYMNmPeddLBMb3EYTrZbrI7JWL05Cp13O56l9SOw2v4eYKn9xu0XQbXan52kzo2yk+yPxldKym0/HlTYiWS75SZRux/hFAbgyjW5nRc22s9/B3D6wb161dpswWni+GAQP/tkfyvgl1t779nBcxiuyvZHf3f9V/hD8vhYVvsZb3bECcmD5Mc+o/IdKtn+CeJrJdufYfp7K+1PenwMUvb2T9B/oyiy/QMkS0rGFli29Jd4RWaZbfjGUqmRn2bktgG7r+Fk2Ck74dXLBKw+XYCRVCemyzAxxpzhaxN2HPvZa1MpvL32m7WfhtK2f5L2U1GR9neQwe1kz3SItez2H8Nh+5IdQ5pdn21uNGE8yUgRUvL4FyZZUmYWP+2wf3VpEgY7bTjkdW3AFZaUnX8VB/Pmxl2YvjjjSen1W+b1LK/9LAk9Cp7IZCNYvkt129+Mara/+e/ttL93lMP+pPoU2v4BzJMSJ1PiL3FDi/nwVxyYicqy9y9geg0bh72C2eO1IRiEC/g3VkjnSnDLPYCwbBSX8H+ZdMpSlwGYXhyCQ0eDNNM/IumB/Vnbr+ztn7n9St7+Hpq3GikCdrntb20+hDvbAPewXPa6B+jP/qtfWsrs/0ct+MQOFOM33fJEUpbg4JE5furIyX684ijbd+IDK8uZXjj7I4zwLzBmf4V7Uxew9/g1P3gaU2b786Kw8kvQ/j708TU5JWn/wui1/Vnbr6TtXxL/+EH+jcWfKTERt5uwsyaGr4JDQyFQjEXWiEpwrp7n5GD3N7gjr17izUWvXvzo3lD0+Tt0FhtiyEmzz+788e7NNnLY/flv6RpBBrXOu9eeen6EU2YTv9ISl0X23f6M7ccodftnbb8KtL8LPr1jgNnimcoURwXsx7LwpBLvKcGyxBzZuywmPDQ6sJQ7/uFBr8FvUsR5wUjn3QGcdBbgOt+KI2P87JX9od8yDZzfctjJxC+TcL7/P7Y/9n/5bjxVsT8jacsvffv70cdXBVVp/7RYZn/i9gtQ2vbvl38ksZ9hnJSEwLlja5Ni+N8nkH+olOMRIxbvE34SPiEBQbGXxtBQz+9WbsA4DABgBrom30MW2facwT6krd2rLRwcploIvIdYaL+KyPYzpEztn6j9FFSp/XlfYJ8nueJbevtx+hk+McR9r7W5A/Mv7pslVSrK5P8cfNiB9yDKTrR3AvWMIlH87K/9DluPD2CCJWD4eMrWrvTfubswfnEg6yLqaUTp7Zdv5kh0+RVsfw/xx9d6tH80dtsf3356qtL+xflHRvsZgelbeKBigdZkXhu/enoJ3z7LbQf+fsK52gxsbD60xBoEr2Twoaxgg/BpCNHzQPHqp3AYf+bFRcHyuq8DOGVv42PN/PuIsl/Mk/MTEdRstF+Fsv0q2v7G7Vf99scb1qNvcK+o/bxOJlTV/xXwE23D/m8cPxl9tD8a4b+DgzhtRyZmsv38N41W1X5TEvh/FFVsf4lR/6L2t9b++Paj9u9X+3sxvKdkGVZZRuUihkFV89L5fPUET/XhrIj5us7jOqOfny1vWB1qyG0XdJh1nCtqckBOjNzv1O3uo87EnOxgULPVfvP2U1P29jdvPzVlb3/J7K8wjyMGnqcwmVFy+3kwBxif89wDsnIbppVPMlFRgfg3O+O5/4UdfHA4Pbc50S79sX8ZHm34D9R4U7r7IINjePb2jP11nzZT1I2wdtqfFfPyq9r+RvGVUc32N8dW+03bL4pyt3/v/COV/QH8iyc6Q0ehYSPMoNAID8qhJXawfnEfrrzVCZsVrEsTvvnmgivqx7mMmDMuvg8sI/XVM9J+gXBMZ/ElVdm22q/4XGVjxds/tv0q2/5iC6/G8OCnsI1TaftF3bwLSIUWgKqy/7MDn29eL65ZEpwTHdP+LmJ/ofhplf3hK5p+/1Vc8ayy/Y5tctPBtwBoEv9X6VfZ9leVjwRjYFXbn2Hye2vtN2y/yrZ/3OcSS9rfn5TIA1fUao1xxJ705AQPLo12/vsh+8l+sp/sJ/vJfrI/MWQ/2U/2k/1Z6+VLSnolqq2Q/WQ/2U/2k/1kP9lfP8h+sp/s77/9/pESgiAIgiAIgiCIHpNsRXeCIAiCIAiCIIicoaSEIAiCIAiCIIi+QkkJQRAEQRAEQRB9JVVSgnf/v3rheea/JeCNOr2oF9lP9pP9ZD/ZbxdkP9lP9pP9ZH+xFG1/iqRkGX6eAjjZtu8JBVuP/4QTmORL5xcH2U/2k/1kP9lP9tsF2U/2k/1kf9ntT/z0LcyS1odagYW3xKIp3oXJlIuzSHgZUwMpnofsLgIT9Vt1/fIjrf2OzV78C8/owSx4aUxuIKoFbhi22u/F0cK8/c3Lt9P+ZPrEodPPTvvN/TcKx2Yvqv5jq/2C+PhlgqNFmdofceotSOb//t8K7Gl/E/8OLmCWov8HFzBT9KFq2q9a/E0Q7APVbf9wH6tT/zfVz2b7vTYkj//lb39T+xOOlMzAfGMAOt/bctvlcFsske+89r6MwtLOE1iVn3dZeQLrDdZn5aYpKMYrNKhzqf1t600bOmM3wvvNhYz24yrKnu+YJiS436vD2Mie8i8mYV0xhGa1/UjK9jct31b7jfWJI0Y/O+03918tBv3H1vY3jV+xlLL9GVhvvML23PN5Zdo/zr/xoM3a3lP/398NJ7Of6fdqrQGfpH78pUjqq2n/37DhKZu/9s/Y+2fwT+DEpqrtv/qUnfQBS3ScfTD7xxf/gEez8guSavZ/c/1stT9r/C97+yexXyQlGPCeLvP/apltwvXBS/j0JngwOIZWd8l7wdbee7bzYbjqE41lSovDcLLdgnP5jjFvdoTBD2J+e/Qf+3wUJpIMYfXM/rQcw7MH/qxz6wMLyoMNmA+Wb7X9ads/gb5W2p+XfxjoZ6n9xv6bFVv93zR+aSlr+7OTirlR6LzbgWf8e3gSx/5UqP21/s1/B3D6wb262NpswWkC+1dvevXTUFH7/Qh/gi8fA1diGZW0X/SXTrvlJqG7H+EUBuDKNbntUMX+n0Q/K+1nZIr/ZW9/RgL7RVKy+xpOhhdYJvMXe4WzrzSsLk3CYKcNh57Krj5dgBGTwKqgdRQUIoo2fGOp2MhPM3LbgB7ZD2POPoq8Icle+7O0fxClvhyL299D3OcqzPQrh/2pMOo/dtpvHr+iKW/7N+AKO6k4/yo0aG7chemLM35QvX4rQT1L1P5mKE4qlCzDxBg7GfjahB3HfvbaVJ54VNH+APLk6GTPO4XEoYr2H8Nh+5Kdwze7Pt/caMK4YqSo0v0/hEo/G+3PGv/L3v7J7JfTtzDTF8Mud/YvYHoNK8dewezp2hAMwgX8G3VQxIyLG/YXTHzArMgzvMw+wyXsXxpPWeolPbDfyRT5S9yQlHj6ShfnSlErlxP80rS/rvxM9MB+JEv989Avkh7Z3yWF/+baf4L02v4UlLn9Z3+EEf4FxuyvcG/qAvYev+YHT2PK0P5dAv591IJPzNbxm2554qQiycnDAEwvDsGho0HE9I10lMF+l+athu+EJzv229/afAh3tgHuyf51D7A/+Edn0mN5/8/Zf8IUbH8OlLr9E/KD/Ouy+xvckdkX3rz16sWP7g1bn79DZ7EhhmRUFQv91rnZS047eP5bbo2UCBRrkQUJJTgX1NO4hdgfzBSZE2w3YWdNDD8Gh77i6M4vNL2Zqe/259T+Gn21WND+nLT1z6qfLfZLEvsvI1P/scz+5FSl/dnJ2i+TcL7/P7Y/9n/5rgmlaH9J2L/xoN/gN3nivGqk8+4ATjoLcJ1vxSBP6jrvXnvq+RFOmU38SnPcVciy2+8Dn/4zwH7vmcoSRwXsx7rgRQm8pwDrIubo32Ux4WH8hZ3S9/+M+lljf3qq0f5mhJMS7xM+Ej4hx8vW4wOYYA6EjydrwQ2W1Q4AYAa2Jr+ALLLtufwaTuAfKuR4xIqlCPtV+8a5f2w/fPgxzqk8cOccQ0eKqpeF9hfQ/tH6lqP9Y/3Dy0oS/ey2P95/DYnsPyXp/0koffuLthqZuwvjFweyLqKeqbG0/aP9G2/W9ibhLNHcCdQzCmlr92ozB6dpLATeQypovxfeF1j5kSOGVbQfp+/hE4vcMlvsx/Mv7iuS0qr2f1P9bLRfvpmasre/fNOQ7tO3sDPxoRdWIcxk+VBOsEJ8GC3FPEAUBcvrvg7glL2NjwXz7wMdDeuRYViaX1VSzbXTU6j9Kng9L+HbZ7nN0duP2bEIeJ7MNoiN9lP7GxJhv7F+DIvtj/ffBO2v7D8Man8L7RfznAcHcdqGPLGQ7ee/abLc7W8Unx34ybVp/Bf6+Yk4qauk/S54w7/yBneHKtrPbTKkj/ZHU0D/V+rHsNJ+U6ra/snoPn3LGRrCykQ/P1necDPUkNsOy/Bow19RvClTfSNOsfD5prqgpaJw+5dhlWWMLmIYM8m8WAx46zgXMybg2Wl/VszLt7X9e9U/bG1/U/9VY95/qun/5thp/zE8e3vG/rpPYwneCKnH9vY38O/ZGc/9L+zkA6dTGN9TJfc7ddvziE2cUx9+Ek417ZfM/grzeMXY8xSmIJW0n58MAozPee6hWrkN04onIVWz/zMM9bPT/oyUvv2TkXjxRO4QO0345pvLhu9hJbzEXRFdAGAZmU8AZ+hINWzkHVby4F9Aix2sXtyHK291wmYljf2Kz3U2hj5TlY9cBuYU2mp/EPF98/Y3Lb9E7a+qv87/fUToVyr7kYD/Jml/pUYW+79J/Kps+wvEiZtm8bRKtT/i8W924PfN68Y1F7r3HEhi2t+vXzD2I9W2H6/m8pOnyL5RZfuFbfrF86ra/xkm+tlsv2Ob3HQwj/8lb38T+yUpkhLpXI22JjikRDpeWGwz4oNWPpD9ZD/ZT/aT/WQ/2Z8jZD/ZT/bX135JqqSkKHolqq2Q/WQ/2U/2k/1kP9lfP8h+sr/O9jtYlZQQBEEQBEEQBFE/uk/fIgiCIAiCIAiC6AeUlBAEQRAEQRAE0VcoKSEIgiAIgiAIoq/kmpTgjTqvXniepVwQePd/L/aTFLKf7Cf7yf662h8H6aOH9NFD+ughffSQPnps0SfXpGTr8Z9wApN8afniWIafpwBOtu17QgHZT/aT/WR/Xe2Pg/TRQ/roIX30kD56SB89tuhj+PQt1eIoguAzlTELWh9qKRa2yQd1+eGFZYKLt2AWuDQmN5CIBZqiMVm8xlb74/WJp8z2++FlTA0kfB543ds/GAPUv7e1/bP3/3LbL3BtSOb7Dvrf87rpFkdjVNc/kDh94/Wvq/+Y6l9XfQTl9h/+25j4oKfa/lOcPqb+2y99/BiOlPwNG3IJ+u5r/4y9H15GvvWmDZ2xG7Aqt/NlBuYbA9D53pbbLofb/vrtfRmFpZ0nsh4zcHUYG8Hz+cUkrCcYqlp9yhoVmKM7ZTD7xxf/gEez8gsSO+2P/zyOstvfZeUJrDdYzJKbptS7/TGosWCHq+jK3//+bhiWFP2nmv2/7PaLg8ErPGB1LhP7PhL7e+xXeAXsuWf/tfGPeH1M9a+n/5jrX9f+VXb/MY0PUVTdf4rVx2D/kn7p4yXl9C12kJ4bBfjyMZzJHf0H5zAKE0mGgHAly6fLckPDbBOuD17Cpzf+ZekBjqHVXfJesLX3njXOMFzlJ43H8OyBPyvc+sCSqsEGzAdOKtWg07MT2XbLzbx3P8IpDMCVa3LbwVL79Z/HUXb7HZZhc3EYTrZbrI5JqHn78/0CnH5wr260Nltwquo/Vez/pbef8WZHHJAeJPV9ifb34njQebcDz3g9RH9R6ltF/0Di9DXVv5b+k0D/WurDKLX/JIgPUVTaf4rXJ9Z/Hfqij590SYks/GRPNQTThm8sVRv5aUZuG7D7Gk6GF1im9xd7ha8+p2F1aRIGO204DDRGOo7hsH3JfKTZzVybG00YV4wUlcX+ZPpUw/7Vpwsw0u34Sah7+0ehSMoq2f+jKI/9rSP9gSAO/e8bcIUlbedfxXeaG3dh+uKMJ+3XbwV1qKZ/xOlrrn8d/ScJ9dSn3P6TJD6oqbb/9F6f6PjXf31SJSXNW40Ig9KCmS7L8jDT27+A6TU0jr2C2de1IRiEC/g3ar+YsXFh/oKJD5g1Rs0JdkZ6WsYnqK3Nh3BnG+CeLP8eYGbqz87T0yP7jfUJU3r72WdLw+/h5Wa64Fbr9j9qwScWqMZvuvURSVnC4BWJ5f2/cvbnzOyPMCL/C7O/wr2pC9h7/Jof3PLBcv/oOyX3nxB56181ffKmYH0Kjw9BSuY/vdKnMP/NSR/JD/JvAvDu+QHovPNMZYkDxVhkTqIE5wJ6Tu52f4M78uoz3rz06sWP7g1Ln79DZ7EhhpxUhoV+q77ZqXt/QIKbefiNVOykFu8pwPLEHL67cPL8Ybzj22K/oT4qym2/nLb1/DcjW1WU235J6vbHoNPgN9HhvFWk8+4ATjoLcJ1vxVD6/l8t+4uDnQz8Mgnn+/9j9rD/y3djKb1/FExt/EeQWP+a6ZMYa/RJGR8SUl7/KViftP7bK30kyZOSlRt82spe5BVn/1AUx1PRWFimuLM2yTIqRqonoAi2Hh/ABDuBwMebtTz7RqGWxlDIJOUuw8QYPtHA/U1rcwfmX9wXw2u+oTO77XeI+9xPye0H9NkBAMzg1+QXkEW2PWeyj7q3P4IPu/AGeXzSR8BOThX7P1IN+wsB5yGzOo/M3YXxiwNpq9AhTFX9Iy9q6D8e4vWvtz7x2KhPkviQjXL6T+/0cYj23/7rE5i+hQdadqKmmRe2epNlTKob3B34UJRqrr0edCY+5MMMwkyRDwUFDeLTKMzn2QXBq9vCYT2ZnY8I+73Da3FYbH88FbUfOxWW130dwCl7Gx+b598HtX9c/+/CL05cwrfPctvBYvtT938VJbQ/ngT2+xDzkAcHcdqBTNy4DoqbGuviH2mppf8I4vVn1FgfI6zUxzQ+1NV/eqOPERbok+yeEpYFzeMVY89TaILw+010SYuKFTHf33ncavTzveUNx0MNue2wDI82/IbiTc3eG5HRYddxrp7OYaPgYgKMz3ke0bZyG6YVTxKw0/54fbSU3v6M1L39kdkZ13ZW3iYO5yrm7Fay/yMlt79YjuHZ2zP2132aS9SNlJX1j5yop/+Y619XfUyxUx/z+JCWcvtP0fqY+29/9PHjXzzRGXqJGHbBbIjvXPGZYIYv0nLlra5iWcFssQnffHP58T0U2Ys3Y1Z9jlz67wnQ2i9s8y5AE17AqEz2K64oVNb+IOL7EKw/tX+0/Szw+OaV4podoTm7ZbIfSdD/S20/w7FNbjp03v0Jd52puDr7DX4vTgx0i39V2D/i9DHRv7b+I+7XitW/zv3LpHyb9WHExofU+lTAfxi91UdRft/08eNPSuSBN3yyZUZ80pIPvPEa7fz3Q/aT/WQ/2U/2p7I/DtJHD+mjh/TRQ/roIX302KKPLynpVaVshewn+8l+sp/sr6f9cZA+ekgfPaSPHtJHT1308Y+UEARBEARBEARB9Jh0K7oTBEEQBEEQBEHkBCUlBEEQBEEQBEH0FUpKCIIgCIIgCILoK6VKSvBGn1cvPGtFFAQ+HaAX+8kb0kcP6aOn7vqQ/WQ/2U/219X+OEgfPaSPHlN9SpWUbD3+E05gki+NXxzL8PMUwMl2+Z5wQProIX301F0fsp/sJ/vJ/rraHwfpo4f00WOqT/fpW5jFLI3x9wShBVqCC8CoFl+Jwy3D/6xlsWiLd2G6qPIxS1wfaikWLsuHqPLj9QnbkPx50lH6mOxfYKc+qsWDBMk0itZHEPe5zf7DCC6AFNHG0ejt53XTLm5XZX2CPlgu+/1tJ/AvnBaHWXyyuv0ljhbmscM8/lTTfqTO7Y/Uvf8jdHzQo9cn/vP66mPaf030kSMlM3B1GJ1QLBOPr72LSVjvDrVgQGOVwVWM5ee/vxuGpQRDSFiZV2hQ5xI68j0vh9vuvvG192UUlnaewKr83KH1pg2dsRuh9/NhBuYbA9D53pbbDnH6YKOwgA+sIZzv7J/B+OIf8GhWfiEGvT7x+3ewU5+/YcPzGX8xfTDw/WN4UInzn7jPHWz1H74w0loDPj33aJQgYMTaz8pfxysssnzev0rjP4xM+pjHL2vtRzz1x1eSExLT+GS1/Qj6cYMd8+SmGebxp5r21739qf/T8UEPnV/o0dtv3n9N9JFJyTE8e+DPirc+sKA92IB5DFqzTbjO0qvTD25209pswanzuQlvdqQQLTiXb7kcQyuw5PzW3ntm/DBcDZZ/9B/7/ShMJBkiwwZ5uiw3NHA7L+HTm2Bnj9GHNwoLlO2W28i7H+EUBuDKNbkdR4w++v17sFKfIOwgMTfKguzH0JWYSLT6MOI+d7BUn9Wbo9B5twPPAv3AGK39Qm+3fOGvZfKfTPokiV+l6D9JSRCfrLZ/GTYXh+FkO6aPx6KJP5W0v+btX/v+z6Djgx46v9CjtT+B/xrok/GeEvOT7tZRUEg9q0uTMNhpw2FIxDZ8Y6nayE8zctuA3ddwMrzAMr2/2Mt89MKcYzhsX7I2aHYzw+ZGE8YTjAQk1ScaG/UJIDvXyV70EF6QOH3M9bNRn2WYGGPB5msTdvg+xGszQWDT29+AK+ygfP5VfKe5cRemL874Scn1W0EdqqmPGlX8srj/jDn7YC/FVahoksQne+1ffboAI1kOrA7a+FNF+6n91dSl/9PxIQ46v9Bjbn8c8fpEJCXOlaSWCABHLfjEChq/6WZzIqglFD8OzBilYBMfMCszH17Sg5kcKw8zvf0LmF6TDRPMTq8NwSBcwL+xQS+gD6O1+RDubAPck/W/B5hZ+rPH/AjvPxvF6+OleasRkXDaSi/0GYDpxSE4xH3w/SSb/qdl9kcYkf/FeaX3pi5g7/FrHhzywXJ9Co9fPbDfuVLFX+KGQeX0lgiKjU89sJ8dG5aG38PLRHPo1eQff+y3v9btT/1fT92PD32navqo9m+OMinpzj/t3oyCoh3AqSdTv8fShZPcnFay+5sQjL3+ucn2Y9rpPMlM+BW4L8Wzjz1g9nj38fm7espYgLA++B7b1y8AL2XZL+Eu23cxja7avxYL9HHBp0cMgG8qQb/ptz7yoNB599o9SZDTK8JXqrLAgsUvk3C+n/BkpPT6ZIxfFvQf/5UqZs/2e+gkmN6RKT713X5n2k4eF6lSxJ8K2F/v9qf+b0Zdjw8FUzN9VP6bhB/k3y7iLnq8aSUYAPBmQe9OWKDYcYf88mbr8QFM7Czwx4e1fEPM/qFGDjak4TQp3xMIEj99IEofHB7DJxK477WYOPMv7otGz23oS9c+Djbq42HlBp82sJfDFc90WKgPzrNkZXavVnFwmHMh8F5KnPLn7sL4xYG0VegQpqr6mMYvy/uPg9SETz+JvRqVJD5ZaD+PGQMAeAVxTb6HLLLtuYT7iI0/VbSf2r/e/T8GOj7kSL31ifdfhT4BfCMleIe9KNAgU+aB4hK+fZbbHOzoLFAUNELA4Vmf+b0aDigWz0xZ45zvi0w0ND2MD/NGZ4+R+shMNJ5s+hi1j436eMAbrqJvcK+p/8h5ln5UB4W0+ojyBwdxWN579URx01xd9FHGL4bl/aeLbD+j+Mu/a4iN9uNBHcvrvg7glL2Nj6X07yO+/fXxh1FF+6n9w9Sp/8dCx4fcqLE+Rv5roE83KcEC13EuYVSBszPuMBJWfjH9nLEwy/Bowy803tSmuhGPzwdO8tQmZEXMR3Uehxj9bHN5Q+BQQ267aPXhzgIwPucZalu5DdPKJyWkI7Z9JFbq4zD7K8zjFTvPU1B6jZ36yN9N3e4O5Yo5z3n5zzE8e3vG/rpDv1EPkqisPobxy077l2HVd1OimGZhfF9EgvhkdfzIikH8qaT91P717v+x0PEhL+qqj2n/NdFHLp6IGRImAUEu4eT5Q9FxmXCvsCM74DOzg3PGnKEn1bCTd1jKg1gAqKHYvyrjYp3xxX248lbXcFlBLZrwzbGbY6CPrJt2capc9UG8+0ds1kdcDeCdL2i7Q2p9WMeK+5xjtz6iYzuLVwXblpFFH4a//LL1r4z6mMQva+1XfK7zAdVnJvHJ8vZ3Ed+HJPGVERt/Km1/zdu/7v3f+UxuOtDxQRKnj4F+9dUn3/PT7oruuSA7fjjY5UP8QSUfeOM12vnvh/TRQ/roIX30ZNSH7Cf7yX6yv672x0H66CF99Jjqk2tS0qtGKSukjx7SRw/po6fu+pD9ZD/ZT/bX1f44SB89tuiT70gJQRAEQRAEQRBEQjKu6E4QBEEQBEEQBJENSkoIgiAIgiAIgugrlJQQBEEQBEEQBNFXCklK8OkAvuXxSwLe6NOLepM+ekgfPaSPHtJHD+mjh/TRQ/roIX30kD566q5PAUnJMvw8BXCyXb4nHGw9/hNOYBJ+9i1UlDekjx7SRw/po4f00UP66CF99JA+ekgfPaSPHtIn96dvYZa3PtQKLUyEWdTSmNxAAgu08N91F3YR+BemMcFdREb9rOW4z6Prnxe26hO3fwdb9eEEF/iJsCGaKH3Eoj/ehcfUi0vVVR8/jq+qvmOnPq5dQXR2honWx9HEi6r/1lUfjoF/2qmPpMD+VW7/Ma+/nhj/kTj7Un2nrvqYlm+rPl4cW3Q+oKa6/uOlCH2cMr0U5T85j5TMwHxjADrf23LbYQauDuNJnFhGH197F5OwHhzqwVVWPd9J0iFRjFcoaOcSOvI9L3GfO7TetKEzdqO7HH++2KqP4f4Z1uqDC/+sNeDTc/c7dxKcEMT5x+G2p1zc/5dRWNp5EtKhrvp0YftZb7CAJTeD2KnP37Dh+Yy/9s/Y+2fwj2FQN9LHoP/WVh9D/6x1/yqt/0gKPL53KWX8kRStT9n9B4lp3yhq4T9Ikfr0yH/MkhIMuE+X5YaG2SZcH7yET2+ClT2GZw/8V5W3PrCD2mAD5mflG1l5syPEetCCc/mWj7jPHY7+Y5+PwkSSIajS65Ng/5bqs3pzlGXuO/DsSGwnJkafVqDcrb33rPMOw1XSx8MybC4Ow8m25jul6F8z8GhulAXhj77faDGNL3HUVB9j/6x1/zKgFP6TglrFnxTUwn8M2jeKWvhP0foYkEafAGZJye5rOBleYJnUX+z1BzzKqyMFGXP2kfyGmdZRsCH9xH3u0oZvLFUc+WlGbhtQAX3MsVGfZZgYY535axN2HH3YazNBx0iqz+rSJAx22nAYOgmprz6rTxdgJPbEzOL+5SAPDid75kPQRv5j1H/rqE8S/6xx/Cm7/xR8/Cp9/Cn6+F5y/zFrXzV18J+i9SnMfwIYTt/CTI1lUZhJ7V/A9JqsWDD7uzYEg3AB/8aK4lxpa7kCOpkaf4kbZpTDU1ZSNX0U+89ED/SBAZheHIJDR6P9MxhfzDkA4BUP2SknPrB9JJieoacC+jBtlobfw8sEUw7M6YU+Ls1bjYiEMwOF9t8K6FOof1agf5Xdf4o+fpU9/hStT9n9p9D2ZZTdf4rWp2j/9CCSEmYQF0n5Csyb3/2tW7k9YJmTt2Kfv6untARYfXofpuE9/O65GcafqbFG3H4PnTyHN7NQM31U+9fSb31mf4QR9qfz7rU7xLn7EU7ZicL1W+kz9hCeuv9zk9lm2ikrr48zbJwySbOgf7ng008GoNNu5ZRwCjL136rrk9U/axB/yu4/xR6/yh9/ij6+l9t/MrZvLGX3n6L16aH/MH7g/6JQpnfpe58wkvjpIigoPkUAb9qJ+R3OTWP7uXIN/y/e6g0NuMKMO//qaYQa6RO/fwv1kVrgiYELDiMuBN7Lj63HBzCxs8Aff9fy2V5DfVZuwDg7AQO8ArQm30MW2fZc0AbL+xe3hX1e1BUnh8j+W0N9EvknxR9OWf3HIbL+KahS/HHIUx8VZfKfRO2bgrL7T9H6qCjKfxjGT99CMXhmwypyvi8yvdD0laMWfOpEXx3CO/yFoP6bdpTwq0+X8O2z3OawjJBnV8XNyxP7NX+qjEMV9DHav5X6iHmMfkTn8FNX/ylYHww6WN/u6wBO2dv4WMGQDZb3L7xhOfoG7hz9R9l/GbXUx9Q/GRR/BCX1ny7K+lP86ZKnPirK5D/G7VtT/ylaHxU5+48X46dv4Xy136XR0c8+PobD9iUMDjXktgsKuj51EdEhl2HVd1PgDDz6hWWTuc9bjofPl07yVBmkAvro9+9ipz7yd1O3u0OBzY0mjLNOE36SRRqW4dGGP1DgTWV4xTjY+eqpjzl26iOZ/RXmx1gw/+BOq8gH8/5bT33M/bOu8afc/kPH9/7qU5H4YwH11Kdg/wmQ++KJaMDmThO+PX/ouQkQ38OTuCCXcMK/p/hcNbTlDH3pPpObDt0FXuI+5zCxX9yHK291jpMVG/VpxOxfblqrj9gSHXdAbITqzshVH9UVr7rqEzzxEvWB/aAOduuDV7P4wSNou0Oe/qMqo7b6CP+J9U+KPy6l8h/F5zoNUvqPi9hfeeJP0fpUI/64iO+H2re2/iM3u+StT2/9p4CkRAbnRltR6YywjPPV4igflirCKWIPujlB+ughffSQPnpIHz2kjx7SRw/po4f00UP66Km7PoUkJUXRK6coK6SPHtJHD+mjh/TRQ/roIX30kD56SB89pI+esuhTqqSEIAiCIAiCIIjqYfz0LYIgCIIgCIIgiCKgpIQgCIIgCIIgiL5CSQlBEARBEARBEH0lVVKCTwfwLY9fEvBGn17Um/TRQ/roIX30kD56SB89pI8e0kcP6aOH9NFD+uhJkZQsw89TACfb5XvCwdbjP+EEJuFn30IweUP66CF99JA+ekgfPaSPHtJHD+mjh/TRQ/roIX3iSPz0Lczy1odacOexf1VfzKKWxuQGolxcRcDLmBpI8bxkdxEZ5W+DC8Ao6hBV/7xIp49YdGbat3KNanG+OKL1cTT3olo4qK76cMh/IvRx3w+i9DPr9EkWn6Kpqv84xNgXS/Tveb1KG38citOHQ/4T8Xv3/SBKP7NQn+LjT/gYoGoDO/XpxfE96EPq8m31Hy+8jITnzyblO+UK+qMPknCkZAbmGwPQ+d6W2w4zcHUYjRDL6ONr72IS1lVDPStPYL3BNJGbpqAYr9CpOpfq3+LCMGsN+PTcrcMdRaO23rShM3YDVuV2vqTX53DbU2/8/MsoLO08Ma5nrD7IlwPfPsIrmdZYH/IfjT5/w4anbP7aP2Pvn8E/gaBopz4J4lMEVfcfo/ihoerxp3B9yH80v6f4E6fv6lN2Ug/sRNPZB9NnfPEPeDQrvyCx1X+KPX5h0sM+88Sf398Nw5JCf1v16ZLq/NmgfCwXR3Bk/OH691wfgUhKMCA+Xeb/1TLbhOuDl/DpTfBgcgzPHvizqq0PLGgMNmDe1ylYtro4DCfbLTiX7xjzZkcI+kD929Wbo9B5t6NYcj/A0X/s96MwkWQIqnB9jqEVqPfW3nvmeMNwNRBUIonRx5ia6kP+k8R/WJCfG2UnmR9DV1Js1ccsPmmotP8wssaPSscfRsH6kP8k+T3FHz940slOVNstN4nd/QinMABXrsltB0v1KfT4xesFcPrBvbrf2mzBqUp/W/sXJ+35c1z5oj+58Uf4k9I/i9RHIpKS3ddwMrzAMs2/2CucXefF6tMFGDEJvApaR8GG9LIME2Ossb82YYfbIF6bSuHa8I2lmSM/zchtA3qkj5fVpUkY7LTh0FArvT6SMccG9lJl4Zw66kP+Y+Q/DjK4nuyphnDLoU9Squ4/idpfQdXjT7H6kP8k+j3FnwDHcNi+ZOeQzW6fam40YVwxklQWfQo9fnVRJG0W65Pl/FlPA66wpO38q9CwuXEXpi/OeFJ7/VZQh+L1kdO3MJNiWSZmmvsXML2GP2avYHZzbQgG4QL+jRXFuZLRcgVk2RIucf9SMWSfDwMwvTgEh2gDt0M9fJmOHuiDYEbJG+4vmPjA9qUYvk+NcyWBv8QNS0mGj/VUQB/yH2OatxqJDhjx9EifLnGfp6EC/lMkVYg/hUL+YwrFnzCtzYdwZxvgHtabve4B9jf/1fH09Eifoo5fRy34xE6kx2+69RVJW8KT60h6oE+u58+B8md/hBHxAfv/r3Bv6gL2Hr/myUc+GOojCd9Tsvub+DF77QHLbrwHjs/fjYbUuvMbuzfDOMNOxZwkOaJ23r12O6Ecvgxnego8nSH8CsxrLEQfiafsf26yfed20A5eSWBOsv0eOqrhORVV14f8JwH49JAB8E0ViMMWfSRxnyemKv5TIJWIP0VB/pMAij8q8EbmV78AvJR1fwl3mW2GSa0t+njKzvf4hSfFB3DqGam9x7znxPSku+/65Hv+HO1/LFn5ZRLO9xMms3npI/lB/nXxPgEkxRMixF3+eFON53crN1hWOgCAGdKafA9ZZNtzyfcRAue5sTp3sz0ODjMtBN5D/ENVHBTK8CkGheijYOvxAUzsLPDHr7VM65YEqRkfvvRl7jXUh/zHHN6X2f4jr9jYrY+pfomooP8UTsnjT66Q/5hD8UcBTv/DJ065ZbY2d2D+xX2R1PouCJTDf/I/fuHDErwn4fg0roAOHAv1yfH8WVm+E3/m7sL4xYG0VegQpnh9uiMlWFme2bAfnO+LTCY0fMaHwaKv3uATEITBgUwLKy2zI/FiWSt7Gx9p5t8HOgrWI+mwtZjn5idCVH5VSjXXUk+h+hiTVh8FXIdL+PZZbjvUUh/yH1PwhlzlDaYOFusTrx/5jx6KP3rIf/RQ/Ckk/nCbDam5/3ThJ/oliT85nT9H6y/iz+AgTtuSiRvXQXFTfpH6SLpP38L5as7j5KKffSxvqBpqyG0XNHgd56KldrgsyHpN3e4OFYk5g2FR+XxUXVBTUbg+y/Bow++oeFOT+ka1NCzDqu+mSTFMp5qXW099yH+MmP0V5vGKnOcpJkHs1Cf+82yU3X+Kpuzxp2jIf4yg+KOGn+wCjM95psKs3IZpxZOe7NSnB8ev2RnPNCF28r6ouKeFUdX+pS//GJ69PWN/3allUQ8aKFYfQeLFE3mD7jTh2/OHngbF99CJglzCie97DuL7wDImXwWdoR3VsI532MeDdwEuIbyz+Itq3+xg+OI+XHkbL0x60uij+lyR0abWpxEuXzl0Vld9yH9M9MGrHTy4hPzGoUz6IIE2rq3/sP8a2Jden7LHH/bfQvUh/zH5PcUfnT7Cdv3iiWXSJ+fjFzsxfoWJiAOuWaK6p8LW/uVDfN/8/NmsfH/8UY2o9EKfVEmJrHyjrQkOKZGOk2SlyiTEB7V8IH30kD56SB89pI8e0kcP6aOH9NFD+ughffSQPnpSJSVF0Sujywrpo4f00UP66CF99JA+ekgfPaSPHtJHD+mjpyr6WJWUEARBEARBEARRP8LrlBAEQRAEQRAEQfQQSkoIgiAIgiAIgugrlJQQBEEQBEEQBNFXlEkJPh0gvyX+ewfe6NOLepM+ekgfPaSPHtJHD+mjh/TRQ/roIX30kD56SB89cfookpJl+HkK4GS7fHfwbz3+E05gEn72LdSVN6SPHtJHD+mjh/TRQ/roIX30kD56SB89pI8e0kdPvD6hp29hFrM+1AotLINZ1NKY3EACC7Tw33UXXhH4Fk4ywl3kJfys5eACMKrFXaLrnxdp9eEEF/hRfUeLTh+TxZNs1SdqcR+1DdFE6WNevr3+Y9a+eqqsT9AGdXzQU1Z9wr6hsp//Vrs4VhxR+iA2xx8zffT2mVBt/ylOH4nB8dFmffhvC+pf/rIFqvMrm/Up0n/Kro/R+WMsZvo6Wqm+0x99/ARGSmZgvjEAne9tue0wA1eHUUSxTDy+9i4mYT04BIOrZHq+kyQhwcq+QkE7l9CR77lgo7LPPOX//m4YlhRDQK03beiM3YBVuZ0vGfTBhW3WGvDpufudOwmcTq8POjVzemCO7JS9fwbji3/Ao1n5BYmd+vwNG57PnPpjx/3HMHDp9TEv31b/MW3fKKqtj3l8iKLc+gAcbvvrt/dlFJZ2nrj1YPFnHa9QyfjDP89NH9vjT7w+cfbFUXX/KVYfhuHxsa79i2NwflVb/0FKq4/h+bUGY33RTxss55GbQfqljxd/UjLbhOuDl/DpTbAxj+HZA3/Wu/WBBdXBBswbnhTF8mZHNMiDFpzLt7rwerHs74ObXbU2W3Cq2v/Rf+z3ozCRZAgKA+LTZbmhIYM+qzdHWea+013SPzE6fbhTM0drt9wgvvsRTmEArlyT2w6W6uOHnWTOjbIg8zFwpUWDVp8gmvKt1CdB+0ZRZX2SxIcoSq5PKxBXtvbeswPPMFyV/oP1deOP8KdE8bvk8UevDyNR+yuotP8wCtbH+PhYy/6VAOpfeqzUJ4fzayN9lmFzcRhOtjXf6Ys+fvJ9+tbYAsvW/hKvBFke0jrSV1SN6qSsDd9YGjjy04zcNmD3NZwMO3U3v/pszjJMjLHG+NqEHUcf9tpM0PB6fY7hsH3JfLjZ1by50YRx5UiDjfoEkM57smc+hJjIf7Tl26hPkvZVU219ojBP2qqmz+rSJAx22nDID4YNuMKStvOvwsbmxl2YvjjjScP1W2b1rFr88euTsP0VVNt/itYnyfGxjv1LYnR+VeP+VWJ9smKiz+rTBRiJTfz7r48/Kbk2BINwAf/GCuVc6Wm5BjqZGn+JG2aSDD9pOWrBJybU+E03GxMHvYTiRYKZqqz7/gVMr0nHDmZ/WfRhAWp6cQgOHY0STr+Jo7X5EO5sA9yTnfIeYHv4s+/09EIfl+atRq4dNkj+5RevT7Ht66d0+hQeH/xYqw9esZL+MfGBleVMf5n9EUb4Fxizv8K9qQvYe/yaH3zyohTxJ0qfHlM6/+kJRR4fy9+/Cj2/qoL/VEof/flRKti+l4bfw8sEt1SYk5M+En9S8vm7f8gtgu78Yc/NKv5MjVVy+z10kgw/aUGjD+DUkwnfY815YtrpPc4QfnnmhSK7v3Wdew/Y/ryOnVYfGbQ67167B2k5vcH0SkoceKPUq18AXsq6v4S7zDbDoN5vfXzg0xkGwDcVJFdSlG+BPpnaNxFl1CdjfEiExfp4fvvPTVa297ccdrD7ZRLO9/NPZksRf2L16QVl9p+CyHp8rEH/ynR+VYP+VSV99OdHaXCmbaVMEnulj+QH+dcY8ZQAvCknxkCcm7Y2KaZP5JLt4c2C3kbCJw24Q6Yu/qFUDgplOM3F9wSQFE9AUOojteheTeHgMNlC4L204PA3PnHB3WeLiTP/4r4I6r4Oa6E+XlZu8Gkfe4Vk9IzY8m3UJ0n7ZqSU+iCm8SEjluvjsPX4ACZ2FvjjHVu7Mv7M3YXxiwNZF1HPfChP/HHw6yPf7AWl9B/5ZlEkOj7WsX8piDy/qnn/ciipPsbn10ngMWcAAEcw1uR7yCLbngva0H99/CMlfBpE9NUJvMNfCGZwJYBf/biEb5/lNgdPFDC7yuEKLxc6WD6D79d8rr0DOgPP/Jig5/si0wsNr6XWR8zT86MKWin18Q4fx2GlPi54w2P0De7Z/UdfPsNGfYzbt6b6qFDGh2rrE42IP4ODOK1EJm68nsGbDqsdf7JTV/8xJa0+psdHRh37lwpZvk3nP9mptz7xx7eU+mBSgfXtvg7glL2NjwQO2WCBPoEb3eUNi0MNue2Cgq3jXEmlYMuwyjI+FzGMmeu82dkZz1AXa5xFDO7hOXd8vq4u6KtYEfPtnMdZRj8/O60+8ndTt7tDXWLOe/yTCIzgjQ0wPucZKlu5DdOD4fLt1EfCsux5vOLqeYpSrhiUb6U+Cdo3E2XVBzGMD5mwVp9leLThD/R4UyNekRcHl2N49vaM/XWHznO90dL6+BOnT48orf8UjayXwfGxlv2L7d/0/Kqe/lN+fYzOj3pAf/TxE1o8EQXc3GnCt+cPPQd0fA9FDHIJJ/x7is9VQzcsKPOhHd1nctOhuwAOM/wVnmg44DOpQ3PumDO+uA9X3uqEyUoafcSWcDxngR//Z5ws+kjbvQv0hBfHsVsfzLa5cwdtd8ikj0H5Vutj0L511sckPtRKn/AVN3/8UY3IZdHHwD9t1seg/WvtPz3QJ/b4WNv+1QjvX1VGbf2n7PqoPkcCfSC1PlLfLmJ/YE189qNISmTnarQVjZoReeKgWkkyD+KDfj6QPnpIHz2kjx7SRw/po4f00UP66CF99JA+ekgfPXH6KJOSouiV0WWF9NFD+ughffSQPnpIHz2kjx7SRw/po4f00VMXfXqalBAEQRAEQRAEQQTJd0V3giAIgiAIgiCIhFBSQhAEQRAEQRBEX6GkhCAIgiAIgiCIvlKqpARv9Ilamj9P8OkAvdhP3pA+ekgfPaSPHtJHD+mjh/TRQ/roIX30kD56yqJPqZKSrcd/wglM8qX5i2MZfp4CONku3xMOSB89pI8e0kcP6aOH9NFD+ughffSQPnpIHz1l0Uc+fUssmuJd+Mq/uEvc56a4i8T4n7VsXj5mYetDLcXCifmgLj+Z/byMqYEUz5Ourj6OJl7UC/voIH30ROnjx9mX6ju26sMJLhClXCBLR7Q+pvrbqY9rVxCdH4Spqv8Ur4+jiZfy+A8S/k4ybZAY/zHov/bqE/QhRXyKpaz+48epq96GOunTf//hlLp/uXRHSg63xRLxzmvvyygs7TyBVcPP48DKvkJBO5fQke95MS2/9aYNnbEbxvtNxgzMNwag870tt12M7V95AusN5g9y05Ra6IOrbHu+k+SEm/TRE6dPlxj/tFYfXDhqrQGfnnu+lyAhMdLHQH879fkbNjyf8df+GXv/DP4JHrgiqLb/9Eif0voPTu1gJw3ATmKc7zB9xhf/gEez8gsxxOpj2H/t1AdPqphtnvb9/d0wLCWYolJ2/+kS1f/xfbxCLtuX61cjffruP6XuX35kUnIMrcCS71t775nxw3CVB6W4zw14syOFasG5fMslQflH/7Hfj8JEkiEobLCny3JDw2wTrg9ewqc3QWc3rR/LZBeH4WRbZWMMtdAnA6SPHq0+Dgb+aak+qzdHofNuB54FvmeMkT4GlMJ/2EFwbpQdxD+aX4mruP/4KUofA6zUZwauDrMTzXbLPYnZ/QinMABXrsntOGL0Me6/NurDfwdw+sG9+tvabMHpYAPmlf6loNT+4xDV/0V/cttX+BPURp/++0+p+1eAyHtKVpcmYbDThsMII+M+D9I6inJ0NdHlt+EbSxVHfpqR2wbsvoaT4QWWaf7FXuZXf3So6rf6dAFGUp441UEfGHP2kfyGK9JHj4k+Zv5poz7LMDHGgt3XJuw4+rDXZoLAauQ/Rvpb7D8O8uBwsmc+RF9t/wlQkD7l9Z9jOGxfsnPIZrfOzY0mjCcYSdLrk6T/lsB/upgnbVXwn+j+34Ar7KT7/KuwsblxF6YvznhSe/2WWT1rFZ+75OU/1epf/qQEMyJp0MQHzMoCwz9xn2elsPKP4dkDVh5mmvsXML0m9hHK/q4NwSBcwL9RjqSrH/tsafg9vEww5SYxZdbHyfT5S9xwtZ7wxDsW0ieaQv2zB/qwAD69OASHjkYJp5fEUqj+vdDHpXmrYXBATEjp/celEH1K7j+tzYdwZxvgnvz8HqA9See86yiy/xasz1ELPrETufGbbnkiaUt4cqfDdv/R9f/ZH2FE/hfva7g3dQF7j1/zk9/cKHP/6oX/lLl/BfAnJbu/yUb/H/xzk/042Ohxn2clbfkeY8OvwLw1zz72gGV/3n18/q4Z8mdE1s8Z1lSLnBul1SeY6TMn334PnSTDlyaQPhFk9M9+6yMPep13r92TJDm9xPRKXByZ9LfAf1zw6ScD4JuKk5mS+4+PIvQpv//wx4X+AvBSfv4S7rJ953RSk7X/9l0fPCk7gFPPlfp7zHtOcjzpttt/TPv/DDz6ZRLO9/NMZgXl7l8F+0/p+5efH+TfEFuPD2BiZ4E/PqylGMKN+zwr0eX7hwo5aKxpHbxPKEj89B4XX/3gBst6BwAwg1yTX0AW2fZc+n3oKJU+qn3j3Ea2Hz58GZVZZ4D08bCSxD9t1Edo0b0ax8Fh6IXAezkSqb/l/sPb+gz28hzRKL3/yDeRIvRRUSr/wekf+EQft6zW5g7Mv7gvTmp8J4QpkFqY9V9b/QcfluCd7sdO1HcC9cwTm/wnpv/feSDbd+4ujF8cyLqIehZG6eJzgf5Tif7lEnlPSTpQaOaoeV1hUcGzQvO5rg78ShDWjQl6vi+ytdDwER9mS3H1FRtVZoDixbJi9jY+ts2/j5rqo4LX8xK+fZbbHNKnS576GPsnw0p9xDxYP6qDXo7+o9SfYbn/4A2P0Tdw19V/XArRR0WZ/IfXyYS0+pj2X4bl/tOFn6gXePyyyX9i+r/TvoODOG1LnnjL+vtveqb43CVX/6lW/5JJyTI82vAXhDc1uTe6xX2eFfPy+XzgJE9NQVbEfEjncYeh5zt3kTf8DTXktkPR9sdRdn2WYZVlxC5imDe/ed2kT17YqY/83dTt7lCymJOretJHGsz1tzr+zP4K83jF2/OUl15TT31K7j/8ZAJgfM4znWLlNkxrn8SUBPP+a63/zM54ppqwk8dFTG5bqR5qE8Z2/4njGJ69xUdsu1N3zG70NqUC8blQ/6lA//IgF0/EDA2/5MW7uEnc5xJnaEc1rOMd9vEgFsBpmJWPzvjiPlx5qxMmK2hrE749f+hxGEP7u4jvA8soffWsrT6Kz3UakD456xM8sRD7C/mn5f0Ln9XuLqB1CSe+Mhh5+o+qDMv1watZ/OARqrek5v5TnD5V8B9RN+3iiRn9J7b/2qwPOzF7hSeSDrjmRHABusr6TxChV7D/+9s33P+qq0+//acC/cuDTEpyQgofCmY5EXtQyQneuI12/vshffSQPnpIHz2kjx7SRw/po4f00UP66CF99JA+nFyTkl4ZXVZIHz2kjx7SRw/po4f00UP66CF99JA+ekgfPaSPIN+REoIgCIIgCIIgiITk/PQtgiAIgiAIgiCIZFBSQhAEQRAEQRBEX6GkhCAIgiAIgiCIvmJVUoI3+kQtPZ8n+HSAXuwnb0gfPaSPHtJHD+mjh/TRQ/roIX30kD56SB89VdHHqqRk6/GfcAKTfOn54liGn6cATrbL94QD0kcP6aOH9NFD+ughffSQPnpIHz2kjx7SR09V9PE8fctg8aRY3EVS/L9VLZ4iCO4Ds7D1oVZ4YZmcUJcftj28uEvQhujFX6KJ0gcx078/+vjh35kaULedbvGkWHT6mOnfH32K9x+8CrI0JjcQxQJLJvr3Rx8/Tj3z9B8TffT+JairPmb69UsfO/qXvf5joo/Z8SWKcsefOH2CvuOSRCO9f5j5Z1X1qbb/SIILHEbEUBXVjj/J/Kc7UrL6lBUKTAi5lPyd/TMYX/wDHs3KL8SAlX2FO+5cQke+5/I3bDjlesrHigeXmW+9aUNn7EZ3ufx8mYH5xgB0vrfltsvhtr9+e19GYWnniawHis5sw1U45ee/vxuGpQRDWHp9zPXvlz5dVp7AeoP1GbnZBd/HDPq5R7/c9DHXv5r+MwNXh7GTe8q/mIR17+8N9a+m/8TrE9f/HOqpj4F/Serav2z3H70+WY/v5Y8/en3Mz0+iqPbxK6s+VfcfBqv/q7UGfJL15y/DhMREn3LHn2T+I5MSFIUdCNstV8Tdj3AKA3DlmtyO482O2NmDFpzLt6JhnXRuFODLx1AmDEf/sd+PwkSSISh0iKfLckPDbBOuD17CpzdiWX6XY2j5luMH2Np7zxp/GK5i0Oa/Y1ndBzc7bG224HSwAfOGSZtenwT690UfB5bxLg7DyXbQBtGenXc78IzrKOyBvPRJon8l/ecYnj3wX5XZ+sA6dff3CfSvpP/E6cMwjU+11MdAP4da9i+G1f4To4/0l/TH97LHnzh9ggh7lOcnUVT5+BUiqT7V95/Vm976J6Xq8SeI3n9kUnIMh+1LpkHTk5k1YTzBlYLWUbCiGqRxJ3tuJ3VpwzeWCo78NCO3Ddh9DSfDCyyT/Iu9zEd3dKwuTcJgpw2HWiczT9r0+iTRv3/6rD5dgBFlx2vAFRZ0z78KG5sbd2H64owf9K7fMqtnIv/potK/mv6jJ4n+1fSfOMz9q576mFPH/lUO//Hi1yf78V1POeKPF63/aM9P1NTq+JVCHz1l959lmBhjJ+tfm7DD9yFem0kSgxjKHX8CxPhPd/pWa/Mh3NkGuCcFvQeYmfmzt7xo3mpEVzgVmGmyLBIzyf0LmF6TjhHM/q4NwSBcwL9R+8WMUdo/8QGzUjn8dtSCT6yhx2+65YmgnrDxNRSrfw76MG2Wht/Dy01F55j9EUbkf3Fe5b2pC9h7/Jp3jlwoXP+y+Y9zpaElTmCL1r90/hPQp3Cqpk/e+pW8fxVOwfow8j2+lDD+IBp9vOR+flL241eA7PpU0X8GYHpxCA5xH3w/yW5/8FO9+OMlzn8895Swwn4BeClFfQl3WeH5ZE1+8O79AfANJcfhMTb88szrQ3Z/E+Ky1x6w7M87L/Hzd82QEsPz239usrK7v8VGO4DTMSebxKDegpPcOk1G/QvXx5lWonYyF9aZfpmE8/28k9mM+lfMf7rzw0M3s6XUv2L+E61PSmqmT2L9atO/UtJ3fdAmtp3T8b188Uei0cclxflJLGU/fnnJrk/l/EcmVZ13r916y+mRaUayqxh/XOL95wfxB4efAE733YNia3MH5l/cF6KmGpqMYOUG4LDxnuqKIMc/lMdBY02HmVmm3X0CQoKnHwTZenwAEzsL/PFqLb5vvFnH6yTsRGInUM/UJNG/D/rwNhsAwAx6Tb6HLLLtufcsI/4PzlmZI3N3YfziQNZF1DM/TPWvtv+Ip3TgTXGeeuE8UmP9q+0/Sn0SUW994vXrgz4Ketq/EmGjPvkd30sZfxSE/UcSe36SlrIfvyQZ9amm/8j6y88EOI1qIfBePNWMP/JNxMB/xEiJd/hMC3YkdqDMMIKCNwRpb5DidUk+1xUbk2d+TNDzfZGthYaP+DBqTvOwubiX8O2z3Oak1MdYf0Y/9EGnlhmweB3AKXsbH+eGZTjzGAcHcdhVBl5ez+BNUdn9p4tSf0aF/QefwCECVvBKkqn+jAr7T7Q+CaixPkb69UOfNOTavxJgoz68TiZUNP4kQH9+otcnESU9fmXRp7r+I+rvR5VU1TT+eIg9/2eIpITvDGB8zjPcsnIbppV32meAZWHzeMXG8xSKIHy+WUylQ6yI+djO4w6jn5stb/gbashth2V4tOEXGm869d0IODvjGYpizrWY45y/BPr3R584juHZ2zP21x3a097olAZD/avqPxiw1nGurTJgmetfVf/R62NOXfUx1a+e/cscK/XJ4fhe7vhj4D+IwflJasp+/EIy6FNt/5G/m7rdnQol7hnKq3+ZUwX/SbZ4ojO0oxrWcT6Tmw6dd3/CXTlUg9kYNz742y6iDlfe6oTJCgsIO0349vyhJyDgeyiil0DGyhruFQYSB3zmuJPVO2TSx0D/vukTROgFgfqJjqVZ/CiLPib6V9Z/VOUjl3DiqUes/pX1HwN9YvsfUld9DPTj1Lh/We0/BvrIuqU7vhvow7A3/pjoY3B+EqkPI84/yn78YqTXpx7+469/MHYysugT51+ckvuPxJOUGCA7VvhkOR9MK50V7jyNdv77IX30kD56SB89pI8e0kcP6aOH9NFD+ughffSQPkYkSkp6ZXRZIX30kD56SB89pI8e0kcP6aOH9NFD+ughffSQPmYkGykhCIIgCIIgCILIme46JQRBEARBEARBEP2AkhKCIAiCIAiCIPoKJSUEQRAEQRAEQfSVniYleKOPeun5fMGnA/RiP3lD+ughffSQPnpIHz2kjx7SRw/po4f00UP66KmLPj1NSrYe/wknMMmXni+OZfh5CuBku3xPOCB99JA+ekgfPaSPHtJHD+mjh/TRQ/roIX301EUf46dvYZa2NCY3kMACMHGfO2AWtj7UUiwclA/q8sMLRykX5wkuUBNhgwq9/Yb7Z9iqD/9dd2EggX/hHj2m/oE4+1I9z9tWfbzo6h8F+Y+equvjxdEqP//xoyvfTn2S6aei6v6TpP1VxP3etPy66iNwF5GL6ru26iOIr38UJvrwunWPAeXqX4hJ/aMg/zHHcKRkBq4OYyXEMvT42ruYhPXuEE/c5y6tN23ojN3oLsefLzMw3xiAzve23HY53Hbrxuv3ZRSWdp649cCFbdYa8Om553vGQSve/tj9S6zVB8FVaD3fMT2hTOIf2A7rDdZn5WYQq/VBYuqvhvxHT030QQryny4l7V/G+impuv8kaH8lcb83L7+e+oiTuVd4Qta51PZdW/uXaf3VGOiLcQevwMvzK77/0vgPw7D+ash/kmCYlBzDswf+rGjrwxnAYAPmZ3Er7nMPR//BOYzCRJIhKOYQr54uyw0Ns024PngJn94ET3aOoeVd7p+xtfeeiTcMV2X9Vm+OQufdjmfp/CTE6xO3/y6W6pMNU/9gmfbiMJxst5gGEVitj0H9lZD/6KmLPkX5j0NZ+1dW/6q6/5i2fxTx+hiXX0t9GG92xAnbg5i+a2v8Ma2/kjh9ZuDRnPf8Ck/S2Z/S+E+C+ish/0lCH56+1YZvLJUa+WlGbhuw+xpOhhdYJvYXe/0Bj4wcQc/q0iQMdtpwyMVehokx1hhfm7DD9yFem0kaPiH+/XuxUR/JmLMP9jK+SmDO6tMFGIlNDO3Vx6z++UD+o6eM+hTtP2XvX17iPs9KGf3HDuqpT+soeCIXhZ36mNc/DQ24Mghw/lXso7lxF6YvzuAUBuD6raAONuqTpP7pIP9xSZmUiMwRvrQiDnBxnycFM00xbHRn/wKm11Bc9gpmf9eGYBAu4N+ofWLGyBvmL5j4gFmdd3rWAEwvDsEh7oPv5wzGF9M2YIT92v1noQf6OJkwf4kbrsyHv4Mo9GH7Xhp+Dy+Np/QkoQf65Fp/8h89FdSnaP/JtfwgvYjPjNzat4L+4yPCPmPifp+1/CBV0ydveq1PVgL6zP4II+ID9v9f4d7UBew9fs1PrvOhYH1yrz/5j45UScnq0/swDe/h94ibbeI+D+ExNvzyzOtDdn8T4rLXHrDsz3ti8/m7f0gpiOe3/9xkZTu/lU7XeffaHWLb/Zg6E460P2r/cfRbH4Y/E2ZOvv0eOsbDl37C+jjTSlI6ed/1yVj/AOQ/eqqnT9H+U/b+JUnbvgGq2L+8RNpnSNzvE5dfM30SY5k+WYnWh52M/zIJ5/v+qUyxWKNPyvoHIP/R84P8a4x4igDetKM+wMV9HhwK46Cxpnfqe5+QlfAJGl62Hh/AxM4Cf7xaa/c/OGdldrNhDg6TLQTeiyfefoF///JNjo36yDe94NxGtp8r1/D/4i0TlPqs3IBxlgACZvBr8j1kkW3PBW2wUB9IUn895D96KqlP0f5T9v6l2Hesf0VQ9f5lal8Ucb+PL7/e+sRTkvicEqU+MtaPzN2F8YsDaavQIYyN+iSpvx7yn3gCIyXLsMmzK/W0JbzDXgiqzhTjPufwUYkz+CehIdiYPPNjgp7vi2wtNHx01IJPnTSjG2Kenh+V02XTxwgr9VHA63kJ3z7LbU5KfbBTyQxcvA7glL2Nj5UL2WCjPsb1J//pkqf/JKGO/lP2/mVMvftXvH3Z9DHSr8b6GFHL/iXOrwYHcdqTHB3gOihuqrZSH9P6k//o0evjYDx9CwVdx7l0EYLGfe7QvNWAwS8fkzXKipgP/TsKyV7Rzz8+hsP2JQwONeS2wzI82vALjTd9jncbV/5u6nZ3qKu50WSfq55EoEZvf9z+XezUZxlWWUbsIoYxk9xIaOofcdipT3bIf/RUW5/sVLt/Zdev6v6Ttf3jfm9afl31MaWe8ecYnr09Y3/dqUFRDyKwUx/z+kdB/mOOf/FEZ2gnNKyDGQ5WIsglnDx/CM+O4j6Xm3gy8uI+XHmrEyYrWJcmfPPtV1W/cMYqHMdZHCdYd0au+qgyZlv1UXyuGvpLrY/c7CK+Dyyj9+tgt/+4RNSf/MclV/8puz5BxPfz8x+52SWi/DL5j0o/6l8BAu2fqz5I0L/qqg/7r/Nb8UEX/wKxFscfk/pn0YfhP78qU/8SxNaf/Cel//jxJyUso3q1OJppNUYdOITEMzZNhfKAO0+jnf9+SB89pI8e0kcP6aOH9NFD+ughffSQPnpIHz2kjx5DfXxJSa+MLiukjx7SRw/po4f00UP66CF99JA+ekgfPaSPHtJHj6k+/pESgiAIgiAIgiCIHtOHFd0JgiAIgiAIgiBcKCkhCIIgCIIgCKKvUFJCEARBEARBEERfyTUpwRtZilp63gs+HaAX+8kb0kcP6aOH9NFD+ughffSQPnpIHz2kjx7SRw/pI8g1Kdl6/CecwCRfer44luHnKYCT7fI94YD00UP66CF99JA+ekgfPaSPHtJHD+mjh/TRQ/oIuk/fwixtaYy/JwgscBL3uQNmYetDLbjjLMefM+ryxaIy076VW/yLu5jWPwr97+P371BPffzwOk4NKJ9XXVd9HE28+BdOEtRVH05wgSbFd+zUxzw+RKHXJ2pxLgj1MVv9xwsvIyI+RFFt/3E18aKKD1FUPf4UrQ+nxP7DMah/FFWPP8X7T7gOZTr/8eJolXt8lsiRkhm4OoyVEMvQ42vvYhLWu0M8cZ+7tN60oTN2A1bldr7MwHxjADrf23Lb5XDbrRuv35dRWNp5IuthXn818b/X79+lrvp0WXkC6w3mk3IzSK31+XLQ/RxfqoBYW31w4aW1Bnx67n7njiKo2amPeXxQE6fP37Dh+Yy/9s/Y+2fwT+CgYas+XWLig5rq+w/HID6oqXr8kRSpT9n9x7D+amoSfwr0n9Wn7KQf2Im48x2mz/jiH/BoVn5BUtv47EEmJcfw7IE/K9r6wJxqsAHzXLS4zz0c/QfnMAoTSYagsMM8XZYbGmabcH3wEj69CTrLMbS6S+ILtvbeM+GG4WrS+iuJ10e/fw+11MdhGTYXh+Fku8U0iKDW+hhQU31Wb45C590OPAvUI4Sl+hjHByVJ9Z2BR3Oj7CD70fcbjpX6OBjEByVV95+sVD3+ZKX6/mNcfyV1iT9pidMHT8rZiXy75SaBux/hFAbgyjW57VDT+OylgKdvteEbS6NGfpqR2wbsvoaT4QV4tfMXe4WzxzSsLk3CYKcNh6k6YXai919ffVafLsBIbGCssf+MOTbobniroz7LMDHGgunXJuw4+rDXpjJwl0OfQvWTB5+TPdUUAHv1MYsPaaiI/xjFhwyUPf4Upk/Z/SdJ/XOgpPGnOP85hsP2JTsHb3bLbG40YVwxklTP+OwnIilxMt1WRAXiPk8KZlJyaGf/AqbXpGMEs79rQzAIF/Bv1D4xY5RONfGBlRU5PJm1/hG/N95/UiqgD9v30vB7eGk8JJqECujzZqc7tHnnrrjhLWp4MzlV6F8DML04BIeORhHD3+nokT7G+sWh17d5qxE+4GaiB/qwz/KLDxX0n1zjQwXjT9H6lD7+5Fn/Csafgv2ntfkQ7mwD3JP7vwe4P//oQXqqEJ9dlElJd/5bxM02cZ+H8BgbfgXmre3+1nWOPWDZn9cxPn/XD7l5fvvPTVZ2hFMlrn+AyN8b7j9E5fVxhv28QTIBNfCf1pG3s7Mgs/0eOqbTK6quz+yPMML+dN69doO4HP6+fsvgipIt+hjqF4deX3y6ygD4pgrE0Xd9MsaHAFX0n0zxIUAV40+h+pTdf7LWP0D14k/x/Qtv9H71C8BLuf+XcJfZZpgUVj0+B/hB/u0i7pLHm1LUFYj7HKABVwYBzr96GhmNNbxL3/eEiARPhwiy9fgAJnYW+OPVWp59x9dfj+nvo/ZfS31WbsA4C4CAGfyafA9ZZNtzQRvIfzg4t5TZweec+q4m1FAfqQUeWF1wmHsh8B5itz4OcZ9HEasv72vs88grWhbqA0nig566+E90fNBT9fjTJU99Su8/Seqvp5Lxp/D+hdPn8Glb7nutzR2Yf3FfJIW+hKiG8TmAb6QEH/UlfqAeVor7nMOzctVcOT1YWZ75MUHP90W25h9+ZBy14FMnXXaPxNefZYQ8+1RnsEb2x1FHfbBTyQxcvA7glL2Nj5QL2UD+I+A6XMK3z3LboZb6iHm2fkTwDmGxPvFk9x+8oVV5g6mDjfoYxwfyny7K+FDv+OMjV33K7j+m9a9p/FGRp//wsgyxUZ/C47OfblKCP1ifuoj8QdznDnw+oc4pVayI+WrO49Kin30sbxgaashth2V4tOEXGm/K8d5IZFr/KPS/j9+/Qz31Maeu/rO6Iv/LmYFHv0wq5+XWUx9Zr6nb3aFqcaNg+EkidupjHh+iMNJ39leYxytyH9TD4oit/pOVqvuPaXyIotrxp2h9yu4/5vWPotrxp2D/4ckAwPicZyrVym2YVjwJq57x2Y9cPBEzHKxEkEs4ef4Qnh3FfS43sTFf3Icrb3XCZAXr0oRvvv2q6ufNyAzr7wx9hYa90uijygjrqo/c7CK+DyzT9utA/tNFOfRab/8Rgc1Z4ErlW2XSRxEfMuqDV8v4wSnkNw626hNEfD8UH8h/XFTxgeKPS676iK3y+o8gtv61jT+Kz3P3H2G7fvFEu/3HRXw/7/js0F3RPQ/inTIfeOdqtPPfD8s4Xy2OKpwlH0gfPaSPHtJHD+mjh/TRQ/roIX30kD56SB89pI8g16Sk7PTKKcoK6aOH9NFD+ughffSQPnpIHz2kjx7SRw/poycvfSgpIQiCIAiCIAiirxSwojtBEARBEARBEIQ5lJQQBEEQBEEQBNFXKCkhCIIgCIIgCKKvJEpK8EYW37L1BYFPB+jFfvKG9NFD+ughffSQPnpIHz2kjx7SRw/po4f00UP6mJEoKdl6/CecwCRfer44luHnKYCT7fI94YD00UP66CF99JA+ekgfPaSPHtJHD+mjh/TRQ/qYEbN4YniBF8zC1odacOdx9KqdWVCXH154xr+4S9zn8WAWuzQmN5DQAjAmi9/Yqo+JfXr0vy+7/xStD0L+o/990IfU/ddWfQSuDUmf1V4Hffhvu4u3qeuvJr/yq6lP2f0nv/pHEV9+uI3sic/51T8K8h8dZY8/dujj3YfON+VIyd+wIZeo7772z9j74WXmW2/a0Bm7AatyO19mYL4xAJ3vbbntcrjtr9/el1FY2nnSrUfc53pm4Oowiuj5/cUkrHuGwFafMtGBNaTzHabP+OIf8GhWfkFipz7x9umJ+33Z/adofch/9L/HoMaC1ZeD7ue/vxuGJUX5tsYfPBi8woDbuYSOfM+c6uuDC2ut4xW8557Pjf0nv/KrqU/Z/Se/+quJj192x+f86q+G/CeOcsef/uuT5PgYMX2LVXJuFODLx3CmdPQfnMMoTCQZgsKVHp8uyw0Ns024PngJn94cyzccjqEVWIp+a+89M24YrvJOF/d5HMfw7IE/q9v6wE6qBxswz3+PjcqSy3bLzSx3P8IpDMCVa3LbwVJ99PbFkfT35fOfYvUh/9H+ntcL4PSDe3WntdmCU1X5VurDeLMjAvKDFqtfUqquj4gHnXc78Ix/T/SHJP6TW/kV1afs/pNb/ZXExS/743Nu9VdC/qOn/PGnv/owEhwf1UmJNO5kz62kSxu+sVRn5KcZuW3A7ms4GV5gmdJf7GWavetZXZqEwU4bDgNiOMR9noxjOGxfsjZsdjPH5kYTxhUjAWXRp1Aq4D/5Qv6TDtVB1U59WkfBA0EvKIs+DbjCDnrnX4VGzY27MH1xxk+art9KUE8P6cuvhz5m2Os/ZpiedMdRvvjsJ0n986S+/lP2+GNGXvokOz4qk5LmrYavwOxgpiaHdvYvYHoNxWWvYPZ3bQgG4QL+jdovZoy8Yf6CiQ+YdXnnxDHiPjfGudLfkpkvZo4P4c42wD1Z/j3AzM+ffaanR/p0CduXDP3vS+s/XfLXh/zHS+D3Ry34xAL1+E23vuKgmjB4R9JrfbJSMX1mf4QR/gXG7K9wb+oC9h6/5gfnRBRdfiQl0adLSf2nS9H1D8evUsTnLkXXn/xHSdnjT5ce65MQeaO7F3Ezysi7P+Hupiq7YQa9uA/X257PsTKLzEglOJdN3Tn4zTfDnhtuWIPurDXg0/OH3c4WRei3AeI+16H6bfA9cVMTziEM1tV+fbJog+h/X37/KUKf4HvkP8Hf+2+067w7gE+NBb8OHNv1EXZAwhvdvVROH/67STjf/xO+zd2HK29RG0U9E5C+/OrrE6oXpzz+k63+8ajKD75nc3zOVv94VOWT//jx7SNR/62hPvI9gdiP7vj4g/zrsnKDVYwJEVkR/1AVZ/c3uGN6AJYNyIpglqsqbcbW4wOYYMbh49Vain3HfR4FF3MMHcHfYBNjAKf77nutzR2YR+fC4Tnf0JTd+qjtMyf29yX3n2L0If9xiP49PizBO90Pg1dAB0454k9aqqnPf3DOyhyZuwvjFweyLqKeaUlffrX1Kbv/ZK+/HnX55YnP2euvh/zHjLLGn/7oI980JDR9a/Umy9hUNyg78KGq5HMVUQw+tMMEPWdZEh+KCgrKh5GKnEeLQmM91PPy8OqCaLBAZuodnovDYn0i7euSUh8PZfafwvQh/+GY+E8XntxewrfPctvBYn3iqas+Yh714CBOa5AHPl7P4E2Zen2iMS2fUWF9yu4/2etf7ficvf7kP11S+E805Yg//dMnGf6khGVh85hxe+7CD8LvF9CddKpYeSKGclBI9oqe1iBv2BpqyG2HZXi04Rd69SkONTmNG/d5PNhg6zgXUNVgvLEBxuc8j0hbuQ3Tiicd2KlPjH0GGP2+tP5TsD7kP/G/n51xtWH12cThbM+caQdb9clKtfU5hmdvz9hf92kswRsh9eRXfjX1Kbv/5Ff/KLTlWx+f86t/FOQ/Osoef/qtTzJ895RgNsaND2ZgXcR8ODFnTr6VO0yQnSZ8882Lw/fQSC/ejC/uc4kz9BUa9lL9Hrn0zMkUtusXJyqTPojXPkYmfarmP0ie+pD/aH/PAq9vXi0+Mz2wAJS9+jAc2+WmQ8d7b1Wd9WGIA6NmcbFE+qQov1b6IGX2HyRh/bPoI20vT3xGEtaf/Ee8jWT2n7LHH6SH+ji/lZsOvuOjRHGjezTxJ535wBu30c5/P1J43WqSWSB99JA+ekgfPaSPHtJHD+mjh/TRQ/roIX30kD5mJEpKyk6vnKKskD56SB89pI8e0kcP6aOH9NFD+ughffSQPnp6pU+tkhKCIAiCIAiCIOxDvaI7QRAEQRAEQRBEj6CkhCAIgiAIgiCIvkJJCUEQBEEQBEEQfcWXlOCNLK9eeJ51XRD4dIBe7CdvSB89pI8e0kcP6aOH9NFD+ughffSQPnpIHz2kjx5TfXxJydbjP+EEJvnS8MWxDD9PAZxsl+8JB6SPHtJHD+mjh/TRQ/roIX30kD56SB89pI8e0kePqT6hp29hFrY+1FIsjJMP6vLDC/+kW5wmivjyMYtbGpMbSGiBGIHN+qDDOovYJHuWdH7l26qPafuqqbr/mLZ/FNX3Hy+8DBaHzPuYWflOuQL1/m3Vx193gWphLDU18Z/gAmLGMSi+/HLHH9XiawKzPlZ1fZDwd/KLPyb7F9irT9CH1PVXU3Z9/PDvKI5PzvsCe/UJ3VPSetOGztgNWJXb+TID840B6Hxvy22Xw22xhL7z2vsyCks7T9x6rDxhgrIM8bnn8wRDWPryZ+DqMIro+fxiEtYV5duqDzb2K+yUnUvoyPeSkFf5dupj3r5RVN1/4j6Po9r+4wHjUIOd08hNU2LLN4xvVuuDqwB7vmOWkAgq7z+48NhaAz7J9uUv44siceWXPf78DRuez/hr/4y9fwb/GJ10V10fTKrYSR+wRMr5DtNnfPEPeDQrvxBDXPlxnzvYqQ+eFLPY4Ik/v78bzvH80H59ukQdnwo9f85Xn/CN7kf/wTmMwkSSISgMuE+X5YaG2SZcH7yET2+CB6tjaHWXxBds7b1nwg7DVd7pmNPNjULn3Y5cOh+DDPsz2IB5o04ZV/4xPHvgz+q2PrCgqCrfSn0Yb3aEQzxosfolJcfyrdQnQfsqqbr/GLS/lqr7j8MybC4Ow8l20j4WV36C+Ga1Pmmpvv+s3vS2b1Liyq/A8cuH6A/w5WPoSquaqusj4kGn3XKT2N2PcAoDcOWa3NYSr49x+9ioD/8dwOkH9+p7a7MFpzke3+3WxyHq+FT8+XOe+iievtWGbyzNGvlpRm4bsPsaToYX4NXOX+xlnr3rWF2ahMFOGw65sQ24wpzu/KtojObGXZi+OOOd8vqtBPX04C8/CTbqwzrhUZSjpiN9+XbqkzdV858gWfWrov+sPl2AkdQnln785SeJbxb7z5izD/ZKcBVORbX8ZxkmxtjJxNcm7Dj6sNdmkhOXAEr9jShB/JEnXyd76afAVEufYzhsX7JzyGa3TzU3mjCeYCQpSJw+0Z+XwH+6mCZtYcqoT/Txqffnz1n0+UH+zQheiZAHDcz61pi4a+z/OJzmnTt2bQgG4QL+jTCE/3ZxlP8X58PdcTrc7I8wwv7w7G/2V7g3dQF7d1/D1Rf3+fvGRJUfwrlSc5DLCUjh+uRF0eVH0mt9UrZv0eVH0iN9jO2LIOvvU9MDfdhnS8Pv4ffHuJ+GeC8pUeXnFd8i6YE+OJLRna7F/J/VHafHQIIpStryC6UX/WsApheH+BQifsWef5edgHx+aB4jjPUp9/GreathcMKpoML6tDYfQgvvSWInrutsG+/XunPX6W+GxOljrF9SCtbnqAWffpmE6Zs42iDKE0kb04mf/BrqVGZ92O8ij0+9On/OSZ/Qje7OAeV623OTomdnYXCupn9o1IHfXIZCOQcmfqMfzquND8S+3/LfTcL5/p/wbe4+XHmLN/Ao6pmAUN086D6zUh/5nkDc8AXMKcxuglOTvnzb9dF/Zkr68u3XB8mqUfTvy+g/WOcmfOv+Lnsf85WfKL6Vw3+SlKUiuvwS+o9sX/Dd+C/sGDF+GIAfnf76trHdf7Lp4lA1fYLb/IZhfo9A3v1LEP25rf4j/Ma50b3z7gA+NRb89UxAufRB2zXHJxl/enX+jCTSJ4BipMQ/1MPZ/c0865ECsCKYZ0RXOo6txwcwwYTFx4e1dv+Dc1bmyNxdGL9g2SOvi6hnWvzlyzcZXMwxdJSoetuoj3wzR9KXb7c+8e1rRtX9J6t/Vcp/4AY72A0AOFewHBbZ9ly6ffj1SRLfShJ/cO4w2w+fPpHipKlS/uO0r/xMgNMY2Mm33EpKlD6ljz8r2NdY/VOcKHmplj44/Q+vPrtltTZ3YB5P7nD6TYqp25H6S6I/t9V/8GEJnlEFfmIeqGcCSqUP7zPRx6c7D3p3/uyQSJ8A4XtK+FBP8rmK2Nn5nDhm/DnL0MRNiQFBcZitk2Yem5iHNjh4AXvOcBavZ/CmH3RErEe6eXl49UEELHXmyrFSH1Oy6WOExfrEty/5j56a+g8eVLC87usATtnbfIjat4+0+pjGN0ZZ/EfW/9tnuc2pa/wR7etHdVJA8QcfCBB9g3tN9eF1MqGu/UsBP1GvSfyJOT716vzZCAN9QkkJn89p/NQLyYqczyZFiZ7SIG/YGgrOyV6GRxt+ofGmHfdGrmN49vaM/XXv5je70ckhrnwRsNb5XDtNwGLYqU9W8ivfVn1M21dN1f0na/tX33+yEVe+eXyz1X9WV/jbkhl49Eu+8dkUO/WRv5u63X0UppjzrnuSjpd4fSpx/Jr9FeZxRMDzFCUzKq4PPxkFGJ/zPDxi5TZMa5/E5CVOH8P2YVjrP7MzngdrsJNrnC71pWU4ta3s+sRR9PlzvvoE7ikR873EnDP5Vu5gNuad/4bge2iEl/AVDRFYNIu/OENfoWGvuPJVnyOXgTmbFuvjHfbz4FvALLU+DJPyrdVH9TkSaN/a+k/c55La+k8Q8f3QfQ1Z9GHExrcy+U9IA0bN/cffvsHYwEitj+pzpETHLwZeLeYnZ0G/cai1PqJu3gXq8Ep4PvHHZP+IxfqwE3vffRvBm8SRyuoTRNQ3eHzq7flzen18SUlsUMgJLk6jnf9+pGOGOmtOkD56SB89pI8e0kcP6aOH9NFD+ughffSQPnpIHz2m+iievlVeeuUUZYX00UP66CF99JA+ekgfPaSPHtJHD+mjh/TRY4s+lUpKCIIgCIIgCIIoH4oV3QmCIAiCIAiCIHoHJSUEQRAEQRAEQfQVSkoIgiAIgiAIgugrhSQl+HSAVy88z9QuCXijTy/qTfroIX30kD56SB89pI8e0kcP6aOH9NFD+uipuz4FJCXL8PMUwMl2+Z5wsPX4TziBSb40fnGQPnpIHz2kjx7SRw/po4f00UP66CF99JA+ekif3J++hVne+lArsHBNeOGf8OIqwQVYVIuvRGFSvguv49SA8nnM6vrnh636OJp48S9MJrBXn/B3zJ+3XXX/US1uJDDTKK58c/3qqY+f8vkPEv5Onv3L0cQLxZ+A/ziLm8lN1QKVdupTfP8qv/8wDNpXjWH5EkerMsUfp85eVO2rJq58c/1s1ceLo1We8QdHQZbG5AYS4Zt56JNzUiKMu94OOssMNGePoeVZgVIY6RguRblwV+HkxhkvEBNXvgdcIGZuGDqDA3CuajQeGIbgMKLBs2GvPsbOZKU+ctv7jG2+ENBweNVkJVX3HwVcH4j+3Ee8fxrvv5b6eCip//DtAvsXxZ8Y/zEtr6b9q+z+k8xfgiTQH/dTwvhj3L5K4spPoJ/t/SuufZXE6/PoxW3494G7L/65ak2THPQxm76Fhj5dlhsaZptwffASPr3xCor4DUa29t5DB4bh6izb4L8DOP3gOlxrswWngw2Yx89jiSm/yzJsYsffbsG5fCfE0X/ss1GYSDIEVRl9DLBRH9Zprg6z5L3dcjvI7kc4hQG4ck1ua6m4/4RgQWZuFODLR8PAEVd+gv3XUh+HsvpPr/qXATXVZ/XmKHTe7cSfsNa6fxlgqT7G7avEVJ+qHL+SEld+gv1brY9B+yqJ1+eZJyFBtj6cAajOP9PoE8AsKdl9DSfDC/Bq5y/2+gMeBSuSgtWlSRjstOEwIIYf06AeRlX+6tMFGInt+G341gEY+WlGbhtQEX1gzLFBd8OSjfocw2H7kvWRZrfOzY0mjMMZ/GN0pSBMpf1HBr+TvTRXnQRx/hn9eX31Ka//9KZ/Ufxx8Ze/DBNj7GTlaxN2HH3Ya1N54K9x/Cmt/yRpXzNU+pT++GXUvmZo/ZMR/bm9+pi1rxlx+kSTQp8AP8i/MWCmJLM3zPrWmLhr7P9f3OlEnGtDMAgX8G+UIfjbxVH+X5zvdscJ2Ect+PTLJEzfxGxSlCeCOkCHGxfMHCOIKh9hn/HhpsdYVkO8lxsV0OfNDtzpDhmKYcR11vHBaHpYHAXrw2htPoQWDh2yjr/OtnG+6Z27hro46PRhn5XWfwI0bzXSBZy48g33n5wK6MM+K7P/FN6/KP7o9YEBmF4cgr27/xNXLPl32QnO5zTTfYJUoH+V3H9yaV9d+eyzUh+/8mhfXflI3Oep6YE+7LPM7WtsvzPSeZBLAhRE3FPiqUwYxbw1SWheGZ9P1oBPBvMiw3PSln03w3XeHcCnxoJifp0Z/vKx7CZ869ZL7AuY8OE5d8LhffutvD4KIutqpz7BbT4HFZ9iYVCWCn95VfAfB1H3EeObBNVEly+I/ryO+pTff4Lb+fYvBRR/3PJ4vSYBfD4Z5acUfzhl8p9E7WuGv27ljz8hEpSlIq786M9t1CdJ+5qh00evXXZ9xEjJ7m/mWaHsQPxGfeOnQ4TZenwAE0w4fHxYi+/7b9i468kaubAA51+Td0jEVz7cYCfzAwBOhuqwyLbngjY04Aozzrffquujsg3nBjI7+PQwXwexUR8c/sbs3i2rxcSZx85xa4bVP7lG1fMfyQrawgJBigOdlzj/if68hvqU3n8K7l8q2yj+eMoXWozIzwQ4TYKdtMotF4o/nFL5T5L2NcNXfpWOXw6R7WtGXPnRn1uoT6L2NSPKfp6Q8Bvgo8rMqA/DeJ0SrAyfE8cExbv679xlr6CxOM2oMyACcVZ48LqEb5/lNgdPxLEeCefloShY3+7rAE7Z23yIKmjD7I8sECSfC1xqfVRwHYLlM2zUh9fJBPIfvKEy+gbTHP0nijrqU3b/Kbp/qeD7pPgjEPO0/YiDfwgb9fHQs/hTJv8xbt+axh8VyvbN0X+isFEf4/bNpg+O/iqf+OUlpT5ejJ++xYdrpNHRQ0Lyhr+h4Jy2ZXi04Rcab8rx3Qg4O+O5cYmJh8M9X1qGQ3MG5RvC57saPxVEUnp9lmGVZcQuM/DoF5bNK+b9WqkP78wA43Oem99WbsO08kkWKmrgP8jsrzCPV3Q9T3EzI95/TPWrpz7m1LN/UfzR6yPrNXUbVvmnTAd+T2G4/LrGn1L7T4L2VWOovwF26mPevmriyzfVz+r+lZr48sV01At9QsJIpU+A3BdPRAP989sQfA+N9BLIuFjD+eadBW8CQpyhr9Cwl0H5PsT3w3PuxHy4K291jpMVG/VRfK4cWrRYH1k37wJAeKXAV886+w8Dr9bw4BhqV0me/qPUr676BBHfL5f/FNm/FJ9T/An5jzgxGJBbl4r7VeravxSfl85/DNq3tvFH8bmqffP0H6V+dvuPi/h+qH1z1QcJ+mg++hSQlMjOZbywXwLkiXko2OdEbNDMCdJHD+mjh/TRQ/roIX30kD56SB89pI8e0kdP3fUpJCkpil45RVkhffSQPnpIHz2kjx7SRw/po4f00UP66CF99JRFn1IlJQRBEARBEARBVA/jp28RBEEQBEEQBEEUASUlBEEQBEEQBEH0FUpKCIIgCIIgCILoK6mSEnw6wKsXnmeylwS80acX9SZ99JA+ekgfPaSPHtJHD+mjh/TRQ/roIX30kD56UiQly/DzFMDJdvmecLD1+E84gUm+dH5xkD56SB89pI8e0kcP6aOH9NFD+ughffSQPnpInzgSP30Ls7z1oVZg4T6xaIp34Sjd4i68jKmBBM9LjivffP/q+udHOn2S6RcmP/3t1Edk6UtjcgNRLo4VRX7626qPwF3kKNmzyPPT32Z9+G+7i5Op21dNPfynOH38OPuxJ/6Y+HdwAbE89bHdf0z0CduQ3/Hd9vgTV7+oxedMNTL1j/j4X2d9eN1i4pud+kicxQ/lZlQfUBFfvll8K1ofJOFIyQzMNwag870tt10Ot8US+s5r78soLO08gVX5eZeVJ7DeYJrITVPiyjfdf+tNGzpjN8L1yoX0+hjrF0Fe+tupzwxcHcZO4vn8YhLWEwwl5qW/rf6DweIVBpXOZeK+heSlv636cL/HK1TPPZ+T//RMny5Wxp84/8aTHta3vhx0P//93XCN/Ce+/68+ZSeFwE50nO/sn8H44h/waFZ+IQa9/bbHn7j6/Q0bns/4i+mDJ37/GCVt8f5hGv/rqo9pfLO1f2H9X6014JOsP38ZJiTx5ZvHt2L1EYikBA1+usz/q2W2CdcHL+HTm2P5hsMxtLpLzQu29t6zzjEMV31BiWVji8Nwst2Cc/mOGXHlm+6fcfQf2/coTCQZgipcnwT1V5Kj/pbq8+yBP2vf+sCC1mAD5nPRJ4H+VurDeLMjA1XSvoXkqL+V+rCgOzcKnXc78Ix/D4M0+0P+0yN9HOyNP1r/5r8DOP3gXh1sbbbgtEb+o+//wl867ZZ7krT7EU5hAK5ck9ta4vWxPf4kOz6J/gZfPvp+E42Bf5jG/1rqkyC+WarP6k1v/ZMSU36S+FakPhKRlOy+hpPhBZZp/8Ve5lc3dKwuTcJgpw2HHhFXny7ASGph/ajK9xL9eRu+dQBGfpqR2wb0SB8vcZ/HkV7/cuiTlfT626lP6ygY6LKRXn8b9WnAFRZ0z78KjZobd2H64oyfNF2/laCeHqrlP73Rp0zxxwzTk+4wZfcfP8dw2L5k5zjN7pXV5kYTxhNc6Q4Sp080JfAfeXJ6spd+CkxQH/P4X0d9ksQ3G/VZhokxlsx8bcIO34d4bSZJDFKhim/F6yOnb2EmJYd29i9gek0aHsxurg3BIFzAv1GBAjMiKdjEB8zaPcNL7DNc4v7lZoaTJ135SNznqemBPkjW+ut+zz7LrH8kPdKni3MlpZUswS1a/0h6rU9KitY/koL1mf0RRvgXGLO/wr2pC9h7/JoH10RU1X96oQ/7zPr40yXg30ct+MS0GL/plidOuhMenMvuP13C/b+1+RDubAPck/W/B3jl3n91NhZj+y2NP1309WveaqRLuArzjzhKrk9e8S2SXugzANOLQ3CI++D7STY90k+g/LziWySG+ki0N7rzm2PYgaR7Qwy/0QbntT2MDQb+3+JNNE341v2duKkGjG+ECxOqW4Doz1mDvLgP19t/wl3nAInOvMgaSQnOxVMH1/z0CRP3eRz+3yfR3359smqDxJUR/bnt+mTvW4hOH712FurDfzcJ5/t/wre5+3DlLWqjqGcC9BroPq+jPuWKP+q2E3V2bgTtvDuAT42FWvqPqm7B9/gNsXwOf7wvqtDpo/vMXv9xEH408i6d3zhE7yMu/tdQn0TxzUJ9ZP3Bp0l6ndT6m8a3AvWR/CD/ukgBBvH/Ce7uD7L1+AAmmJH4+LAW3GDGDgBghrQmv4Assu25dPvwla/ofNGf+4fyOLu/wR3TE7gi9ElUfzPS62+3PtyRx9DR05XrkF7/cvhPVtLrb6M+/8E5K3Nk7i6MXxzIuoh6pqVa/lOwPiWKP9H+jTfjeqeT4EE8UM8ElNV/1Prg9BJ8UpL7XouJM48nLzg9JsXU0ij7bY8/sfVbwb7APk94Ihkkzn+iqaM+SeKbhfrgfRxYf7kpwGlULCmRW6ZE628a34rXp/v0LawsH1JhPzhnWTYfagn+gA/zpJhnjJV2hp346wBO2dv4uDf/PlAIrEeB8xb5UF7yua6F6mNMSn2M9WdYrA9efRMdSp15k//EkU2feP0ZVuoj5sEODuKwvQy8vJ7Bmw7r6j8F61OS+GPk3w785OkSvn2W25xq+0+kPrxOJlQ7/pjUD29Yjr6Bu6b+46EYfUzjG8NKfUT9/aiSKr0+Rv3HQRnfGEXqI+k+fYsPo+AX2St62oe8oW2oIbcdluHRhl9ovKkxy41ufuLKN98/n69o/FQHSeH6ZNUvP/3t1Ed0qHWcC2rSoULkp7+t+mQjP/3t1OcYnr09Y3/dp9Uku5G26v5TtD7m9EcfA/+enfE8HpMd/HG6gvE9DWX3nxh9+MkWwPic9xGmt2Fa+aQhFfH22x1/DOs3+yvM44iS5ylHZtSgfyGF6WMe3+zUR/5u6rbnEdB4z4dp/zLQ3zC+FauPIPHiibzCvvnBCL6HTuBFl5GJ74fmPTpDO6FhnbjyTfcv5sOJOYXyrdxJo49h/VPrE0R8PzzvtEz6IJf+Ocu19R+GY7vcdOh455zmqg8S0N9mfRgiMGsWz6qz/zCK0yeI+L7d8Qfx+Dc7sPrmTeMz/YMLiNXKfxBv/xd10y6eWKv4g/jrh1eL+cmZz3YPWfqX81u56eCL/3XWhxEb3yzXx1//oO8zEumDeMowiW890SdVUiLFabSjnSctUhizVTyTE+v0OUH66CF99JA+ekgfPaSPHtJHD+mjh/TRQ/roIX30pEpKiqJXRpcV0kcP6aOH9NFD+ughffSQPnpIHz2kjx7SR09V9LEqKSEIgiAIgiAIon50n75FEARBEARBEATRDygpIQiCIAiCIAiir1BSQhAEQRAEQRBEX1EmJfh0gFcvPM8cLwl4o08v6k366CF99JA+ekgfPaSPHtJHD+mjh/TRQ/roIX30xOmjSEqW4ecpgJPt8t3Bv/X4TziBSfh5Rb5RCKSPHtJHD+mjh/TRQ/roIX30kD56SB89pI8e0kdPvD6hp29hFrM+1AotnIJZ1NKY3EACC7Tw33UXdhH4F+7RE1e+0eJMjKj654Wd+kQtjhPWyFZ9OMEFoFTfiSCv8uvpP+bl26qPF8eWJM9rz6t8O/UJx0714mHR5FW+nfr40bVvFHHlm+6/rvoI3ONYVNl26lN0/xI4ugvK1b+S+JeKavuPQ3z9oyi7/3gJjJTMwHxjADrf23LbYQauDqMRYpl4fO1dTMJ6cAgGV4H0fMf0hMmk/NWnrNMDE9r5zv4ZjC/+AY9m5RckrTdt6Izd6C7Hny+26vM3bHg+4y+mDzrePwHHtlYfXPhnrQGfnntsMA5a+ZVfT/+RGJRvtT4Ia+f1BovJctOM/Mq3VZ/Dbfcz/vmXUVjaeWJYz/zKr6f/mO+/rv0LT1Ze4QlZ51Jbdl37F9cdrzDL4xcvvzT+k8C/lFTff0zrr6bs/uPHn5TMNuH64CV8ehM8GTmGZw/8WdXWB3bSO9iA+UBSkI648lF0FgjbLfckcvcjnMIAXLkmtx2O/oNzGIWJJENQrMFePV2WGxqs1SfIDDyaG2UnmR9DmbCt+qzeHIXOux14diS2k5Fj+eQ/eqzWZxk2F4fhZLvF6piEHMu3Up9jaAX8fmvvPTv4DcNVo/bPsfxa+o/p/hl17V9vdsQJ1YOYsmvZv8Tx3D1+ifOh8viPqX9FUXX/YZjWX0nZ/cdPvk/fGltg2d5f4mWcBZtwDIftS6Zh05NZNmFcMRIA0IZvLNUc+WlGbhuw+xpOhp26h0dfcqMwfQLIxj/ZUw2R2ajPMkyMMWf92oQdRx/22kzSMbQkKb/G/mNUvr36rD5dgJHUiW08ZuVb7D8eVpcmYbDThsOitIosv77+Y0Y99Wkd6U9UXOrYvxpwZRDg/KvQqLlxF6YvzvhF2eu3gjqUQ5+8Kbv/mNc/DeXyH39Scm0IBuEC/o3tSM6V+JYboJxMj7/EDTPmw3NBwuW3Nh/CnW2Ae9zwv+Ae4P782WF6MNOUdd+/gOk1sY9Q9mexPl6atxo5n3D0QB/WQaYXh+DQ0Shiep4ZRZcfpAL+k2v5QXqgz8oTWBp+Dy+Np7TpKLr8IL3oXwy8ooXlstfEB7Yv4+mRQYouP0gF/MdH3OdJqZo+eVPy/jX7I4yID9j/f4V7Uxew9/g1P3nMhx7p0yVr+1fUf3Kj3P7jT0o+fzcacuze3+G5WcWf6bFKbr+HjvHwnB9V+Xgjz6tfAF6i4ez1Eu4yww1PKj3BIvwKzPvc/U2Iy157wLI/74mZxfq44NMNBsA31S2OfusjO03n3Ws3yZTT88KZfDy5l18D/8lUft/1caaV5HMSnHv5FvgPx1P2PzfZvr1lJyD38ivvP37iPg9RM30SU5f+hSebv0zC+X7Ci7G26CPJ2v6V9Z+cKLv//CD/GiPu8sebamICFM5NW5sU93wkyAbV5eP0G3wigftea3MH5l/cFyeVvhMq/1AVB4UyfZKB9wlNCZ8QgfRHHw8rN/i0tr3IK1oW6iO16GbzHBxGXAi8F0/28mvuPw6R5VuoD/f5AQC8QrMm30MW2fZcsn1kL78c/rP1+AAmdhb44x9bpnVjZC+/hv7jIV6/eusTTw37l3P8mrsL4xcH0lahQxi79cna/nXxn7SU3X8Q/0jJUQs+daKvHuMTAoTBBpkWvzp9Cd8+y23OMmzy7Eo9whFZvnf4KQ7+XdW9JnqwMXnmxwQ93xeZXmj41VZ9POAN3cob3B2s1EfMY/Sj6jRp9TEtn1Fz/+miLJ9hoz4YNLG87usATtnb+FhF/z5S6mNcPqMs/qMkR/+Joo7+IzHSr8b6GFHL/iWOX4ODOO1GXv3mOihuGrZYn3j9yH/0VNt/HAI3ussbyocactsFDV7HuWhKQZdh1XfTsBgmSnJfg7Z8bgzA+JxnKGjlNkwr7uTn91PoTspVrIj5ss7jhqOfD22pPg4sS53HEaUP0cOCduojfzd1uzsUKB5koOg0EeRVfj39x7x8O/XJTl7l2+o/jzb8BwK8aVn9oBA1eZVfV/8x3T/1Lz317F/H8OztGfvrTn2JupHeVv/J2v7V9p/slN1/vIQWT8QOtrnThG/PH3puwsH3sJMFuYQT/j3F56qhG2doJ/RZXPn4f3aiFLt4ovjOlbc6YbJiqz4YCP8SzhEst4ut+ogt0bGcxX38n3Ey6hNbfm39x7B8y/3HRXwfgvEho/+4RJRfJv9hJ0yhA1ie/qMqv7b+Y7r/Gvcv57figy7+BVzr2r/Elv/4Vab+ZWZfff2H/dek/pX1Hz+KpERWvtEOGJ4DLKN6tTiqSCbyIf6kPB9IHz2kjx7SRw/po4f00UP66CF99JA+ekgfPaSPnjh9lElJUfTK6LJC+ughffSQPnpIHz2kjx7SRw/po4f00UP66KmLPj1NSgiCIAiCIAiCIILku6I7QRAEQRAEQRBEQigpIQiCIAiCIAiir1BSQhAEQRAEQRBEXylVUoI3+viWrS8IfDpAL/aTN6SPHtJHD+mjh/TRQ/roIX30kD56SB89pI+esuhTqqRk6/GfcAKT8LNvobe8WYafpwBOtsv3hAPSRw/po4f00UP66CF99JA+ekgfPaSPHtJHT1n06T59C7OopTH+niC0QIvIgPSLr8ThLvISftZycAEYdfm8DkMtuOMsl58z+vKz11+PrnyxsI1+8Uib9TGrv56o8oPauwT3Yac+5vXXo9OfEVygKaqP185/JKXWJ+hDecafYNkuwXrU13/KHJ/N21dP9vLt9R+GQXzQoyu/3Md3/rvuuaHAv3ChCRX3H4mjle47aqrrP17kSMkMXB3Gg5hYJh5fexeTsO4dgll5woRkGdBz+fmXUVhKMESDlX2FFepcQke+54KCss++HHT3//u7YWX5rTdt6IzdgFW5nS8zMN8YgM73ttx2yav+UejLx6SRORywICjLv7N/BuOLf8CjWfkFiZ36mNc/Cn35f8OGU66nfDwx+yfg+HbqY17/KOL05wsvrTXgk+y//KU4oNbTfxil1qfo+FP2/lW8/5Q7Phcdf8rvP6bxIYpq+4/EE3/wlSQhqbz/OOB5dIMlbHLTlFr4j0QmJcfw7IH/qtrWB9bogw2Y50axg97cKMt8d+TS8JjEsD/dzw14syPEetCCc/lWl9kmXGcZ3ukHN7tqbbbgVFX+0X/s96MwkWQICgPK02W5oYHX4xI+vVF0przqH4WufKl3p91yg+DuRziFAbhyTW472KhPkvpHoS0/iPBX+PIxfKXYSn2CaOofRUz5qze9/VdDTf2n1PoUHn+ClK1/Fe0/ZY/PQfKPP37KF5+N40MUtfKfFFTcfwTLsLk4DCfbKTSskf8Y3lPSgCvsoHf+VeysuXEXpi/OuNHXb83w9+JoHSkqGovqoNGGbyzVGvnJbL+c3ddwMrzAMrW/2Mv86piX/OqvRl/+MRy2L1kO2Oxe+WxuNGFceSXLRn2S1F9NIv1l5zjZUw0hlsB/tPVXoy9/GSbGWLD42oQdboN4bSoDUx39p+z6RJFX/AlQuv5VtP+UPT4HyD3+BCid/ySJD2pq4T9jzj7YK8EoLVJt/xGsPl2AkZSJbS38RxKRlDiZaEsIOPsjjIgP2P9/hXtTF7D3+DU3LheOWvCJlTV+083GhKgJxYsER4JYloaZ2v4FTK/JjhPM/q4NwSBcwL9Jnabw+rNG3XwId7YB7slOfw8w80w6ZzyKgvVhFFt/P81bDRjstOEw7VWtEMXr4yX/+iMDML04BIdoA7cj2fQVPVXwnxLr04P446WM/ato/yl7fPZSTPxxKWd8LjI+VMB/nCvh/CVuqPZN/8+RUvrPyhNYGn4PLxPdY2NOleKPMinpzk8L3azCkpVfJuF8P8+TAQSNPoBTT6Z9D1pwYpr04PCS/F349cQ/f273N9lx/gd7wPbn7Tifv0MHhuFq4kCTsf4G8Me5/QLwUtb9Jdxl+zEMin3XJ2P9E4FPfxgA31BmHBbo45Ki/nHIiwqdd6/dfiuHd41GOqvuP6XXp/j441LO/lV0/Cl7fHYpIP74KKH/ZI0PBpTdf/xXwlk82n4PnSTTR40pY/xxpm0leShCMqoTfwB+kH+7oHFLY3jTu0dAnIe2Ngkjc3dh/OIA7vAhITGlKz/wZiZvEoR36rtTxlz8U8k4KJThMLzvCRqJn56hw7T+acDhY3xigVvXFit8/sV9ERR9AcFGfZLUPyMrN/iw5V7kFQlb/UcSW/8UOP1XbgpwGHch8B5SQ/8pvT5IkfHHQyn7V9Hxp+zx2UMR8cdLGf0nUXxIQ4X8x0FqxqeP5jaiwSij//A6DwDgCMOafA9ZZNtzeeyjWv7jGynBO+RFQhIcCRHz0AYHcdqWPPDxqwfBm1rwQIjZVQ5XoHhDXsK3z3Lbge/XfC6wA88ksW5M0PN9kemFnp7Bp0HkdPVDWf+U+sgrNUbYqI9x/bP7D96QqL1B03L/0dc/rT6i//oRwSlELf2n5PqoyDP+eChl/yraf4zLZ1juP8XEH5dyxmfT+ED+04XXk+IPB0/6sbzu6wBO2dv4WFz/Psh/kG5SggnJOt4ropyHdgzP3uIj2NyhmdUlli3lOa9vdsYdBsLGWUTnk/e0eODzCXVOqWJFzOdzHpcW/WxoecPQUENuJ8Cw/qngjQ0wPucZKlu5DdOD4ScdWKlPgvpngmXx83jFwPMUoiDW+g9iUP90yHpN3e4OxYp7Dsh/BCXXByky/jiUtX8V7T9lj88OhcUfSWnjs3l8SEXp/WcZVn03/Ytp/rnfl1T243tRVCX+SOTiiZihLbBOFuQSTp4/7B7YROKiWTyROQ0f2lEN6zifyU2H7gI7zPBXeCB1wGdeq+5peXEfrrzVCZMV1KIJ3zx2c/KofxZ9pO36xXEs1sek/pn0Edk87zzB33axWR+D+mfUx99//X1bUG//KbU+hcefsvevov3HoHyr9Sk+/pQ9PsfGh0z6lNl/Guw3gfNHnQY19R8XLGMBgOKPUp/uiu65IA+MYTHyId4p84EHn0Y7//2QPnpIHz2kjx7SRw/po4f00UP66CF99JA+ekgfTq5JSa+MLiukjx7SRw/po4f00UP66CF99JA+ekgfPaSPHtJHkO9ICUEQBEEQBEEQREIMV3QnCIIgCIIgCIIoBkpKCIIgCIIgCILoK5SUEARBEARBEATRV6xKSvBGH9+y9QWBTwfoxX7yhvTRQ/roIX30kD56SB89pI8e0kcP6aOH9NFTFX2sSkq2Hv8JJzAJP/sW4smbZfh5CuBku3xPOCB99JA+ekgfPaSPHtJHD+mjh/TRQ/roIX30VEWf7tO3MPtxFwYSqBd+0SEWhcFFdMLPWnY/EygWX2Twegy1FAsn5oO+fF39GcEFYFSL3Gipqj7BuruYPnMbs/ylMbmBKLT1+yjpE/a9qP272KkPYrL4UzRx+pjpV1f/CWtP/UvtHwivI4tDqrLt1EeS4fhVbf9x29RLkvOfasef4vURxPgvw1Z9vDha6b4TxEQffxuUqX+ZxwfEP1KCqwDLpeTxlSQhwcq+wgp1LqEj33PBSrHPPOX//m4YlhRDQK03beiM3YBVuZ0vMzDfGIDO97bcdtHXn4EL26w14NNzV587iqASRbX1+Rs2HE2c1/4Ze/8M/jHqlDNwdRid1P393sUkrHvtZ/qvY4Yu9d/7Mkr6eOyP9V+Jrf1r9SkLWsACsUef8cU/4NGs/IKWOH0M/EtSV/853PaUjZ9j/9p5EtKhtvHHAeNQg50zyM0gtvavbMevqvuPJPX5T9Xjj6QwfQz3z7BaHyQmPqgx8I9Sn/+Yxwckv+lbb3bEDh+04Fy+1WW2CddZlnT6wc2uWpstOB1swHzwpOPoP/b7UZhIMgSFAffpstzQwOtxCZ/eKDqTrv6M1Zuj0Hm34186PwkV18cPS7LmRlkQ+6jMhMMcw7MH/qx56wM7qejaL8pz9cdOzP6QPq79pvu3Uh/Rnp12yz1J2v0IpzAAV67JbS1x+hjo51BL/zmGViCube29ZweXYbhK+nhYhs3FYTjZ1tTBUn2yHb/q5j9JqVv8SYqB/ab7t1ofg/igJE6fsp//JIgPDH9SMrbAsp2/xEuRheloHSkqGovqpKMN31iqNfLTjNw2YPc1nAw7dTe9uupHX/9lmBhjjfG1CTuOPuy1maDhq61PAOm8J3t5DSE24ApL2s6/ijo0N+7C9MUZP2m9fiuoQx31SbJ/G/U5hsP2JYuxTc+VsyaMG1/pzpN6+k+Q1aVJGOy04TB0EltffVafLsBI7Im9jfpkP34lpZT+k+H8Jz/qqY95/7ZXH7P4kIaKnf8wouODNylxMh3+EjfMqIYXU3HUgk9MqPGbbjYmTjoSihcJZpqy7vsXML0mO04w+7s2BINwAf+mcpoBmF4cgkNHo0TTS2KohD4uzVuNSIczw7nS2RIdfPZHGBEfsP//CvemLmDv8Wve+fKh5PoUTvH6tDYfwp1tgHs8MP4F9wDjkf/qkTlx+uStX0X8B6+YSf0nPjBbEkxP1VMBfZg2S8Pv4WWCKc3m9EKfPI9fFfSfXM9/Khh/eqpP3vRAn1zjQ0Cfqpz/GMaHblLiz3RYJbffQ0c1PJQKNPoATj2Z9j1WnRNTUT3GhF+BeWm7v3U7zx6w/Xk7zufvkUNGWqRTdN69dk+S5PSScKaahpLr4wOfzjAAvqk4CeneXxC6mYp11l8m4Xw/4clqbfRJiQX64I1+r34BeCnLfgl32b7TnTTF6ZNYv7r4j6fu/9xktnnrrqPy+jjTMlKeZPdbn5yPX1X0nzzPf6oYf3qpT2L6rk/G+BAgWp+Sn/8Yxocf5N8wODdtbVJMH8olm8WbEb0i45367pCUi3+oioPGmE7j8D5hJOIJF4mRWnSzVQ4Oky0E3stCifXxsnKDT7vZS3nFQDyFAm/68tTL0X/uLoxfHEhbhQ5haqhPImzUB6eX4BM73LJazPnnX9wXJ00Jhobj9InXj/wH2Xp8ABM7C/zxki2f7TXUh5c5AIBXENfke8gi254L2mChPjkevyrvPw4pz38qH38cCtInHgv1SRQf9Cj1qdL5jyQ6PuhudOdXVy7h22e5zcETZSZ0yiuYPnhDBstn8P0mn0uOjckzPybo+b7IxkLDQ3yaVJqrQ2Kenh+VU9RVHxe8oTL6BlO9PvgEB9Ehg1cChP6DgzhsKRM36Z+hm65qqU8CbNSH18mEbPoY6Uf+o6eO+uBBHevbfR3AKXsbH3sZssFKffI5ftXBf7rweiY7/6lD/OlSgD5G2KiPcXxIq091zn9MkEnJMqz6bnoTw0TZ5uUGmJ3xDNWwxln0zJnzwOcDGz81RbIi5vM5jxONfja0vKF2qCG3TZG/m7rdHeoS93xEPIkgDaXWR8Ky7Hm84u15ipgp2CHXca6kMmAdw7O3Z+yvO3QYdaNUPfUxx0p9eLADGJ/zDOeu3IbpqCd9KIjTx1S/evrPMjza8B9o8KZN1YMGqH/psVMf+bsMx69q+0/2859qx5/i9THF6viTAb0+ZT//MY8PiFw8ETM4/JIH1dCNM7Sj+0xuOnQX2GGGv8ITbQd85rVqztyL+3DlrU6YrKCtTfj2/KH/hD+u/gzhOM7iNZdwElVGTfXBbJs7d9B2h0h9FP7H8Wvs1191RaHG+hjs3259RN20iyem1sfMv+rrP6rPqX+F/cNBfB+C/mm5PumPX3H6qD4vk/80wvUPacDIVR8k2AZ11Yf9V7v/Mhy/vAh7Q/Ehiz6M8p7/KPxHWX9Bd0V3I+SJc5KVKpMQe1DJCd64jXb++yF99JA+ekgfPaSPHtJHD+mjh/TRQ/roIX30kD5GJEpKemV0WSF99JA+ekgfPaSPHtJHD+mjh/TRQ/roIX30kD5mJBspIQiCIAiCIAiCyJnop28RBEEQBEEQBEH0AEpKCIIgCIIgCILoK5SUEARBEARBEATRV3qalOCNPlFLy+cJPh2gF/vJG9JHD+mjh/TRQ/roIX30kD56SB89pI8e0kdPXfTpaVKy9fhPOIFJvrR8cSzDz1MAJ9vle8IB6aOH9NFD+ughffSQPnpIHz2kjx7SRw/po6cu+iR8+pa7yEv4WcvBBWDUi6NgFrY+1FIsDJgP+vKj649Z6NKY3EBUiwPFotNHLGyjXRyOYas+grjP44j6vft+kOB+6qmPJLhAkcJHbdaH/1a7+FMc0eX7yxaoFrayWZ/C/UfiaBXZRhbqU2x8DsdmOn6lK99OfczbV0+0PoK4z+vrPwivW0z8t1UfQXz76qm2Pib1N8F4pAR3+Aor1LmEjnzPBTs9+wxXIZdL1f/+bhiWFENArTdt6IzdgFW5nS8zMN8YgM73ttx2iav/1WEUUdQdX3sXk7CeYAhLXz52ehYUgXV0Zx/7ZzC++Ac8mpVfkNipT/znceh//zdseLR39EHH/ifg+PXUh4ELL6014NNzj0aKg4at+mD91/EKjKz/3pdRZXyIwkhfT/zBV3il3Rr7jwO2Q4Odc8jNIHWNz4fbbtm8fPTPnSchHeqpj3n5tvYv0/aNIq78uM8d6tq/TON/beNzyfXJenz3Yj59682OcNgHLTiXb3WZbcL1QZY9fXCzq9ZmC04HGzAfOOmGo//Y70dhIskQFDP41dNluaGB1+MSPr0Jn4xo6w/H8OyBP6vb+sBOilX1j0JbPnZ6diLQbrknkbsf4RQG4Mo1ue1gpT6MuM/jSPR7luTOjbKTzI/hTLum+qzeHIXOux14diTfiMJKfUR7uvUX/SG//pWAWvevZdhcHIaTbc13ahmfj6EV6Fdbe+/ZwXcYrtLxi5GgfEv1MW7fKLTlM+I+d6il/ySI/7WMz2XXJ4fjuwfjpKR1pKhoLIqTbmjDN5Zqjfw0I7cN2H0NJ8MLLFP7i73CowsmpKu/Ofryj+GwfcnaqNnNHJsbTRhXjATYqk9W/RL9XnaOkz3VEGId9VmGiTEWLL42YYfbIF6bysBkoz4NuDIIcP5VfKe5cRemL854Un79llk9jfQdc2xgr8irNPXtX6tPF2AkNrGtY3wOs7o0CYOdNhyGtCJ99JRDn+j2VRNXvvn+6+g/SeJ/HeNz2fXJfnz3ks+N7kct+MSEGr/pZmPipDuheJFgJs+yNMzU9i9geg3FZa9g9ndtCAbhAv41DDTROFfqWzEHcHNamw/hzjbAPe4Yf8E9wMzTf3UiPb3Wp1iatxqJDhjxVEGfAZheHIJDtIHboZ7+l46C9Zn9EUbkf/G+mHtTF7D3+DUPrrnhXMnhL3FDYJLpB3oq4D8rT2Bp+D28VExpy0754zMHryhivdlr4gOzJfGc+igqok+XvMvvkT6FtW/RlNx/Co//JY/PZdcn5/rn9PQtNPoATj1XKu+x7n5iWilPsAi/AvM+d38T4rLXHrD9eU88Pn9PNiQbQff+jxxvJsIbyV79AvBS1v0l3GW2GZ5UWqZPseDTHwbAN9UtjqrrIzt9591rN4mV0/+MrkRYow872P0yCef7eSXjLv4rOSwebb+HjunwceX7lzNtK+VJWA3iM8dT939uMtu8dddRF30kicu3RZ+07Vs0tfGflPG/8vHZoez65HN8/0H+zQG8WdnrxHinvjuk4+If6uGgUKZPMvA+gSjVEyL0iKdQ4E1feZaL02/wiQVumS0mzvyL++Kk0ndCZbc+hbNyg09r24u8oltDfXAeKatz92oEB4dxFwLvIRbq49R/7i6MXxzIuoh6FobcJ58+6rvyU0P/4X1qAACvkK3J95BFtj0XtMFufYqJz2G2Hh/AxM4Cf/xmy2d7vfWJL78c/Su6fYumhv6TKP6Xw39ypez65Hx8D4yUYCKB2VUO00L4gfASvn2W2w78qq/qXgo92Fl45seMP98XmV5o+JVPI0s3jw3BJwyIDhmV6aXUxzu8FYfF+sST3X/whm7lDe4OtdRHzCP1E9HprdRH1H9wEId15YULXs/gTXU5xh9ZfpniTzwp9cGDFta3+zqAU/Y2PtYxZIPF+hQWn5NQY33iy2fUsX8loZb+Yxr/GbX0n7Lrk+/xPafpW4zZGc9QKNv5onpOIr9fQHfSqWJFzId2Hqcb/XxoeUP5UENum4Mdch3nwukCblp4YwOMz3mGylZuw7TiSQe26tMTWBY/jyNKnqe4BamnPrJeU7e7Q7Hinq2y+M8xPHt7xv66Q8NJbzTVswyrvpv+xTCyqvxa9y8Dahmfmf882vAfiPGhAKoHkdRTH/Py7dTHvH2Lpp7+Yx7/6xmfy65Pvsd3/+KJztCOaljHO+zjobtAGTP8FSYiDrhmQGhOIjtZeHEfrrzVCZMVzMaa8O35Q39CpK1/g/0Gg1SQSzjxlpNFH2m7fvFEW/Vh9Y+1j5FJHzxQ/CU6T/C3XeqtjzhwOIsTBXyTY7E+DH/9FVfkUuuj6L+qMmruPy5YxwWA0sSfouOzqnzVFWPSx08wBpVJnzzjj2H/ra3/CPtj43/N43Op9WFkOr578CclMrFIt1plPPEnnfnAxWm0898P6aOH9NFD+ughffSQPnpIHz2kjx7SRw/po4f00WOojy8p6ZXRZYX00UP66CF99JA+ekgfPaSPHtJHD+mjh/TRQ/roMdXHP1JCEARBEARBEATRY/K70Z0gCIIgCIIgCCIFlJQQBEEQBEEQBNFXKCkhCIIgCIIgCKKvJEpK8EYV37L0BYF3//diP3lD+uipuz5kP9lfZfvJvnwg+/oD2U/2k/39tz9RUrL1+E84gUn42bdQWd4sw89TACfb5XuCAemjp+76kP1kf5XtJ/vygOzrF2Q/2U/2999+z9O3cNEU7wI6qsVbRJazPtRSLIyYD/ry3TqqnnXMf6tdfCaO7OXXWZ/4z/upj1s3Qd38Qyy8pF+8M46ytn+w7V2SaVDm9mcEF8CKWcTKT1BDu+zzay/wLWwWi1n/KK99drcfJ5N/InXun4je/vjP+2V/0DddouqpJto+HAVYGpMbSIS2/Wv/Yo/P9tvvIkdKUBBmDK7CLpei//3dMCwphlhab9rQGbsBq3I7X2ZgvjEAne9tue2CxrxCwTuX0JHv+Vh5wgIOy8Cei/rvfRlV1j+KvMqvqz6x+5f0Rx9z/46i7P6x+pQFPGCBSNp/Z/8Mxhf/gEez8gsxlLv9/4YNx26P/Xhi8o9h0C97+2P9Xq014JOsH38Zn/DYf3zgeOqHL/MTdvP+UU77StB+mfyz7v2T4rPevhm4OoxJqFv+3sUkrNfm+Gy//V5EUjLbhOssQzv94GYvrc0WnA42YD4oytF/cA6jMJFkiAc73NNluaGB1+MSPr1RBNs3O0LQBy22/yAs6M6NQufdjlwaHxuB/VHVP4q8yq+lPoy4zx36oU8S/46i1P4h6tNpt9yD3O5HOIUBuHJNbsdR5vYPIdoLvnwMXSmNpNTtzw56N731S0iS/mNF+yYlQf8oo30laL9M/onUuX8iFJ819h3Dswf+UbGtDyzpqc3x2Xb7/cTcU6ISpQ3fWCo28tOM3DZg9zWcDC+wTO4v9jLP/ry0jnSGNOAKC7rnX8V3mht3YfrijDfq9Vtm9cyv/DrqE/+5S3/0UWPe6cvtH8dw2L5kMajZvTLS3GjCeIIrUZVqfxkcT/aih5CDlLv9l2FijB0MvjZhh5chXptJDjxK7Dk+cMacMthLcRUwmiT9o4z2RWFL+2X3z7r3T4rPpvbF0Q/7iz8+m9P/9hdJyVELPrGKjN90sx0hSsLKRYKZGsviMJPbv4DpNdnxgtnVtSEYhAv4N+nVgtkfYUT+F+dl3pu6gL3Hr7m4uVB0+WXXp3Ay6lO0f5fAP1qbD+HONsA9Hjj+gnuAV1bCc6rtJN/+0bzVgMFOGw6T9qMoShEfBmB6cQgOsQxeToLpAWU4PjhXCvlL3LCpmp4QRbH9o8/2leL4nsE/46h6/+w7edjvknt8DuGMxLTSj0z5yG5/b4/P9tnv5QfxBwtt8JtkcF4a0nl3ACedBbjOt2LA4ZtFZqSSwA1lu7/BHZn9iUeQ/ejecPP5O3QWG3AVO2IqsZjYv0zC+f7/2P7Y/+W7+ZGy/Nrok5LC9cno38bY6x/8RrdhMWcVvyvmoN6Fk+cPcwpMGehp/8Cnfwyw9vcMleeGpe0vT8o67157yvkIp2yf/Epx7FU2+48P/iuFrL7bTdhZE9MTWgb+nal/WG+f5e2X2T9NqWr/LJge+LdLkfFZ0L1/w/Rm7h7Yj9/t1fHZRvu9yKQEwZuNvJXEO/ndIU8X/1Aox1ORWGY9T5hI/HSJCHAeHCtzZO4ujF8cyLqIeuZCovJrqE8i+qWPqX+nwHr/wOkB+EQO97stZvz8i/t9OOj1uX+s3ODD4nsJboKOxfb2d+onNwU4TL8QeE9HyY4P0mY+PSn2oJ6kf5TRPsTi9svFPzXUon/mRZ/9u4j47IGf/I/hiXRUvfphf++Oz3ba7yf6nhLuHJfw7bPcduBZvflcNweeNeGQDqswXqngQz3BCvNhZvP7HFzEPLjBQRyWlYGX1zN4Uw0GYqxH0mFR0/IZtdQnAbboo/TvivoH36cJ1W9/vKE0+gbKqsYHUT8/qpOyBPbbfnyQ+hv1b/5dQ8ponwqr2q8A//RRw/6Zlj77dzHxWYCjD+KE3HNlP0g/7Of7NKGi9gdwk5LZGc/8VGY8Dtco5pzx+X5JnoqArDzpDk1hZaOfvSxv+BlqyG1TjuHZW3yE3LAYGmKsLrFsLbd5iebl11Mfc/qmj6F/p8Ny/+DBAGB8zjMHfeU2TBs9CSVf+to/Zn+Febwi5XkKUT7YHh/k+1O3u496FPcUJGh/q48Py7DquylYTNMxjm8J+kcp7UOsbr8c/FNLDfpnTvTHfklh8Rn1/APW8V4i3Qk5oy/29+D4bLX9AdzFE1nBvnlj+Exz56pCFxYMX9yHK291O84KZoNN+BacS+cdFvLgXUBKCK9ZHMkpQzWslEf5ddbHYP991cfEv7PYz7DaP+S+tYszVbn9GXg1hwfPoG0OlW7/YP0uw/OVdfZbfXzA9xbYSZwHXRuqPjPpH2W2z/bjOyOTf9a9f8bZb6BPv+0vLj6L+6l8/YcT1Lif9ot9F3N8LoP9Lp4V3eOJdZqc4J2z0c5/PzIwJ18p0wzSR4/1+pD9ZD/Zn9p+si8fyL4IqH+S/WR/5e1PlJSUnV6JXlbqrg/ZT/aT/dW1n+wrN9Q/yX6yv/r21yopIQiCIAiCIAjCPmJWdCcIgiAIgiAIgigWSkoIgiAIgiAIgugrlJQQBEEQBEEQBNFXrEpK8EaeVy88z2ouCLz7vxf7SQrZT/aT/WQ/2V8sZD/Zb6P9cZB/kP11sN+qpGTr8Z9wApPws2+hqLxZhp+nAE627XuCAdlP9pP9ZD/ZL98oBLKf7LfT/jjIP8j+OtjvefoWLmriXWBFtbhQHG4Z/mcphxeGiSofs7T1oZZiYad8iC7fYPGaWKLs98PrMDWg/E5/7A+2vUsyDcrc/ozgAkSqRYq0RLc/XuVYGpMbSETZ1bTf9vYv2v/98DrUqv+7NnvxL9wm6I/9SA/iv0H/6p/9QR/I8/gvsdp+RF9//lvt4otxRJUf1N4lWI/q+odZ/+uf/UXHB5vtN/dPPTr7XeRICQrCvoyrvMql4n9/NwxLCYZw0JhXuMPOJXTke14Ot0W5zmvvyygs7TyBVfm5Q+tNGzpjN0Lv58MMzDcGoPO9LbddVp8yhwAWJJ067p/B+OIf8GhWfiGGOPu7rDyB9QaLx3IzSH/s/xs2PG3j2I+B5x9Dhyt7+/OFidYa8Om5p54JTsj19s/A1WEM4h77LyZhXdG/qmm/7e1fvP93qWn/53iOL/gKJiRIv/y/8Phv2L/6Y3/xx3+77Ter/zpeQZb15/ErN33M+19V/cO0/1U1Pthtfw+PjwyRlMw24TrL0E4/uNlRa7MFp4MNmDcUHd7siMo+aMG5fMvlGFqBJeW39t6zyg3D1WD5R/+x34/CRJIhKgx4T5flhgZu5yV8ehM8GOJJIztRaLfcILn7EU5hAK5ck9txaO13YJni4jCcbGu+0xf7g7AgNDfKTiI+ml8JKXX7s6BwcxQ673bgWaCexsTY/+yB/6rS1gfWqVX9q6L2297+fvL2f4e69v8E9MX+4uO/cf/qh/38/SKP/5bbj2jrL/qDW3/hL8r4HUWi/qHpf5X0jwT9r5LxwXb7gxR7fIi5p8Rc9NZRnCF+VpcmYbDThsNQkGrDN5ZKjfw0I7cN2H0NJ8MLLBP7i73Ms1eXYzhsX7IY0+xm/s2NJownyARN7F99ugAjsYG5H/YHkM55smc+RFju9l+GiTHWGb82YYeXIV6bCTp+UvujqYf9drV/gIL8v/b9f8ypI3tFXmXth/1Fx/8k/cuC9u+S1/Hffvv19W/AFXZSfv5VfKe5cRemL874SeP1W2b1NOofDtr+V0X/SNL/qhgfbLc/QMHnhyIpOWrBJ2bo+E03mxKiJDQ+DszYuDB/wcQHzJrMp4fowSvRrDzMxPYvYHpN7COUHV4bgkG4gH8VJwWtzYdwZxvgnqzfPcDMLumcSQ3M9qXh9/BSMWUhO9nt99K81Yg4YcyIxe2PAXZ6cQgOsQxeTrLh2WQ4Vxpa8VcOjSiJ/Va3v0sh/l/3/u9cKeMvccOmavpiOrLbX3j8L7R/ZbS/J8d/i+2PY/ZHGJH/xfti7k1dwN7j1/zksAjy73/2+0ex/c/++GC7/V4KOz+U/CD+YKUb/CYUnPeFdN4dwElnAa7zrZzY/Q3uyMxPPN7svdmNtHgys8hO4pQEbrgK7eNHdx+fv0NnsSGmjAQE5Tcis5MGnNOH3xVz4O7CyfOHOZw4ymkbz39LdxLWA/td8OkLA6z9PUOJeWFr+8uDTufda085H+GU7ZNfCUtylcuA7vxR05vVqmK/re3vowj/p/7vv1LGjjfbTdhZE9M/glP7QvTAfvxuYfE/a/8q3P6Cj//W22/KDDz6ZRLO9//H9sf+L9/NlxT9r+z+wcjU/8oeHxi22+9S4PmhRCYlCN7M4j1Jwjvl3SHLvNl6fAATzMHx8WYtKZLAP1TK8QgZi/cJH8ZPD8LhZXwigPvdFjN+/sX9fE7KVm7AOAwAYIa6Jt9DFtn2XLCO/bDfA68rc+RCrui6WNX+OE+T/aZ7NYyDw6QLgfeyw4PPGAaKqHpV234Hu/q/hyL8n/p/GOlzfPqH7wDYD/sLjv+J+le/2r/A438p7Nfg1H/uLoxfHMi6iHrmTmz/q6B/JOp/FYwP1tvvoQfHh+h7SvjOL+HbZ7nNQUdkB9Jc5yUG4FdVzOfqOfCsD+vGBMcrGXyoKig4H4ZUzAOVV3LiSWk/Og3Wp/s6gFP2Nj4WLVTHftjvAW9IjL6BqaLtL+dp+lEddLLZj1c/RELiuXIRpML2G1FF/6f+H4bbGTy+MPphP9+nCWntN+1fjD63f5dcj/8ltN+HqP/gIE7bkifm0n/9NwVn7x/6/seoon8Y9z9GP+w3rl9F7ffQi+ODm5TMznjm97LCcTgotznvy/Bow28o3vSJGVdQXD5fTdcpVayI+do49IViRz83Wd5QNNSQ2xLeGADjc545ziu3YXowGHSKpy/2O7Aseh4zds9TNvLB8vZ33p+63X3Unpgzm1/7Y0KyjnORdQkJo5r2297+ksL835yq9v9V303NYhqMal5yX+wvPP6b96++tX+hx/8S2K/lGJ69xUeguk8LjH5QRwYM+l8l/SNB/6tkfLDdfoceHR/dxRNZxX3z0vCZ1ME576xSfOhHNezjfCY3HcQCWWI+on/xFdUVY3awenEfrrzVCZcVzOaa8C00V0/sW7t4TWr7g46LdVgACJbfV/vxRFHOawza5lDp9scDJSYOzuJYl+H5nLnajwT3USf77Wv/4vyf+n+o/VVl9NV+se8i439s/+qn/YUe/0tgf+L6K+JXRn1i+1+l/cOg//XTfpP6Vdr+3h0fPSu6GyAdMyxWPsR3ynzgwaXRTr4fsp/sJ/vJfrKf7Cf7c8d6++Mg/yD7yf7M9idKSnoliq2Q/WQ/2U/2k/1kP9lPBCH/IPvJ/uz2JxspIQiCIAiCIAiCyJmYFd0JgiAIgiAIgiCKhZISgiAIgiAIgiD6CiUlBEEQBEEQBEH0lURJCd7I8uqF51nKBYF3//diP0kh+8l+sp/sJ/uLhewn+8l+sp/st4te2Z8oKdl6/CecwCT87FsIK2+W4ecpgJNt+55gQPaT/WQ/2U/2yzcKgewn+8l+sp/sr6f93adv4YIpqsXdwgu4YBa3PtQKL5yTE9rygwuwqBZp0eLaqXyWskH5/bKfv99duEmgWnhGT7T9puX3y34vTl2TPw87pv0luvKrar9Tpheb2t+0fnqo/6vtd98PovSTSra/yeJl/bPfi6OF0oe1lLf9veRvP2Jz+4frpl58No7ytj9epV8akxtI4nM/RNf+DIvjf7H229P+iBwp+Rs25BL03df+GXv/DP4JNFzrTRs6YzdgVW7nywzMNwag870ttz3gwixrDfj03FPHBI2CYr5C4TuX0JHv+TAsv2/2I7iKqlM39kpyQI61HzEov6/2I6yd1husT8pNU4zsR2LKr7T9trd/kf5f6/5fgviPFNj+q0/ZSR+wA73H/vHFP+DRrPyCpJr9vyTtjxQU/2xv/8NtT9uw196XUVjaeWJcj3K3/wxcHcYkzK3f3sUkrCeYShTX/nbH/6Ltt6X9BRHTt1hmPjfKDgIfw5n40X9wDqMwkWQIBxv86bLc0DDbhOuDl/DpTfhgs3pzFDrvdkJL3xvzZkeI/aDF6h/GuPw+2Z+ZGPuN6av9LKNfHIaT7RQ2GNlvUH6l7Tegov5P/d+LffE/M1r78aDPTnTbLfckZPcjnMIAXLkmtx1q0f9tbf+i7Le9/Y+hFYhLW3vv2cnlMFwNJE2RlLr9j+HZA/+o0NYHdtI82ID5nOy3O/4Xb7+fPrW/RJ2USHFO9lRDNG34xlKtkZ9m5LYBu6/hZHiBZWp/sVf46kM8yzAxxhrraxN2eBnitZlAmNZRVKBDkpTfD/slY04Z7JXwhiO9/RKj8vtn/+rTBRhJmZia2G9WfnXtt739i/N/6v8+rIv/ksLsP4bD9iU7xje7ZTY3mjCuuFJY6f7vYGn7F2d/Odrfy+rSJAx22nBoqEUl+n8G9PaXJP5noEztr0xKmrcaiRw+Hsz0WJaGmdr+BUyvyYYPZk/XhmAQLuBf5X4HYHpxCA6xDF6Oeng1PUWWn4P9TqbLX+KGoyTDd7EUWn4O9rNse2n4PbxMMGUjEYWWXwL7bW//ov2/7v3fg5Xxv2D7W5sP4c42wD2sF3vdA9xf0jn7UZSg/3uwsv0Ltt/69keYBvx37DXxgZWV+J4CM+w8//PiXMlvpUpQ1Vge/30UYb9L39pf8oP86wHv/h+AzjvPUGYc2FkWmUhKAjdk7f4Gd+TVB/GIsR/dG3Y+f4fOYkMMSXoFmf0RRtifzrvXnnI+winb5/VbLGNLkgWqyFp+0fYz/Jkua+RtltWvieG74NBuGjKVX7j9ctj++W+FBOHM5ZfeftvbP2P94qD+78HC+M8o2n6sC5704j0FWBcxB/su63MP4w/8Fej/Lja2f/H2293+ktBv09zsHIed/d9L9/6fvG62LkH895K7/T762P6ScFKycoMPW+5FXpFowJVBgPOvns89O4rF+4QD0ycI4Dw29ht0HBccRloIvJeSROX3wX4Vss58zmtc0ExDZPl9sJ/75AAAZthr8j1kkW3PZdDQIVH5FbRfhU3tryJP/6f+72Jj/FeRq/04fQOfNOPWpbW5A/Mv7itOSire/21s/8Ltt7z9FWw9PoCJnQX+eNaW6b5NsLz/44ns0hie6GZtcw8liv+F2O/FgvYPTd/CG36UN7g48KxSNddSD8+KcMiGVeh8Xw7lBCt01IJPnQERCHyIeWx+hDh+lmET95F43p5p+Yy+2K+A1+MSvn2W25y09itQls/oh/3o9Pj97usATtnb+Lg6fxkp7Tcun1FF+1XY1P4qlPWj/p+1/e2M/wrytJ+XZUg/7O9h/7ey/Yu23/b2N6ba/R9Hr8QJuefKu4+09pcj/hdnv0tf21/iT0pYFjOPVww+RA8L8flmukqrWBHzQZ3H7YWeD91F3nA21JDbDvL9qdvdR5GJG9FUTypIg3n5/bF/GVZ9N13NwKNfWLaZ27w/8/L7Y789VNN+29u/aP+ve/+XWBv/C7afnwwAjM957lFZuQ3Tg7a0f4+wtv0Lxvr2X4ZHG/4TVbzpH69oJz051GJx++MJ+frUheaEPAtyv9bG/6Ltl/S9/QVy8UQBZjP8xxEZDD8YvLgPV97GF5wezPaa8E0xl1M0zIDcugzP92Si8qEh1bCQ85ncdPAuwBVbft/sx/cwCHnQ2ZjY/oZZ+X1ufxehB7CM21ePjO3vElF+Ze23vf2FvcX5f937v7Df3vjfC/uFbfrF86ra/21v/yBF2G9z+wt7ff7PEpLQCWpl219lPxKI0RntL1X85+Rrvx3tH0hK4oivdD5w52i0k++HZWR4w004mOQD2U/2k/1kP9lP9pP9xUH2k/1kf33tT5SU2E6vRLMVsp/sJ/vJfrKf7Cf76wfZT/ZXwf5KJSUEQRAEQRAEQZQP9YruBEEQBEEQBEEQPYKSEoIgCIIgCIIg+golJQRBEARBEARB9BVlUoJ3/7964XlmtyXgjTy9qBfZT/aT/WQ/2W8XZH+97Y+D9NFD+ughffT0Sh9FUrIMP08BnGzbdwf/1uM/4QQm4WffQlp5Q/aT/WQ/2U/2k/12UXf74yB99JA+ekgfPb3RR/H0Lczi1odacOexd1XH8MJCysV7YnEXgQk/Szm8D9XzltX1yw+T8vl3pgZSPA9aZ39wgRy1vv2y37HZi3fhHTPqaz9eZVgakxuIYoEj/z7ssp8TXIBJtUhTBCb26/1D0B/7g77pYhoDym0/Yhafoyi//WbxKYry24/o68d/GxO/oqhEfIxtv/j21aP7vfuZoFz6mPWPOKqrjyDu82jK0r+QwEjJDMw3BqDzvS23XQ63xRLxzmvvyygs7TzpLssfBxrzCgXtXEJHvudl9Sk74AETytnH/hmML/4Bj2blFyStN23ojN0w3m8you3vsvIE1husTeWmKXr78YDPPvty0NX393fDsKQYKuur/Z764StJQlJv+2fg6jB2cve3exeTsO61D/0Kr6A8l59j/7LJflyYaa0Bn2T9+Mv4oBFvf1x8cOiP/X/Dhqfu/MXiEwbuf4wODGW33zw+qym7/ebxSU352z+2fobxS03542OcPqbtG4X+9/YfP+PqH9v+MVRbn6z+U5b+JfAnJbNNuD54CZ/eBE+2jqHlW24fYGvvPRNnGK4aHZQYb3aEIA9acC7fckHR2Il+u+We5Ox+hFMYgCvX5LbD0X/s96MwkWQICU+oni7LDQ2R9juwTHVxGE62VTbEoLOf75dlvx/c7LO12YLTwQbMB/Xtq/0ZqLX9x/Dsgf+qw9YHdlLbtY8FzblR6LzbgWe8n4n+4H7uoU/2r9701i8pcfYztPHBgxXtL9oLvnwMXUlSU3b7E8RnJSW3n79vGJ+UVMD/tfVLEL+UlD8+xrafaftGoft9Ev+0Uh+D/hFHpfVhZPKfkvQvSeqnb60uTcJgpw2HhicprSNFQ3Q5hsP2JdOg2c3MmhtNGFdeiWzDN5Yqjvw0I7cN2H0NJ8MLLNP8i71Mr+6FWX26ACMpT8z09kehOuj3z34Yc8pIfsNT3e3X04ArLGiefxUaNTfuwvTFGT/pu34raGc/7F+GiTEWTL82Ycexn702kwSmGMz9o4/t7yAPLid77kEuK3bbnyQ+p6NU7d/FNCmLx3b79fVLEr/SYHt8jG8/8/ZVk+739hw/s9ofR9X1KVY/u/qXPym5NgSDcAH/Rp10Y8bDC/4LJj5g1pZ0zl80rc2HcGcb4J4s/x5gZujP7tKDmSKrL2aa+xcwvSb2EcredPYz23EJ/5eJ7qEw5KgFn1hDj9906yMO+gkbP5Ic7Hcydf4SNzwlGV7VUjv7nSvtLZHgzv4II+ID9v9f4d7UBew9fs07fz7kYD8LUNOLQ3DoaJBo+k6QgP2Fk4f9Ls1bjUQXZMKUz/5843PJ7M89PpXb/0PkHr/KGB/7SBmOn4nIuX9UTp+sWNq/JD/Iv4LP36Gz2BBTslTC7f4Gd+SVMbxx5tWLNDcjqeE34rCTfpyzjOWJOXR34eT5w3jHxGRpkYmsBOfSeQ6eIRt+dG2ItF9O23r+W25JmB9stAa/iQnnDSKddwdw0lmA63wrhsLtD2bqrL7bTdhZE8N7wal9yamX/d35+aGbxViw+GUSzvf/x+rL/i/fjaVo+2XQ6rx77SnnI5yyffIrKQmv4kTbn5IetL8LPj1lgGnhmcqUkDLaj99NHZ8DlM/+jPEpQLn9X0fK+BWgdPGx79h//ExC7v2jYvpkxdr+JfEnJQnYenwAE6yB8fFgLbmT9OD0EIDTfbdyrc0dmH9xX3HS4x9q4ngMjcX7BCHTJzys3GBZ9QAAZnhr8j1kkW3PGZYRC95M63USfNJCwE5OH+xXgXMLWTl8+DOXDlYP+7EjLo1hR/XsV5Y1MncXxi8OpC3CzjB9sN+pn9wU4DDuQuC9eJT2J6LP7c9jAat/yhHTctqfJD7rKW/7m8YnPaX3fxWJ4peeUsZHKyjZ8TOC7P0jimrok5Uy9C//9C0+zJVlHig2NDtRTzqvzjt8FAf/bvK5zNgYfMiICYKZIB9KCgoSZT+Kjt/vvg7glL2Nj2Xzl5HSfhX85OcSvn2W2w79sF8Fr0ewfmS/zn68uiwCgufKAUfM0xwcxGFTGThl+eGbbvthv6ifH1XQSmt/Avrc/njDf/QN7hW1n+/ThOq3fxdlfKqR/T5M41dV42Ne6PVJhO3HTwXx/aPe+sRT8v4lCdzoLm9oHGrIbYdleLThFxJv+s7tRkfeWADjc545+iu3YVrxpAI+n9v4qTeSFXE/iPM4y+jnO0fZ3wNmZzz3JzDnwuEwxZzK/ti/DKu+m5rFMF+2efUBKm4/BoR1nKupDLjH8OztGfvrPs0u6kES/bFfvj91u/soQDEnVxG0ItDbb05f+//srzCPIwaep7iYUmr7E8TnKErf/obxKYpK+H8k5vErinLHRwuw+vgZT179I5KS65OVcvQvQWjxRN5gO0345psrjO9hEuJFkXE5QzOqYRnvsI0HdwE6dqIXuziX+M6Vt/GGpUdlfxChBwTrl8V+1nC+eXn4TG3VnL++2K9of52NZH/gM8XvOZe+OfkicOgWL+qv//vr5687J4v9cf7B6a/9eLWHB9dguztU2n6xb218rrL9JvGpyvYb1C82fmXRh2F1fIzTx6R9I/VhxP3e6uMnQ1t/cb9HXPvXV5+s/lOm/qVMSmTlGu1ww8chGz7papOmxJ4U5ATZT/aT/WQ/2U/2k/05QvroIX30kD56KqKPMilJS68qbStkP9lP9pP9ZD/ZX0f74yB99JA+ekgfPVXRJ9ekhCAIgiAIgiAIIimpV3QnCIIgCIIgCILIA0pKCIIgCIIgCILoK5SUEARBEARBEATRV5RJCT4d4NULzzPpSwLe6NOLepM+ekgfPaSPHtJHD+mjh/TRQ/roIX30kD56SB89cfookpJl+HkK4GS7fHfwbz3+E05gEn72LXSXN6SPHtJHD+mjh/TRQ/roIX30kD56SB89pI8e0kdPvD6hp29hFrM+1FIsLIO4i7AEn4WMWdbSmNxAVAvcaDD7ffT+HfT1z05afQTx9Y8iTh9T/W3Vp1j/EYv+eBd+Uy8OZKs+5vWPotr6+OFlTA0k6mNV71+OJl58C2/FUHX/KVYfP86+VP5pqz5edPWPguKPnqr7j1NnL3n2L9Py66oPJ7gAo+I7/dVHEBgpmYH5xgB0vrfltgsW9goF7VxCR77nMgNXhzGIiGXk8bV3MQnrxkNB8b/X79+l9aYNnbEbsCq38yWtPub1VxOnj7n+dupTvP8cbruf8c+/jMLSzpOQDrb6j2n91VRfny4rT2C9weKt3DSj6v1LgqsYe2wwPeDVxn8K1KdLjH/Ws39R/KmF/xTdvwzKr60+zG9erTXg03P3O3cUSW+/9PHiT0pmm3B98BI+vVGI8WZHGtKCc/mWyzE8e+C/qrH14QxgsAHzs/INLQa/1+7fw9F/7PNRmEgyBIUN9nRZbmhIrQ/DtP5K4vRJoL+V+hTtP8fQOuJvd9nae8+CwzBcLYk+xvVXUnV9HJZhc3EYTraT9rGq96+s1MV/0mLqHwb+WdP+RfGnDv6TlgTxN46a6rN6cxQ673bgWaCfheiXPh6Mn77VOtIXVDTm+2/DN5aKjvw0I7cN2H0NJ8MLLJP9i73+gEdJHZ0RV79+6+dipz69ZnVpEgY7bTgMddJy6BNd/3wooz6rTxdgxCTwForF/jPm7IO9VFdhc6SU/atgfcz8k/oXQvEnTNn9p/D4Y1R+HfVZhokxlgx8bcKOUz57bSoTj/7o48WflFwbgkG4gH8zd6oZeDQ3CvCllbKDZv19UjDTZFksZrL7FzC9JhsumP3lpk9W4vTJW79e61OQ/2BGLzvkxAe8aqGes5ucHumTW/0rqA+r+9Lwe3hpPOSto4L9y7lSx1/ihkbl9BAjKug/ReuTq38GqUj/ovgjqaD/FN2/ci0/SBXi8wBMLw7BobOP/TMYX8yeQAjy1ceflHz+nmBKSDSrT+/DNLyH31PeLJP19yE8wS78Csxb3f2t6xx7wLI/r2PkpE9W4vRJrJ9l+hTmP566/3OT2Wba6W3RJ239A1RPH2daQz4nMVXsX/4rdewgsv0eOmmmPzCq2L+K1Sejf9alf5XWf4rWp+z+U3z8yVR+1fWZ/RFG2J/Ou9fuFK/dj3DKEpXrtwxGRHqszw/yb26IpwDgTTfpOlDW3wM04MogwPlXTyOjUIZPwfA9oUDzBIx+EadPvH5269Mr/9l6fAATOwv88Xctn+3l8J/o+uuppD4rN2CcBVjAKzRr8j1kkW3PJdtH1ftXF5w7zPZz5Rr+X7xlQl36V676JPLPevcvB4o/nt+U3X9UFBx/osuvoT6yLExMXHCa1kLgPaT/+vhHSo5a8KljmD0pwCcMCEH8N924sIyfZ1fqYaP43xvAs8Iz+MdURAk2Js/8mKDn+yLTCw0fZ9Qnnmz6GOlnsT7kP1mpqT4YNLG87usATtnb+NhF/z7q3b988HpewrfPcptD/atLnvoY+yejxv3LiDrqU3b/UZFn/1KhLJ9RS33EfSJ+RPIRwgJ9Aje6H8Nh+xIGhxpy2xwUZH3qInXAyfp7h+atBgx++ZisjBUxX/N32emjny2eXp+sxOljqp+t+hTrP8vwaMPfEfCmwXFF57NTH/P6R1FtfbJT7f61DKsr8r+cGXj0y2SiByVUvX8Vq4859exfFH+q7T/Fxx/T8uupj6zX1O3uVKvmRpP1r/CTsGzQJ7R4Igq0udOEb88f+m9C8w7LeBALvDTYbzCIBLmEE285ThmhYR3cZ8zvtft3hGWN+eI+XHmrEyYrafRh9TOpf2p9DPTj2KpP0f6j+lx1RaFM+ijqX1t9/IHVsRf2A/XMVR+kxP0rpAGjtv5TtD5ys4v4fsg/qX95oPhTHf/pQ/xRlV/z+CMSlwGxofStPurjQZGUyMo32opGzQjLqF4tjvJhxyKMxiEknrHlXe8ApI8e0kcP6aOH9NFD+ughffSQPnpIHz2kjx7SR0+cPsqkpCh6ZXRZIX30kD56SB89pI8e0kcP6aOH9NFD+ughffTURZ+eJiUEQRAEQRAEQRBBjFd0JwiCIAiCIAiCKAJKSgiCIAiCIAiC6CuUlBAEQRAEQRAE0VdKlZTgjT6+ZesLAp8O0Iv95A3po4f00UP66CF99JA+ekgfPaSPHtJHD+mjpyz6lCop2Xr8J5zAJPzsW2gmb5bh5ymAk+3yPeGA9NFD+ughffSQPnpIHz2kjx7SRw/po4f00VMWfQJP33IXYdE9CxkzIVyEJcnzkjFLWxqTG0hgARinTC+qhYn494ZacOfx3/KdfNGXH6WPWHRm2rcyjmrxp2ji9PGi099OfZLZp6La/lO8PpzgAk6K79RTH3e/QYL1sFOfXsSf8D6C2iC2+o8XXkbOx6+y6+No4kW9MKCaavcviUH8jKLa+pjXP4r4/sUo8fHLND5EUYv+JemOlGBhr/AHnUvoyPeUrDyB9QbTRG6aMQNXh/EgKZahx9fexSSsB4d4vhx0P8eXKiC23rShM3aju1x+vszAfGMAOt/bctslTp/Dbbfe+Nr7MgpLO08M62moDxKjv536JLBPSdX9pwf64MJLaw349Nz9zh3FAbWe+vwNG57P+Gv/jL1/Bv8EAmdd48/qU3ZABXYgdL7D9Blf/AMezcovSGzVp0tBx69K6GMQP9VUv3+Zxk81VdfHvP5q4vtXuY9f5vFBTQ36lwd3+tabHWHMgxacy7fCsExncRhOtnXfUXEMzx74r9ptfWCiDTZg3qhRPBz9x/Y9ChNJhqDQoZ8uyw0Ns024PngJn94ogrFWn2NoBZbM39p7z8QfhqtG9pnqY6C/pfpka//q+0/R+qzeHIXOux14FvDTEOQ/jBl4NDfKTtI++n7DqWX8wYMiO5Fvt9yTgN2PcAoDcOWa3HawUh+Hoo5fVdEnLVXvXwnip5Lq6+NHU38l8fqU+/iVID4oqZf/dJOS1pGioACrTxdgJHXHNGBsgWVTf4mXN0v20YZvLNUa+WlGbhuw+xpOhp2yTbNTPyb6eFldmoTBThsOc9TKTP9y6FMIFfKffFmGiTEWLL42YcfRh702lYGpxv7jIIPryZ5qCLqO8ecYDtuX7BjY7Pap5kYTxpVXQu3Vp7jjVzX0MYufOVC6/pUkfuZA2eOPtv5pKPvxK0l8yIGS+4/5je4sW8Il7l8aD+nqcDK5lnuAcDIp/hI35PiG7zKBmaYse/8CptekYwezv2tDMAgX8G/agxZmlLLDTHzArNB0eDeIQp9c9Q/SI326KOxLREX9p0sB+sAATC8OwaGjUaLh4ziqoI9L81Yj5wsK5Y8/rc2HcGcb4J4s/x5gf/NfvUtPD/Qp+PhVen1yjZ9V7F95xs+Kxh9J9vqr9Cn38Svf+FBt/zFMSpxh77QHOT/d+XWem2H8mRQTYfs9dCKHpwJ4DsbhV2Be9e5vQlz22gOW/XkD7+fvCaY8KPCU/c9Ntu+UQT2sT0b9bdFHomr/JFTWfyS56zP7I4ywP513r90gKIePr98yuGJSA/9xwaeHDIBvqD2OyscffI+V9wvAS1n+S7jLbDM8Kei7PsUfv8qtT8b4GaBy/Str/AxQ2fjDSVH/ACF9KnD8yhQfAlTbfwB+kH/1rNyAceYAgBnSmnwPWWTbc0ycBFfkxFME8KadmN/g3Le1STHnzpd5NeDKIMD5V08QRaFMh8G8T3BI8PSMpGw9PoCJnQX++LVWgiE6pT6J9LdbH+P2j6Dq/lOIPlILDOwuOIy7EHgPqbn/8L7GPo+8ol7D+MMOdBNj+MQU973W5g7Mv7gvTgp8J7QW6lP48avk+qiIjJ96Ktm/EsVPPZWPP7H116PUp/THryTxQU/l/YdhNlKClZbZkXgdsCxVPNbLP0VgGTZ5dqXOAPEOfCGowbAVz44v4dtnue3A308+Fw8bk2d+TNBzrDfaERT0qAWfOumufpiRUh9j/RkW6xPf/vX2n+L0EfNI/YjgFKLm/oM3VGpv0Kxj/OE2G2KjPkUfv8qujwpez2D8rGv/Mo2fFH/09U+rT8mPX7xOJpD/IOb3lGQEBV2fuogQdBlWfTctzcCjX1g2ppgXx+fL6URXsSLmEzuPY4t+NrS8IWmoIbdNWYZHG/6GwJsqMWM1bXy9PubYqU92+6rtP0XrI+s1dbs7FCtutAs/KaOe+khmf4V5vKL1QTUsLqhl/OEHG4DxOc9Q/cptmB4sj/9kpdr6mMfPKKrdv+TvDOJnFNXWR2JQ/yj0+pjrb6U+CeJDFLXwH4m7eCIzqDss40G9gBJmdAsALGPyVdApIzSsI74fXtzlEk6eP4RnR4rPlUNDLFi+uA9X3uqEyQrWpQnfeL3kW4hWn4bCPtUVtbT6yM0uEfqXSh8kYB/5T4C89BFbIrA5C6SpfKve+uDVIB58Q37jUOf4I2zXL/5lqz5FH7/w/2XWR+E/qviZSZ8y9y/hP7Hxs+b6xNY/oz7lPX6hPgbxoeb+4xBY0T0jLKN6tTiqCMb5EC96PnDnb7Tz3w/po4f00UP66CF99JA+ekgfPaSPHtJHD+mjh/Th5JqU9MroskL66CF99JA+ekgfPaSPHtJHD+mjh/TRQ/roIX0E+Y6UEARBEARBEARBJKRnN7oTBEEQBEEQBEGooKSEIAiCIAiCIIi+QkkJQRAEQRAEQRB9xaqkBG/08S1bXxD4dIBe7CdvSB89pI8e0kcP6aOH9NFD+ughffSQPnpIHz1V0ceqpGTr8Z9wApPws28hp7xZhp+nAE62y/eEA9JHD+mjh/TRQ/roIX30kD56SB89pI8e0kdPVfSRT9+KWpxFtQCUGszSlsbkBhJaAMZg8RgGZmHrQy248zj5qqAm6Mt3dfDXrWh9zMu3Ux9JcIGckA9EU23/kRSqT9CHFIvnMezUx9z/1YR9Q2U/r1t38a0y6YOY+X8U1fYfxKz+asrvP/Hta1b/KMruP/3Xx+7jl4k++v6nR19+0Hdcgvuppz4Sg/OHKugjR0r+hg25hHz3tX/G3j+Df4yEnYGrw9iJ3d/vXUzCumeIZ/Up65DAKuopf3zxD3g0K78gab1pQ2fsBqzK7XyZgfnGAHS+t+W2C4r9CgXrXEJHvudStD7m5dupDwMX/llrwKfnHhtCThlF1f2HUag+eMBj+/5y0P3893fDsKQYYq1m/wI43Pb/fu/LKCztPHHtZPqv4xUeqT//vDT6mPu/mqr7j3n9oyi3/8THT9P6qym7//RbH9uPX/H1jz2+aYkr3/bzn37rwzA8f6iCPhHTt1iQmRsF+PLR8ErBMTx74L+qsPWBOdVgA+Z5p8NKs+Sp3XJF3P0IpzAAV67JbYej/+AcRmEiyRAUNtj/397Zg1aRvX/8KbbKLWIRwi6CIVxRIURIEVLcWFiEgKRZbAKBYPgXroggklJZFi3Dr1kW12JRAsI2dkGQFCn0FpIioCy4YggGFpeQIlvc1P/zNnfeznnOmbkzN2dmng8MyczcOXPmO8955ryfx8tqB2GuA5dap/D5bXxZe8HbTfWiu+z+NorWJwkSvqf6rF25AL0Pm/DkvTqQifrbT6n6iHgBHHwKay+6G1040NlXTdNXN6Hr862PzPmNwXllPzy8UH9pT9r056U+GexfS83tJ0v8tVTdfuz+0zn+WqpuP2esjwrP3++XLf6MTP47iUP4MRD/31B9nPMPNdBHXyhRN9/bijfR5GcXdvZPWRw7kZJTBya1NaH7cMKKUuM/zKp9B16+hr2xBVYS+4NtrrWHcbrvk0IjFK5PAjR8H/VZhqkJZqzfOrAp7iG3jSwJA6Xq9lO2PiZ0mdZmpK+1pWlo9fZhRzjxNpxjmaajbzIOnfVVmDk+FJmCS9eSOvioTxb7L5KK2k8f10JbmqrZD06W+BeJP/aDU7Y+/n+/bORLfznxMP9jo1x9suQfqq+PtlDSudaOOOQ8BCXdbr9k1924BzdfANxWgt4GXnKKl67yw0tqrBTGS2JvjmHmrnpxydLfxVFowTH8k/u5JGXoE2Xw8JMMQ58RmFkchR1+D3GfLN1LktTRfkrU530XPjNHNHkljK/86GV0TkYqkr54jY+yj6lPLK5B8/bc9zAufsCYuw+3rx7D1qPXwnkXQ/n6FGv/NbOfouJfG/tJvN/C4191+xmyPoxqfb/S8S8WPHz/8z9noU+R+YckfumjKZTw0fUjEGtqzEi//2RkMAwfCPPqFsAzJeozWGUP7ihq5GOR3iL9fjkvf5Hism0LWOkv2i/vy3+RJvm8lKNPSI7wz1of5dR7H16HTlY1T+epaaqd/ZSuD3cq23AwEdR28I9eF/ZcP6p1SV+RuP11hcU9GjcBc5a3puHoTcbMgAf6DGT/CepnPwPGP6Am9mP+vuSMf4Kq28/w9eHH2LNU5Ptl1qcY8PD9z/8MXZ9B8w8V0+c79Tdk5bJoVtzayNccJUfh80Ev0UE4vPmJj7gPj3U3NuH605+kqLGmnXhTqoAL5dpNITpDgXYGgAEpRZ8I1vA91If3Y2Rh9mubBLwZcSFxzE4t7ad0fTh8sGDUCfCZLhI6COqdvgKeP9qGqc0FMT1i96XSf34VJo+31bNKHdL4qE8W+8epr/24xt+NqtqP9v0G/scp/jhVt5+z0ac63y/z+y0Ga/ie53/ORJ9M+Yfq65NqKeEDaswDTLmj4aUrfQmfj7CXEUrUNESbR22I32bvK83FECU/JujRG1nSS81OIJqZB+snWoo+EfDwGV7qI/sxxtE59abaT8n66BDO/RROvqj9gBqnLzNS/1aLd8tQGSehg2bQno/6ONs/2U8fbfzrbT/m9+sa/3rbz5npI8JyxEt9XBncfnzO/5ydPq75B0al9ZHECyWslHSdl+gjs2i4wiP0gPfF1EVIPAzA5HykKWjlBsy00k5d9CfEjFLHys+wNMZKdVxItpnnh1YDzkbbaj8jZekT4BC+n/qo667e6DcFyj7Fmo+2gXrbT8n6cOZmQ22481vkzj3dp7Oe6WsZHq7HHeXa4wWmb+Ccd+HJu0P2N2x6jg9kDvFSnwz2b6L29uMYfz3Vtx/8/brH30TV7edM9anA98v6fgfEKXyP8z9nq4+Kl0P+oQ76qMUTJby0JCKXLCEFMKMRTTupZh1eAuROPMkp7P12TzmmWYfFg+Rvzr3DhBkUHtcOnPTjpQieTe0G9D78DquqKbFcfRzC91wfaZjB4lPxZxM03H5K1Yc5llc8IxDA1wxI9elsUvpK19jE9dfV6Pisj4P9N9l+XOJfW/txeL8Ma/xraz8e6OOSfn3Wx5b+OAPp43P+xw99rPmHquujiBVKrCjHg63GOAh2oywG8XLb+8Xfh/TBIX1wSB8c0geH9MEhfXBIHxzSB4f0wSF9nMhUKBnWQ1cV0geH9MEhfXBIHxzSB4f0wSF9cEgfHNIHh/RxI1tLCUEQBEEQBEEQRMHoV3QnCIIgCIIgCIIYElQoIQiCIAiCIAjiTKFCCUEQBEEQBEEQZ8pQCyV8oE9s2fqS4LMDDOM+RUP64JA+OKQPDumDQ/rgkD44pA8O6YND+uA0RZ+hFkqeP/od9mAaflxRB0phGX68CrD3onozHJA+OKQPDumDQ/rgkD44pA8O6YND+uCQPjhN0cd59i1eSluaUDucxAIwvHQVLuwi0S2MIn432tUsrFQMpvBt8bedt+F0fXIBGc1v/NQnvfCTfvEwM/W2n/L1EZD9hMTCNy3elF6grLn2k76Hbr58P/WJI8JgviLLfP/28JM2pNffV30CTaLo/KceN/uL36Na+ggc/Kce1/QZ2pDJNv3Ux91/6rHr45q+/bUfN/+px6aPq33V1X7iOLaUzML5MS6SXIaeb1vH0/Ag2cTDV3GN/EbnELtv96E3cbm/XH6xzML19gj0/ttX+wG2+Ds+nxGH6/nCOXfb8Pm38Dc3NYnST30Adl5E4s3Pf70AS5s/O8az7vYzBH3IfpDw/4T1yDmxvTlkxw/hr4RDbKr9rD1mHz1gH5LgN0yfycVf4eGc+oHCV336sHTwoM2+iWrXDVv4PFPAPqoR//O/D2OwpLm/1/o4+E8TVvvjuvMaVOV/xPkq6ePoP03Y9OGZuVc8Y9Y7RW3TT33c/acJXB/39O2r/bj6TxM2+3H1/3W1nyiOhZJdeHInXmp7/ondtNWG644vpc/7f+EILsBUliYo7lAeL6sdhLkOXGqdwue3SWdsi/+gz2e/fu3KBeh92IwszW/AU326iXg/3/rInO8YnC9IH2caqg/ZTxb7YZnM+Qssk/Z37BpBI/XhHxWWkd/vhpmwl3/DAYzAuYtqP8BLfQKWYWNxDPZedFkcs2AJX8QL4OBTWDvY3ejCgc6+vNYnLzb7k+kp9D/SnrT391QfZ/+pxSF9vt2UmbE7FtushP0g/lOLTZ8M9/dSnwz+U4tdH2f/X0v7iVPsmJKJBXi1+YfcNKVgyT6c9ADGf5hV+w68fA17Y0HY7qVTf1iGqQn2sr91YDPQh20bWsOqhj5rS9PQ6u3DTi4nb6BG9lOsPmQ/mVDOdW9L18TdRH12YWf/lH1DOv001VnvwKS2JstffdYeL8B47oxlHnSZDo/tx8l/uhG3vzacY4W2o28ys9JZX4WZ40ORKbt0LamDj/pk8Z9uJNNn930yI2eiAv4H9Z9u5PdfPuqTxX+6YdPHfL7+9pOzUBKUhLrhByKoKRCbHJCja57LBy+pBc1CxzBzVzmWZOnv4ii04Bj+sSYETfxj2M7b0F0/AjOLo7ATaJSx+Q9nSPrwErcw7D9g6hO7V4bm7zg1tZ8y9SH7iWAIX9G51s75QTRRfX26G/fg5guA2yr828DTW7z2Kz9D0IdpszT2EZ5l6JJkJhH++y58Zh/6ySthfGWmI+PH38gQ9CnCf5rsb+57GBc/YMzdh9tXj2Hr0WuROSqGYaSvAvxnYekzK0PyP4rc/tNZH/z+2Slfn0L8p02f0uyrIvajyFUo6feviwyGidcUMBFefISesXknQeRlpLdEv7qXv0hx2bYFrPQXdbxf/tM3eSXQxT+K7byN1PXKqfc+vA6NWDX/pWuaNPiiTyTsv66we+csNNTWfsrSh+wnhjF8AZ89ZARiTe02GqAPH6j46hbAMxX+M1hlz+aYKTtzfYJuW8V8pNPh84/2NhxEWhpuszvtuWa6PbCfgfxngNX+WGbk1jQcvcmfGUtvQ9BnUP8ZUFD6TOGL/xHk8J8Bjvrg99fggT4D+c8Amz557asu9qP4Tv11Ro7C54NeLB8I3vft7rRs/o6VmOJNwQIulGszWHQGDefZM0Js8Xd+PgPa65UW/domAW+GW0gc4/itT8DzR9swtbkgpqfrZmjCrLv9BBSqD9lPH2v4K5dFs/qWsUa9ifrw7it8JpTwWHdjE64//UlmymIZWg/1Ee90BIDX8N1VxziLbH8+2z3M+vPBmtGPLJ9RJqGDoBr2Y/afbsTtT/mf+VWYPN5Wzyp1SOOhPpn8pxt506f39mP1n26Y9LHbr4/6ZPGfbtjsx3y+/vaTaCnhjpiXrvQlQD7DhIyQQ02JqJ04hZMvaj9AHM/eF4+LIUp+TNCjN7Kkl2reEs3w5toPW/ztz5dXH9kPMI7BqXusj51m248dsh+cwe2HD2hFB9g1UR/xzI74qA//6PLw+ts2HLDDfLrJ+D0K9D/i41ph/yPimYw/ro8Z6X9aLd5tSxXcVPipQbFe6uPqP/PqkwHP7Qf3n4Pp42S/Puoj4uQC2U8R9uPcfYtH6AHvS6qN0DKssRJdiGzm1fUrE/3Nso7KX5H9iYPp2MzzHqsBSaNttR+Cx99+3gZ+vYrX1Rv9pjTZZznt1P3UZxkerscNlQ86zTLQq972U7Y+ZD94+Iq5+3Cd12hFZlFK0kh9xMcGYHI+0lS/cgNmNDOt+OqfB8Ua/txspKsE+3gu6vtM+2o/rv5Tj83+duHJu0P2N+zaYRqI66c+6joH/6ln8PQZ4HX6cvCfeuz6uKZvL/XJ4D/12PRxt6962k+c+OKJQdNOqlmHl3C4SElOYe+3e8xxa85rm4aYs3z6E5x7hwkzKDwuHTgR8VKH8sRfEJxXu7n1kXvyxQaLTyXCFlRJH12NAtlPSJH6yD2ynyRxDXhtkHC+KbsJaLI+8tnxxb981Uft9pG/h2T8B9GHfbhf8YJIAF/zI9VnukL2o/OfmfRJ21/c/2js03P7sfrPQfQJrlW7AfEFLP3Wx+o/c+vjdn+/9ZFxQ/1nofpUL33lt5848UKJcsx5VmF0wZ5pKAbhfNr7xd+H9MEhfXBIHxzSB4f0wSF9cEgfHNIHh/TBIX1wHPWJFUqG9dBVhfTBIX1wSB8c0geH9MEhfXBIHxzSB4f0wSF9cFz1ibeUEARBEARBEARBDJliV3QnCIIgCIIgCILICBVKCIIgCIIgCII4U6hQQhAEQRAEQRDEmVJooYQPZHFeGn8A+OwAw7hP0ZA+OKQPDumDQ/rgkD44pA8O6YND+uCQPjikj6TQQsnzR7/DHkyLpfHLYxl+vAqw96J6MxyQPjikDw7pg0P64JA+OKQPDumDQ/rgkD44pI9Ezb6VXhgmvniL7XwIL4U9GO1qFp4qBlP4vJS5NKF2OLoFWpILHFkWcQmpvz7iuv7CUpL4wk8Y9ud3ej8Mr+1HEWjlPh+5q32EixSZwvZTH3f71+N2faC7pErpazj6VNd+4gTvucj0VXX/E2gSpTj/7G6fvuoTJdCqeP8swcL3VZ8gzlGK/L67hu+rPoLS8odV18e0eKL5OxMnW/rqt5TsvJBL0Afb1tcLsLT5M6w5ng/ovt2H3sTl1PFimIXr7RHo/bev9gNm4fwYf8hI/I6n4UG0iYov3HK3DZ9/izyHk8FJaq8Ph69iHPmNm8OS4M/veH+G1/pwmB09aLM0q3ZdsdkHdxaveMLvnaJh+6qPq/2bsF7Pdec1PCr9ivMVsp+y9am6/fQpJX3VxP+U5p/d7bOp/rmPJfym2o/AIXxv9WHvtcz8oaCy+vwJ65FzYntzyI4fwl9Ohf4M6YuhCiW70O0vKS95vvWRJbwxOD/H92znI7z/F47gAkxlaYLiBvF4We0gzHXgUusUPr9NvsxdeHInXup6/omJ1mrDdRW/tSsXWMl0M7J0fhbqr89g2PVxvr/X+izDxuIY7L3osjhmwcE+3m7KBHvHEraX+mSwfy2262fh4Xw0/XInyv5Uxn7K1odRafsJKCt91cX/5MWuj7N9NtU/CxzCb6T9ZMBTfcrNH2agEvYjv8fw9e/YNWay6WMcU7K2NA2t3j7sGF6S+fw+nPQAxn+YVfsOvHwNe2ML8GrzD7b9Cg+zvkgryzA1wV7Gtw5sinvIbSPLi09QL30UE8E92KarhcqATR8z/uqz9ngBxnM7rjhJfbrvk47ChMf2EyH/+5fEr2/DuRbA0TepUWd9FWaOD+EARuDStaQOTdSnHvZTZvpyh/wzx3y+ufbjFn6D7ccpfB/1GVL+sLL6JFCFm72t/F3MMP8TL5TwEpcSbeoTr3VLNF/ZzueGl9Rks87NN8cwc1e9uGTp7+IotOAY/kGdAicoyXUjDmQEZhZHYUc1H/Hmp8nFjC+wzvoENa1ikwOutM3jGM7Pr3s/gzAEfdizLY19hGcZmrxTlGYfNoaRvhiDPp/p+rnvYVz8gDF3H25fPYatR6+F8y6GiutTOnVLXxX0P8Pwz6XZVw3sp4jwjdTAfooI38gw/HPJ+cPK6xPSudY2FihQMH0iqIHuacTAF5YITQN9zOfZAz39CS7tRwbx8MgssofUwvuyxZuOAlL3EAOReL+/e1qxAvTXTQPEBhbJwTvjzoO94tRKHx2OYZnA7oHf30d9uK104KR/nbQdcB5ImcasgS3satiPy28wYter9Hv05nc4mf8Jzr3j2mh0EDRQH3VMUkX7GWb6smlfDftxDcuE7R7m8020nyzhk/0IjOF7qI+4brj5w0rpE2MwXQKwe3yn/qZ4/mgbptjN+fRkXU3CNp+Pd7UQvPwFbro6B2UgYqC+8+wHIeJhJ/iLilzH++mxMPu1rQLeTMbEVXtZqZU+OpRm5y7y/+WhLJie335/D/VZuQyTMALAayDuqmOcRbY/n/0eHJv9mKmG/eR/Pkn8epV+51dh8nhbPavUIU0T9VEHnWh2+qqk/9FRkn8OMJ9voP1AlvDJfgTG8D3U5wzyh5XSJ4pIa+z8AAUSDqZPoeuUCERXC/dR+QFcDNG0wwQ9eqOaopKCvu/C556uH7mEz0AjBU2WHGU/vTjy5cfhpUAejxL75XmpjwYRz1M4+aL2BYPp43R/H/XhTkE0uwbbNhyww3w6vPg9yH5w8uoj02+rxbttqX6syj5Tg/YaqU8GGpy+Kut/dCj7L9I/O9FE+3EOn0H2I9GGz/BSnzPIH1ZKnxA+IYB5gHsx+qhCyTI8XI9HlA/q4iUiKY7tfIjob+Y8Kl+xIvtr/k8lenOT6y7s7J9Ca7St9kO4oA94X3OtoOq6qzf6U5B11jss/rqZCHTUXZ9lWGMl1pBZeHiLlbad+w3anx+/f4if+gyKu33Y8NV+Bns+2/W78OTdIfsbztZhGijXTH3caWr6qrb/Kds/u9sX+WecptqPa/h+6qOuKzF/WG19FHP34foEK4x/yjrAPVv6UmNKeAmH/yhKtMRkOx/AxH4a9PlWhwqHxyXav5Ojix/nFPYiv5PCBwvYxM8JgqavVLNX3fXRnNc1/RWqDyf5Dvy2nxD5+1Sf4tz6MKLNrhHiCyxVyH509j+IPox4+q14+ipan0rbj9rtI39fXPpyvT/555AqpS+120f+vlD/HMMQPtlPiC58z+1nqPnDCurDW2NE4ScVb0VB6cs40D0P1kgXhDCe9n7x92ElTj6gyG2VyuyQPjikDw7pg0P64JA+OKQPDumDQ/rgkD44pI+k0EJJ1RmWUVQV0geH9MEhfXBIHxzSB4f0wSF9cEgfHNIHpyh9qFBCEARBEARBEMSZUvzsWwRBEARBEARBEBmgQglBEARBEARBEGcKFUoIgiAIgiAIgjhTMhVK+ECWV0/vQ0ftlwWfHWAY9yka0geH9MEhfXBIHxzSB4f0wSF9cEgfHNIHh/RxI1Oh5Pmj32EPpsXS8OWxDD9eBdh7Ub0ZDkgfHNIHh/TBIX1wSB8c0geH9MEhfXBIHxzSx43+7Fu8dBUuHCOJL7wlEb8b7cLNR1lXdXTDFD4vZS5NqB1OaoEWufDMTGT1MPf5ktPXJhd3qb4+yQVssMWhklRdH3v8OfFnIH3Szx/aULa5yOuvjz39YTjqHyxOpXZ19/BTH1f7MlF/+4kSPEuR3y8B2U+E6PWmxePSfs5X+ynf/6R/o7PP5urjlr/yUx+X53NHxEHjv4LjEnP48UKJi1jCsY3CTs4I40hxLu0nPyb8+A345054T2FkkTmRk/tyIZcxw4qvSWahM7cL3cjvpBGHwlVbH2V0x9v9+IvncV5Ap/r62OKftJeUPaHUXx8Rf+5QeqfQa43AUcZCSb31saU/G9nt04in+lifD6Xu9hOBv+f5sYxpjOwHJ8f1Qi9In2+o/0mFZ7KnRuoj4+WUv6pl+opg8l8Je8H0zz7Q/f2/cAQXYCpLExSP0ONltYMw14FLrVP4/DYqKGcXnkQMivP80yFAqw3X5/jeLJwfY/ml/W74gC//hgMYgXMX1T5K/IVwnm99hB6MwXkRfgZ81EdcB3DwKfxgdze6cNDXz0b19cHjzxLz/AXofdhUDlbaU2hfNuquD+PtJtxc/T+4eafL4peVuutj80827PqsXYnaJ4Kn+gz2/utuPwHLsME/3C+ypjGyH5ys18vvAXz9O50ha6T/yZC/aqI+Il6O+atapq8Ak//Klr+KF0omFuDV5h9yMw6U2YeTHsD4D7Nq34GXr2FvLAj7V3iY6UFd2IWd/VP2jJ1+nDvrHZiEQ/jLuTY3ztrSNLR6+7ATfVmV1ceEa6EtTdX1ice/DeeYUzn6JhNzZ30VZo4PhdO9dC1DPCPUSx/mZN8nHd1g1E2foomHvwxTE+xj860Dm4E+bNvQftiqoc+g+tXRftYeL8C4S8HBAbIfHPR6lbnb29K1ujXR/2TJXzVRHxO6/FV905fZf2XLX32n/sqa0H6Tj2wGesAcOzg1b9ngJVUVNi/13WXi3mX/fw2buwQXR6EFx/CPVYigJmO7L0B34x50edMYe3EP2D7vT3xzNWNGisdtkYXL4P3hbkYTXKX16cLnW9Mwc4WXtmV40qkwnUTicNSp6vqY4j/3PYyzP6J0z2zo9tVj2Fp9DefZM/DjztRVn6JojD7J9OcIGv4IzCyOMrv8P1njJ37LPlBfLN1xnBiSPs76GcCur7r9sHOiO8Mjfp+2PJYVVF+yH9frO9faBWdoq+9/CslfGam4Pu8Lyl8ZqUD6Ytca/VfG/FV/TEkK0fetDZ9TfVClw4/1W4s8TBpzv7RUvzLjPePo+qMlj8k+8GDvQ2sA6/MmqJg+yYFYvQ/b8Lm9oOl/6EaV9eHErhXXTcPRm9/hZP4nOPeO94XUxDMDtdJHHZNIOwLmtNzHlKSprz4Oz+ZALAxlnxAbuC3fw3hqMLf/+nAG1ch6faXsh7/LDpz0rxs8jcXCJ/tJYb7epEtAA/2PZt+cv2qmPoHd2PNXdUxfFv+l/I9r/ipsKUnC+76xgETzU+wB400xgpe/uJeqVARZEOzNZTcMIZYYgBO9jjdP89JdeKy7sQnX+UPz5qEcXU+eP9qGKSYsn76tq3u2SunD+RPWVyOlamE4iXhmoKr6BMTjL+M6Pr8Kk3ywmoiLjGde6qWPOlggddXHnP6yobVPdU7CuwGwzJPaC6mG/QxqX7WyH7jMMjMjAEENaMAi25/Pdw+yHxzj9Sv8XbD0m8gohTTR/2TJXzVRH37ENX9Vw/Ql0ozZf928o/yPY/7KPNBdNLmcwskXtR8gjmcfq8GNQfSJY5Hjo/LloNmEoLwZrGfux89L59KgEiVH1TxkhxsKj0cB/fKqpI8OYUjJ+NdbHzOyn2erdQxbQXOoin980FhT9XGl2frY019efaR9xjE4dbIfSZXsh2dKeHj9bRsO2GHRhSJ2D7IfnMHth08IoB3gHtBE/yOe2ZEm6qNDm79i1DF9WfyXe/5Kogoly7DGSkQhs/DwFiuNafpViv6WWKLVsaL6m6lIm5uk1YCq0XSfWm5QD0RfNI1BiZcBMDkfGdy4cgNmtDMR6FiGh+vxF8kH7YQDuSquD2duNjLwkxkXby782rU280mqro8t/rvw5N0h+xvONpFtoFfd9RmU+utjTX8odvsU8bp6A9bEWX4/3mc57d/81GdQ+6q//QwG2Q+O4/Vz9+E6bxGIzKKUpJH+J0P+qpn+meGYv6pn+rKRLX+lxpTwEhCPRARt0xBz9k+DPmHqUOHwuET7p3E08ROcRvo0yrihi/sETV+pZ9OFHy1R10AfZtixfovJQVKcRumTrjGRjgtZ3KfJ+kSbjSPEFqhrrD6685yof2Lk1kcSt89E2IIq6ZN+vqb7nxD5+9SYErKfCEXaj4TXRovMX8puAprsf+Szo/mrJuvjkr+qbfpKIsNL+i9r/kphHuiuwZ5oi0FE3nlhvwwow0knpmIgfXBIHxzSB4f0wSF9cEgfHNIHh/TBIX1wSB83MhVKqs6wjKKqkD44pA8O6YND+uCQPjikDw7pg0P64JA+OMPSp1GFEoIgCIIgCIIg/MM8+xZBEARBEARBEMQQoEIJQRAEQRAEQRBnChVKCIIgCIIgCII4U2KFEj6Q5dXTyFzUJcFnBxjGfYqG9MEhfXBIHxzSB4f0wSF9cEgfnGHpQxCEmVih5Pmj32EPpsXS8uWxDD9eBdh7Ub0ZDkgfHNIHh/TBIX1wSB8c0geH9MEZjj4EQWCkZt/itRwPRruahV+KQR9+emEebHEVEcbVkQzzJbuEn1xARn9/X/UJNIkSW9gOpf76CILFf9SufoE1O4HWSfuLv4Mq6aNbPEnilsaaYD/p3xTrf9zC91cft/erp+r6xBG/yekf9BSnfz31iTNI+C7xJwiiPFJjSrpv96E3cRnW1H6xzML19gj0/ttX+yE7L+QS+sG29fUCLG3+nI7Hys/woM3yk2rXFTx87vSZQ+ercKrz//swBkuaplyv9YnEn29uBRJJ7fXhC//cbcPn3yK/yzPftsn++HFeQ6jCF/evjD5/wnrknNjeHLLjh/BXItNnou72s/aYZQqBFWKD3zB9Jhd/hYdz6gcWigrfT33c36+JquvTZ0D/YKLq6atPSfr0GTD8cvUhCMJGeqD7+3/hCC7AVJYmTJbgXz1eVjsIcx241DqFz2+TmeVd6PaXxJc83/rIHMsYnI99dJZhY3EM9l50WRyzYAlfxAvg4FNYO9Ld6MJBqw3Xk5kOr/XJS/31WbtyAXofNuFJ4nfZMNkfyxTMR8OfhfNj7E9l7Uc+D3z927Gmsu72I99nb78bFmJf/g0HMALnLqp9lALD91GfLO9XS9X1CSjAP2ipevoKKEufgDPyzwRBFIZm9q19OOkBjP8wq/YdePka9sYW4NXmH2xzrz3EWFuahlZvH3Yiznjt8QKMD5yxlOjCT6PLdPirD0wE9xh8wF699FmGqQn2sfzWgc1AH7ZtZPzwmO2vDedYpuDom/wYd9ZXYeb4UGSaLl1L6uCx/QSozMXeVpjJyUq97GcXdvZPWR6m009TnfUOTGZoSUqSP/wK2E8f3ft1o4r6FOMf3Khi+ipbnzPzzwRBFIamUJKHXXhyRzUtvzmGmbvcebEtWbtycRRacAz/mBwpr5ERju8PmPrEwop2r2Hn+BL3zzJ0SUphCv99Fz4zRzR5JYyv/OgV5ZyGoM/bTRm+2OSAvQdZCyZ11od9gGYWR2En0Chj9xvU/ua+h3H1Lx+3cvvqMWw9ei0+bsUwDH1COtfaDhkeDTW2n+7GPbj5AuC2On8beHrL2Oe97PCNlKxPUe+3yvqwuJfuH8rW30gF9BmG/gRBlI5boSTiDNNb2O9X8PIX6bzYtgUL8Rr7L/9FmuQ1RK796woLu39t0CwbfqRyYQyfO91tOIi0NNxmd9pzdVpnrg/7aL+POmP2PC8+Qi9r83dd9VEfpd6H12EmRnX/cKuJc7W/WXh4axqO3uTPrKa34dhPCJ89ZwRiXWVcqav9MMR0obcAnqnzz2CV3TtjrXFZ4Z+5PgO+34DK6lOyfwgoS//K6zMk/QmCKJ3U7FsigW8uAGhmNnEiOsNRcnYjcY4PNr7n0AUrEg9gTnPxgjqeIOcMSvbnNJ33UJ9M8XelTvrI/8djs5GxD9TTn+DSvsMMZfyjjdjfzTv/yvB7p9A6DmZu0d2T46M+6hBHPCvknvkmxPacpvM+6qOLUwb70ZI3fB/1UYdiDBjPKulTqH9wxfacpvM11Mcn/0wQxECkW0pErXL2vtKiJovXrDCHdcQStKhNiTosjmhmztGPNlI7I7dtOGCH+ZR/8Xtwh8Ljkb/fa5+VyzAJp3DyRe0H+KiPDhHPZPybqo/sJxxH9jOOY9DHYn9B+K0W7xagxmEo/VODPj23Hz4hgHmAe0PtR8TJhZz6OIfP8Nx++mjfb031Kcw/1DR9la2PB/6ZIIhiSBVKRH9y51l3FCuyP2cwXaO5hkENWBxtq/2AZXi4HndkfNDaIANJ4ziEPzcbNkNz58drXr52UzWGfuqzDGuxQduymdp9XEDd9VHXXb3R74og+1xrPkq52IUn7/gUumHXBdNAVK/T19x9uD7BPuaRWXzcqLn9iMwWwOR8pKvKyg2YQWcailJc+N7aj+P71VN1fWy4+wc9VU9fNgbVx0bJ/pkgiMJIdN+STeLn3mGOZ1CYw9zswEmsiZcf4042CrZ4kvx9qok1aFpONiu7hM8cb6wJmM/5HtSq9PFVH835lAaMxuojiS+edQp7yW4GRn2SyPsl7c++OJff+vDaUJH5MD17o+1Hxg1dvG8QfVzC91kfl/dbW32SyOfJ7B9qm76SFK1PkpzhD0UfgiAwYoUSa6akIIRzaO8Xfx/lmNMfq2IgfXBIHxzSB4f0wSF9cEgfHNIHZ1j6EARhRjPQvbqQU8EhfXBIHxzSB4f0wSF9cEgfHNKHIOpPrQolBEEQBEEQBEFUj4IWTyQIgiAIgiAIgsgHFUoIgiAIgiAIgjhDAP4fuLtUDKVTKJcAAAAASUVORK5CYII=;" vertex="1" parent="1">
          <mxGeometry x="-45" y="-273.5" width="580.38" height="416" as="geometry" />
        </mxCell>
        <mxCell id="5m0OHBA38H0runsn4Bls-6" value="&lt;font style=&quot;font-size: 26px;&quot;&gt;Path&lt;/font&gt;" style="text;html=1;align=center;verticalAlign=middle;resizable=0;points=[];autosize=1;strokeColor=none;fillColor=none;fontSize=16;" vertex="1" parent="1">
          <mxGeometry x="209.69" y="-327" width="72" height="43" as="geometry" />
        </mxCell>
        <mxCell id="5m0OHBA38H0runsn4Bls-7" value="&lt;font style=&quot;font-size: 26px;&quot;&gt;Maze&lt;/font&gt;" style="text;html=1;align=center;verticalAlign=middle;resizable=0;points=[];autosize=1;strokeColor=none;fillColor=none;fontSize=16;" vertex="1" parent="1">
          <mxGeometry x="-304.5" y="-497" width="82" height="43" as="geometry" />
        </mxCell>
        <mxCell id="5m0OHBA38H0runsn4Bls-8" value="&lt;font style=&quot;font-size: 26px;&quot;&gt;Sovled&lt;/font&gt;" style="text;html=1;align=center;verticalAlign=middle;resizable=0;points=[];autosize=1;strokeColor=none;fillColor=none;fontSize=16;" vertex="1" parent="1">
          <mxGeometry x="703" y="-497" width="98" height="43" as="geometry" />
        </mxCell>
        <mxCell id="5m0OHBA38H0runsn4Bls-9" value="■: Wall" style="text;html=1;align=center;verticalAlign=middle;resizable=0;points=[];autosize=1;strokeColor=none;fillColor=none;fontSize=26;" vertex="1" parent="1">
          <mxGeometry x="109" y="194" width="98" height="43" as="geometry" />
        </mxCell>
        <mxCell id="5m0OHBA38H0runsn4Bls-10" value="□: Floor" style="text;html=1;align=center;verticalAlign=middle;resizable=0;points=[];autosize=1;strokeColor=none;fillColor=none;fontSize=26;" vertex="1" parent="1">
          <mxGeometry x="109" y="237" width="107" height="43" as="geometry" />
        </mxCell>
        <mxCell id="5m0OHBA38H0runsn4Bls-11" value="※: Right Path" style="text;html=1;align=center;verticalAlign=middle;resizable=0;points=[];autosize=1;strokeColor=none;fillColor=none;fontSize=26;" vertex="1" parent="1">
          <mxGeometry x="232.19" y="194" width="176" height="43" as="geometry" />
        </mxCell>
        <mxCell id="5m0OHBA38H0runsn4Bls-12" value="×: Wrong Path" style="text;html=1;align=center;verticalAlign=middle;resizable=0;points=[];autosize=1;strokeColor=none;fillColor=none;fontSize=26;" vertex="1" parent="1">
          <mxGeometry x="232.19" y="237" width="184" height="43" as="geometry" />
        </mxCell>
      </root>
    </mxGraphModel>
  </diagram>
</mxfile>
